<ttFont>
    <TTGlyph name="a.tam" xMin="35" yMin="-9" xMax="801" yMax="513">
      <contour>
        <pt x="402" y="513" on="1"/>
        <pt x="450" y="513" on="0"/>
        <pt x="529" y="471" on="0"/>
        <pt x="585" y="402" on="0"/>
        <pt x="613" y="312" on="0"/>
        <pt x="610" y="264" on="1"/>
        <pt x="711" y="264" on="1"/>
        <pt x="733" y="507" on="1"/>
        <pt x="801" y="507" on="1"/>
        <pt x="753" y="0" on="1"/>
        <pt x="685" y="0" on="1"/>
        <pt x="705" y="212" on="1"/>
        <pt x="602" y="212" on="1"/>
        <pt x="591" y="163" on="0"/>
        <pt x="543" y="82" on="0"/>
        <pt x="470" y="23" on="0"/>
        <pt x="372" y="-9" on="0"/>
        <pt x="311" y="-9" on="1"/>
        <pt x="242" y="-9" on="0"/>
        <pt x="137" y="25" on="0"/>
        <pt x="68" y="79" on="0"/>
        <pt x="35" y="144" on="0"/>
        <pt x="38" y="176" on="1"/>
        <pt x="42" y="221" on="0"/>
        <pt x="103" y="264" on="0"/>
        <pt x="148" y="264" on="1"/>
        <pt x="216" y="264" on="1"/>
        <pt x="203" y="280" on="0"/>
        <pt x="191" y="323" on="0"/>
        <pt x="193" y="348" on="1"/>
        <pt x="197" y="386" on="0"/>
        <pt x="236" y="447" on="0"/>
        <pt x="295" y="490" on="0"/>
        <pt x="366" y="513" on="0"/>
      </contour>
      <contour>
        <pt x="316" y="55" on="1"/>
        <pt x="401" y="55" on="0"/>
        <pt x="522" y="137" on="0"/>
        <pt x="543" y="212" on="1"/>
        <pt x="166" y="212" on="1"/>
        <pt x="142" y="212" on="0"/>
        <pt x="109" y="190" on="0"/>
        <pt x="106" y="164" on="1"/>
        <pt x="104" y="143" on="0"/>
        <pt x="128" y="104" on="0"/>
        <pt x="179" y="74" on="0"/>
        <pt x="260" y="55" on="0"/>
      </contour>
      <contour>
        <pt x="393" y="364" on="1"/>
        <pt x="395" y="385" on="0"/>
        <pt x="393" y="426" on="0"/>
        <pt x="386" y="447" on="1"/>
        <pt x="360" y="445" on="0"/>
        <pt x="314" y="427" on="0"/>
        <pt x="278" y="399" on="0"/>
        <pt x="255" y="361" on="0"/>
        <pt x="253" y="339" on="1"/>
        <pt x="250" y="307" on="0"/>
        <pt x="278" y="266" on="0"/>
        <pt x="303" y="264" on="1"/>
        <pt x="312" y="264" on="1"/>
        <pt x="345" y="266" on="0"/>
        <pt x="389" y="322" on="0"/>
      </contour>
      <contour>
        <pt x="439" y="356" on="1"/>
        <pt x="437" y="325" on="0"/>
        <pt x="415" y="278" on="0"/>
        <pt x="401" y="264" on="1"/>
        <pt x="552" y="264" on="1"/>
        <pt x="555" y="300" on="0"/>
        <pt x="537" y="362" on="0"/>
        <pt x="502" y="410" on="0"/>
        <pt x="452" y="441" on="0"/>
        <pt x="424" y="446" on="1"/>
        <pt x="432" y="426" on="0"/>
        <pt x="441" y="381" on="0"/>
      </contour>
    </TTGlyph>
    <TTGlyph name="aa.tam" xMin="35" yMin="-166" xMax="1026" yMax="513">
      <contour>
        <pt x="402" y="513" on="1"/>
        <pt x="450" y="513" on="0"/>
        <pt x="529" y="471" on="0"/>
        <pt x="585" y="402" on="0"/>
        <pt x="613" y="312" on="0"/>
        <pt x="610" y="264" on="1"/>
        <pt x="711" y="264" on="1"/>
        <pt x="733" y="507" on="1"/>
        <pt x="801" y="507" on="1"/>
        <pt x="773" y="207" on="1"/>
        <pt x="794" y="252" on="0"/>
        <pt x="858" y="295" on="0"/>
        <pt x="897" y="295" on="1"/>
        <pt x="928" y="295" on="0"/>
        <pt x="978" y="267" on="0"/>
        <pt x="1011" y="218" on="0"/>
        <pt x="1026" y="150" on="0"/>
        <pt x="1023" y="110" on="1"/>
        <pt x="1017" y="46" on="0"/>
        <pt x="958" y="-56" on="0"/>
        <pt x="866" y="-128" on="0"/>
        <pt x="746" y="-166" on="0"/>
        <pt x="678" y="-166" on="1"/>
        <pt x="637" y="-166" on="0"/>
        <pt x="540" y="-149" on="0"/>
        <pt x="501" y="-132" on="1"/>
        <pt x="508" y="-51" on="1"/>
        <pt x="550" y="-74" on="0"/>
        <pt x="646" y="-97" on="0"/>
        <pt x="685" y="-97" on="1"/>
        <pt x="739" y="-97" on="0"/>
        <pt x="832" y="-67" on="0"/>
        <pt x="903" y="-13" on="0"/>
        <pt x="946" y="63" on="0"/>
        <pt x="950" y="110" on="1"/>
        <pt x="956" y="168" on="0"/>
        <pt x="912" y="229" on="0"/>
        <pt x="877" y="229" on="1"/>
        <pt x="856" y="229" on="0"/>
        <pt x="816" y="206" on="0"/>
        <pt x="785" y="164" on="0"/>
        <pt x="763" y="106" on="0"/>
        <pt x="760" y="71" on="1"/>
        <pt x="753" y="0" on="1"/>
        <pt x="685" y="0" on="1"/>
        <pt x="705" y="212" on="1"/>
        <pt x="602" y="212" on="1"/>
        <pt x="591" y="163" on="0"/>
        <pt x="543" y="82" on="0"/>
        <pt x="470" y="23" on="0"/>
        <pt x="372" y="-9" on="0"/>
        <pt x="311" y="-9" on="1"/>
        <pt x="242" y="-9" on="0"/>
        <pt x="137" y="25" on="0"/>
        <pt x="68" y="79" on="0"/>
        <pt x="35" y="144" on="0"/>
        <pt x="38" y="176" on="1"/>
        <pt x="42" y="221" on="0"/>
        <pt x="103" y="264" on="0"/>
        <pt x="148" y="264" on="1"/>
        <pt x="216" y="264" on="1"/>
        <pt x="203" y="280" on="0"/>
        <pt x="191" y="323" on="0"/>
        <pt x="193" y="348" on="1"/>
        <pt x="197" y="386" on="0"/>
        <pt x="236" y="447" on="0"/>
        <pt x="295" y="490" on="0"/>
        <pt x="366" y="513" on="0"/>
      </contour>
      <contour>
        <pt x="316" y="55" on="1"/>
        <pt x="401" y="55" on="0"/>
        <pt x="522" y="137" on="0"/>
        <pt x="543" y="212" on="1"/>
        <pt x="166" y="212" on="1"/>
        <pt x="142" y="212" on="0"/>
        <pt x="109" y="190" on="0"/>
        <pt x="106" y="164" on="1"/>
        <pt x="104" y="143" on="0"/>
        <pt x="128" y="104" on="0"/>
        <pt x="179" y="74" on="0"/>
        <pt x="260" y="55" on="0"/>
      </contour>
      <contour>
        <pt x="393" y="364" on="1"/>
        <pt x="395" y="385" on="0"/>
        <pt x="393" y="426" on="0"/>
        <pt x="386" y="447" on="1"/>
        <pt x="360" y="445" on="0"/>
        <pt x="314" y="427" on="0"/>
        <pt x="278" y="399" on="0"/>
        <pt x="255" y="361" on="0"/>
        <pt x="253" y="339" on="1"/>
        <pt x="250" y="307" on="0"/>
        <pt x="278" y="266" on="0"/>
        <pt x="303" y="264" on="1"/>
        <pt x="312" y="264" on="1"/>
        <pt x="345" y="266" on="0"/>
        <pt x="389" y="322" on="0"/>
      </contour>
      <contour>
        <pt x="439" y="356" on="1"/>
        <pt x="437" y="325" on="0"/>
        <pt x="415" y="278" on="0"/>
        <pt x="401" y="264" on="1"/>
        <pt x="552" y="264" on="1"/>
        <pt x="555" y="299" on="0"/>
        <pt x="537" y="361" on="0"/>
        <pt x="502" y="409" on="0"/>
        <pt x="453" y="441" on="0"/>
        <pt x="425" y="446" on="1"/>
        <pt x="433" y="426" on="0"/>
        <pt x="441" y="381" on="0"/>
      </contour>
    </TTGlyph>
    <TTGlyph name="aamatra.tam" xMin="80" yMin="0" xMax="553" yMax="504">
      <contour>
        <pt x="553" y="504" on="1"/>
        <pt x="547" y="435" on="1"/>
        <pt x="442" y="435" on="1"/>
        <pt x="402" y="0" on="1"/>
        <pt x="334" y="0" on="1"/>
        <pt x="374" y="435" on="1"/>
        <pt x="189" y="435" on="1"/>
        <pt x="149" y="0" on="1"/>
        <pt x="80" y="0" on="1"/>
        <pt x="127" y="504" on="1"/>
      </contour>
    </TTGlyph>
    <TTGlyph name="ai.tam" xMin="52" yMin="-251" xMax="745" yMax="513">
      <contour>
        <pt x="606" y="513" on="1"/>
        <pt x="636" y="513" on="0"/>
        <pt x="687" y="487" on="0"/>
        <pt x="724" y="441" on="0"/>
        <pt x="745" y="377" on="0"/>
        <pt x="745" y="339" on="1"/>
        <pt x="745" y="271" on="0"/>
        <pt x="695" y="161" on="0"/>
        <pt x="605" y="85" on="0"/>
        <pt x="480" y="44" on="0"/>
        <pt x="405" y="44" on="1"/>
        <pt x="243" y="44" on="1"/>
        <pt x="188" y="44" on="0"/>
        <pt x="124" y="-20" on="0"/>
        <pt x="124" y="-74" on="1"/>
        <pt x="124" y="-122" on="0"/>
        <pt x="185" y="-180" on="0"/>
        <pt x="242" y="-180" on="1"/>
        <pt x="268" y="-180" on="0"/>
        <pt x="315" y="-165" on="0"/>
        <pt x="351" y="-132" on="0"/>
        <pt x="375" y="-81" on="0"/>
        <pt x="378" y="-45" on="1"/>
        <pt x="447" y="-45" on="1"/>
        <pt x="446" y="-53" on="0"/>
        <pt x="445" y="-68" on="0"/>
        <pt x="445" y="-76" on="1"/>
        <pt x="446" y="-131" on="0"/>
        <pt x="494" y="-180" on="0"/>
        <pt x="532" y="-180" on="1"/>
        <pt x="580" y="-180" on="0"/>
        <pt x="635" y="-111" on="0"/>
        <pt x="635" y="-58" on="1"/>
        <pt x="635" y="-18" on="0"/>
        <pt x="616" y="27" on="1"/>
        <pt x="680" y="56" on="1"/>
        <pt x="707" y="-3" on="0"/>
        <pt x="707" y="-57" on="1"/>
        <pt x="707" y="-96" on="0"/>
        <pt x="685" y="-167" on="0"/>
        <pt x="643" y="-220" on="0"/>
        <pt x="580" y="-251" on="0"/>
        <pt x="538" y="-251" on="1"/>
        <pt x="494" y="-251" on="0"/>
        <pt x="430" y="-202" on="0"/>
        <pt x="418" y="-147" on="1"/>
        <pt x="391" y="-198" on="0"/>
        <pt x="298" y="-251" on="0"/>
        <pt x="235" y="-251" on="1"/>
        <pt x="195" y="-251" on="0"/>
        <pt x="128" y="-225" on="0"/>
        <pt x="79" y="-179" on="0"/>
        <pt x="52" y="-114" on="0"/>
        <pt x="52" y="-75" on="1"/>
        <pt x="52" y="-35" on="0"/>
        <pt x="77" y="34" on="0"/>
        <pt x="125" y="84" on="0"/>
        <pt x="197" y="112" on="0"/>
        <pt x="245" y="112" on="1"/>
        <pt x="405" y="112" on="1"/>
        <pt x="461" y="112" on="0"/>
        <pt x="559" y="138" on="0"/>
        <pt x="631" y="193" on="0"/>
        <pt x="673" y="281" on="0"/>
        <pt x="673" y="343" on="1"/>
        <pt x="673" y="393" on="0"/>
        <pt x="633" y="446" on="0"/>
        <pt x="598" y="446" on="1"/>
        <pt x="555" y="446" on="0"/>
        <pt x="493" y="370" on="0"/>
        <pt x="486" y="289" on="1"/>
        <pt x="479" y="217" on="1"/>
        <pt x="410" y="217" on="1"/>
        <pt x="416" y="276" on="1"/>
        <pt x="418" y="318" on="0"/>
        <pt x="401" y="386" on="0"/>
        <pt x="363" y="432" on="0"/>
        <pt x="306" y="451" on="0"/>
        <pt x="267" y="444" on="1"/>
        <pt x="301" y="420" on="0"/>
        <pt x="337" y="350" on="0"/>
        <pt x="337" y="312" on="1"/>
        <pt x="337" y="255" on="0"/>
        <pt x="267" y="182" on="0"/>
        <pt x="207" y="182" on="1"/>
        <pt x="183" y="182" on="0"/>
        <pt x="140" y="198" on="0"/>
        <pt x="107" y="230" on="0"/>
        <pt x="88" y="277" on="0"/>
        <pt x="88" y="308" on="1"/>
        <pt x="88" y="348" on="0"/>
        <pt x="119" y="422" on="0"/>
        <pt x="173" y="479" on="0"/>
        <pt x="247" y="513" on="0"/>
        <pt x="290" y="513" on="1"/>
        <pt x="346" y="513" on="0"/>
        <pt x="426" y="449" on="0"/>
        <pt x="442" y="388" on="1"/>
        <pt x="466" y="447" on="0"/>
        <pt x="549" y="513" on="0"/>
      </contour>
      <contour>
        <pt x="213" y="242" on="1"/>
        <pt x="247" y="242" on="0"/>
        <pt x="289" y="293" on="0"/>
        <pt x="289" y="335" on="1"/>
        <pt x="289" y="393" on="0"/>
        <pt x="232" y="432" on="1"/>
        <pt x="198" y="413" on="0"/>
        <pt x="155" y="349" on="0"/>
        <pt x="155" y="307" on="1"/>
        <pt x="155" y="274" on="0"/>
        <pt x="189" y="242" on="0"/>
      </contour>
    </TTGlyph>
    <TTGlyph name="aimatra.tam" xMin="63" yMin="-9" xMax="1036" yMax="513">
      <contour>
        <pt x="439" y="513" on="1"/>
        <pt x="502" y="513" on="0"/>
        <pt x="613" y="475" on="0"/>
        <pt x="658" y="441" on="1"/>
        <pt x="697" y="474" on="0"/>
        <pt x="788" y="513" on="0"/>
        <pt x="838" y="513" on="1"/>
        <pt x="885" y="513" on="0"/>
        <pt x="961" y="474" on="0"/>
        <pt x="1012" y="405" on="0"/>
        <pt x="1036" y="308" on="0"/>
        <pt x="1030" y="251" on="1"/>
        <pt x="1024" y="185" on="0"/>
        <pt x="962" y="48" on="0"/>
        <pt x="904" y="-9" on="1"/>
        <pt x="845" y="18" on="1"/>
        <pt x="904" y="79" on="0"/>
        <pt x="955" y="195" on="0"/>
        <pt x="961" y="253" on="1"/>
        <pt x="965" y="293" on="0"/>
        <pt x="951" y="363" on="0"/>
        <pt x="918" y="416" on="0"/>
        <pt x="866" y="446" on="0"/>
        <pt x="832" y="446" on="1"/>
        <pt x="799" y="446" on="0"/>
        <pt x="733" y="421" on="0"/>
        <pt x="704" y="398" on="1"/>
        <pt x="748" y="350" on="0"/>
        <pt x="791" y="230" on="0"/>
        <pt x="785" y="163" on="1"/>
        <pt x="781" y="125" on="0"/>
        <pt x="755" y="61" on="0"/>
        <pt x="714" y="16" on="0"/>
        <pt x="662" y="-9" on="0"/>
        <pt x="632" y="-9" on="1"/>
        <pt x="603" y="-9" on="0"/>
        <pt x="555" y="16" on="0"/>
        <pt x="523" y="61" on="0"/>
        <pt x="508" y="125" on="0"/>
        <pt x="512" y="163" on="1"/>
        <pt x="517" y="223" on="0"/>
        <pt x="568" y="343" on="0"/>
        <pt x="609" y="392" on="1"/>
        <pt x="572" y="417" on="0"/>
        <pt x="482" y="444" on="0"/>
        <pt x="432" y="444" on="1"/>
        <pt x="375" y="444" on="0"/>
        <pt x="272" y="408" on="0"/>
        <pt x="191" y="345" on="0"/>
        <pt x="140" y="258" on="0"/>
        <pt x="135" y="207" on="1"/>
        <pt x="129" y="145" on="0"/>
        <pt x="170" y="75" on="0"/>
        <pt x="205" y="61" on="1"/>
        <pt x="197" y="78" on="0"/>
        <pt x="194" y="114" on="0"/>
        <pt x="195" y="131" on="1"/>
        <pt x="199" y="166" on="0"/>
        <pt x="223" y="226" on="0"/>
        <pt x="261" y="270" on="0"/>
        <pt x="311" y="295" on="0"/>
        <pt x="340" y="295" on="1"/>
        <pt x="365" y="295" on="0"/>
        <pt x="406" y="274" on="0"/>
        <pt x="433" y="237" on="0"/>
        <pt x="445" y="187" on="0"/>
        <pt x="442" y="158" on="1"/>
        <pt x="439" y="123" on="0"/>
        <pt x="409" y="62" on="0"/>
        <pt x="361" y="17" on="0"/>
        <pt x="296" y="-9" on="0"/>
        <pt x="258" y="-9" on="1"/>
        <pt x="216" y="-9" on="0"/>
        <pt x="143" y="24" on="0"/>
        <pt x="91" y="83" on="0"/>
        <pt x="63" y="167" on="0"/>
        <pt x="68" y="218" on="1"/>
        <pt x="73" y="279" on="0"/>
        <pt x="132" y="387" on="0"/>
        <pt x="230" y="467" on="0"/>
        <pt x="361" y="513" on="0"/>
      </contour>
      <contour>
        <pt x="722" y="163" on="1"/>
        <pt x="727" y="219" on="0"/>
        <pt x="692" y="315" on="0"/>
        <pt x="657" y="353" on="1"/>
        <pt x="623" y="314" on="0"/>
        <pt x="579" y="216" on="0"/>
        <pt x="574" y="163" on="1"/>
        <pt x="569" y="113" on="0"/>
        <pt x="607" y="58" on="0"/>
        <pt x="637" y="58" on="1"/>
        <pt x="669" y="58" on="0"/>
        <pt x="717" y="113" on="0"/>
      </contour>
      <contour>
        <pt x="330" y="229" on="1"/>
        <pt x="311" y="229" on="0"/>
        <pt x="281" y="211" on="0"/>
        <pt x="258" y="182" on="0"/>
        <pt x="244" y="144" on="0"/>
        <pt x="241" y="124" on="1"/>
        <pt x="235" y="84" on="0"/>
        <pt x="244" y="52" on="1"/>
        <pt x="247" y="51" on="0"/>
        <pt x="254" y="52" on="0"/>
        <pt x="256" y="52" on="1"/>
        <pt x="266" y="51" on="0"/>
        <pt x="282" y="54" on="1"/>
        <pt x="298" y="57" on="0"/>
        <pt x="331" y="74" on="0"/>
        <pt x="359" y="100" on="0"/>
        <pt x="379" y="136" on="0"/>
        <pt x="381" y="158" on="1"/>
        <pt x="384" y="188" on="0"/>
        <pt x="359" y="229" on="0"/>
      </contour>
    </TTGlyph>
    <TTGlyph name="aimatrahalf.tam" xMin="59" yMin="-9" xMax="511" yMax="807">
      <contour>
        <pt x="331" y="807" on="1"/>
        <pt x="373" y="807" on="0"/>
        <pt x="441" y="775" on="0"/>
        <pt x="488" y="720" on="0"/>
        <pt x="511" y="647" on="0"/>
        <pt x="507" y="607" on="1"/>
        <pt x="500" y="537" on="0"/>
        <pt x="434" y="437" on="0"/>
        <pt x="382" y="395" on="1"/>
        <pt x="196" y="248" on="1"/>
        <pt x="168" y="225" on="0"/>
        <pt x="137" y="181" on="0"/>
        <pt x="135" y="152" on="1"/>
        <pt x="130" y="112" on="0"/>
        <pt x="174" y="60" on="0"/>
        <pt x="213" y="60" on="1"/>
        <pt x="248" y="60" on="0"/>
        <pt x="315" y="93" on="0"/>
        <pt x="376" y="153" on="0"/>
        <pt x="430" y="238" on="0"/>
        <pt x="451" y="290" on="1"/>
        <pt x="480" y="277" on="1"/>
        <pt x="462" y="212" on="0"/>
        <pt x="407" y="107" on="0"/>
        <pt x="338" y="32" on="0"/>
        <pt x="255" y="-9" on="0"/>
        <pt x="207" y="-9" on="1"/>
        <pt x="172" y="-9" on="0"/>
        <pt x="116" y="16" on="0"/>
        <pt x="77" y="60" on="0"/>
        <pt x="59" y="120" on="0"/>
        <pt x="63" y="154" on="1"/>
        <pt x="68" y="206" on="0"/>
        <pt x="123" y="280" on="0"/>
        <pt x="170" y="317" on="1"/>
        <pt x="336" y="450" on="1"/>
        <pt x="381" y="485" on="0"/>
        <pt x="433" y="560" on="0"/>
        <pt x="438" y="610" on="1"/>
        <pt x="443" y="666" on="0"/>
        <pt x="388" y="739" on="0"/>
        <pt x="340" y="745" on="1"/>
        <pt x="354" y="724" on="0"/>
        <pt x="367" y="671" on="0"/>
        <pt x="365" y="642" on="1"/>
        <pt x="362" y="615" on="0"/>
        <pt x="341" y="565" on="0"/>
        <pt x="306" y="527" on="0"/>
        <pt x="259" y="505" on="0"/>
        <pt x="230" y="505" on="1"/>
        <pt x="203" y="505" on="0"/>
        <pt x="157" y="525" on="0"/>
        <pt x="125" y="560" on="0"/>
        <pt x="109" y="609" on="0"/>
        <pt x="112" y="638" on="1"/>
        <pt x="116" y="676" on="0"/>
        <pt x="154" y="738" on="0"/>
        <pt x="213" y="783" on="0"/>
        <pt x="289" y="807" on="0"/>
      </contour>
      <contour>
        <pt x="306" y="747" on="1"/>
        <pt x="284" y="745" on="0"/>
        <pt x="241" y="728" on="0"/>
        <pt x="206" y="700" on="0"/>
        <pt x="182" y="663" on="0"/>
        <pt x="181" y="641" on="1"/>
        <pt x="178" y="607" on="0"/>
        <pt x="207" y="564" on="0"/>
        <pt x="239" y="564" on="1"/>
        <pt x="271" y="564" on="0"/>
        <pt x="315" y="617" on="0"/>
        <pt x="318" y="656" on="1"/>
        <pt x="323" y="703" on="0"/>
      </contour>
    </TTGlyph>
    <TTGlyph name="ampersand" xMin="80" yMin="-9" xMax="757" yMax="640">
      <contour>
        <pt x="757" y="143" on="1"/>
        <pt x="747" y="71" on="0"/>
        <pt x="681" y="-9" on="0"/>
        <pt x="624" y="-9" on="1"/>
        <pt x="589" y="-9" on="0"/>
        <pt x="530" y="21" on="0"/>
        <pt x="498" y="59" on="1"/>
        <pt x="480" y="79" on="1"/>
        <pt x="436" y="37" on="0"/>
        <pt x="335" y="-9" on="0"/>
        <pt x="275" y="-9" on="1"/>
        <pt x="230" y="-9" on="0"/>
        <pt x="157" y="18" on="0"/>
        <pt x="106" y="66" on="0"/>
        <pt x="80" y="131" on="0"/>
        <pt x="84" y="170" on="1"/>
        <pt x="90" y="237" on="0"/>
        <pt x="175" y="314" on="0"/>
        <pt x="255" y="329" on="1"/>
        <pt x="222" y="370" on="0"/>
        <pt x="190" y="446" on="0"/>
        <pt x="195" y="491" on="1"/>
        <pt x="198" y="523" on="0"/>
        <pt x="228" y="577" on="0"/>
        <pt x="276" y="617" on="0"/>
        <pt x="340" y="640" on="0"/>
        <pt x="378" y="640" on="1"/>
        <pt x="413" y="640" on="0"/>
        <pt x="469" y="616" on="0"/>
        <pt x="506" y="575" on="0"/>
        <pt x="525" y="521" on="0"/>
        <pt x="522" y="490" on="1"/>
        <pt x="517" y="436" on="0"/>
        <pt x="445" y="348" on="0"/>
        <pt x="366" y="311" on="1"/>
        <pt x="486" y="177" on="1"/>
        <pt x="518" y="216" on="0"/>
        <pt x="576" y="314" on="0"/>
        <pt x="601" y="371" on="1"/>
        <pt x="650" y="340" on="1"/>
        <pt x="622" y="280" on="0"/>
        <pt x="562" y="174" on="0"/>
        <pt x="527" y="131" on="1"/>
        <pt x="560" y="95" on="1"/>
        <pt x="579" y="74" on="0"/>
        <pt x="606" y="58" on="0"/>
        <pt x="626" y="58" on="1"/>
        <pt x="649" y="58" on="0"/>
        <pt x="686" y="98" on="0"/>
        <pt x="692" y="143" on="1"/>
      </contour>
      <contour>
        <pt x="155" y="170" on="1"/>
        <pt x="152" y="147" on="0"/>
        <pt x="165" y="106" on="0"/>
        <pt x="196" y="75" on="0"/>
        <pt x="244" y="57" on="0"/>
        <pt x="277" y="57" on="1"/>
        <pt x="321" y="57" on="0"/>
        <pt x="401" y="93" on="0"/>
        <pt x="438" y="126" on="1"/>
        <pt x="296" y="283" on="1"/>
        <pt x="226" y="272" on="0"/>
        <pt x="159" y="215" on="0"/>
      </contour>
      <contour>
        <pt x="452" y="490" on="1"/>
        <pt x="455" y="526" on="0"/>
        <pt x="411" y="575" on="0"/>
        <pt x="373" y="575" on="1"/>
        <pt x="326" y="575" on="0"/>
        <pt x="272" y="520" on="0"/>
        <pt x="268" y="482" on="1"/>
        <pt x="266" y="453" on="0"/>
        <pt x="284" y="403" on="0"/>
        <pt x="307" y="377" on="1"/>
        <pt x="329" y="352" on="1"/>
        <pt x="363" y="368" on="0"/>
        <pt x="409" y="401" on="0"/>
        <pt x="437" y="435" on="0"/>
        <pt x="450" y="471" on="0"/>
      </contour>
    </TTGlyph>
    <TTGlyph name="anusvara.tam" xMin="95" yMin="583" xMax="320" yMax="810">
      <contour>
        <pt x="216" y="810" on="1"/>
        <pt x="262" y="810" on="0"/>
        <pt x="320" y="750" on="0"/>
        <pt x="316" y="697" on="1"/>
        <pt x="314" y="670" on="0"/>
        <pt x="292" y="628" on="0"/>
        <pt x="259" y="598" on="0"/>
        <pt x="217" y="583" on="0"/>
        <pt x="195" y="583" on="1"/>
        <pt x="172" y="583" on="0"/>
        <pt x="135" y="598" on="0"/>
        <pt x="108" y="628" on="0"/>
        <pt x="95" y="670" on="0"/>
        <pt x="97" y="697" on="1"/>
        <pt x="102" y="751" on="0"/>
        <pt x="171" y="810" on="0"/>
      </contour>
      <contour>
        <pt x="211" y="755" on="1"/>
        <pt x="189" y="755" on="0"/>
        <pt x="163" y="723" on="0"/>
        <pt x="160" y="697" on="1"/>
        <pt x="158" y="670" on="0"/>
        <pt x="177" y="639" on="0"/>
        <pt x="200" y="639" on="1"/>
        <pt x="223" y="639" on="0"/>
        <pt x="250" y="670" on="0"/>
        <pt x="253" y="697" on="1"/>
        <pt x="255" y="723" on="0"/>
        <pt x="234" y="755" on="0"/>
      </contour>
    </TTGlyph>
    <TTGlyph name="apostrophe" xMin="73" yMin="415" xMax="226" yMax="629">
      <contour>
        <pt x="107" y="575" on="1"/>
        <pt x="109" y="598" on="0"/>
        <pt x="142" y="629" on="0"/>
        <pt x="166" y="629" on="1"/>
        <pt x="195" y="629" on="0"/>
        <pt x="226" y="582" on="0"/>
        <pt x="223" y="548" on="1"/>
        <pt x="219" y="512" on="0"/>
        <pt x="171" y="438" on="0"/>
        <pt x="129" y="415" on="1"/>
        <pt x="73" y="446" on="1"/>
        <pt x="102" y="460" on="0"/>
        <pt x="142" y="496" on="0"/>
        <pt x="150" y="522" on="1"/>
        <pt x="130" y="525" on="0"/>
        <pt x="105" y="552" on="0"/>
      </contour>
    </TTGlyph>
    <TTGlyph name="asciicircum" xMin="41" yMin="242" xMax="421" yMax="588">
      <contour>
        <pt x="41" y="242" on="1"/>
        <pt x="234" y="588" on="1"/>
        <pt x="294" y="588" on="1"/>
        <pt x="421" y="242" on="1"/>
        <pt x="337" y="242" on="1"/>
        <pt x="255" y="487" on="1"/>
        <pt x="126" y="242" on="1"/>
      </contour>
    </TTGlyph>
    <TTGlyph name="asciitilde" xMin="71" yMin="220" xMax="453" yMax="362">
      <contour>
        <pt x="110" y="220" on="1"/>
        <pt x="71" y="245" on="1"/>
        <pt x="91" y="300" on="0"/>
        <pt x="146" y="359" on="0"/>
        <pt x="181" y="359" on="1"/>
        <pt x="198" y="359" on="0"/>
        <pt x="236" y="347" on="0"/>
        <pt x="270" y="331" on="1"/>
        <pt x="304" y="315" on="0"/>
        <pt x="337" y="305" on="0"/>
        <pt x="350" y="305" on="1"/>
        <pt x="367" y="305" on="0"/>
        <pt x="401" y="334" on="0"/>
        <pt x="415" y="362" on="1"/>
        <pt x="453" y="332" on="1"/>
        <pt x="430" y="277" on="0"/>
        <pt x="372" y="224" on="0"/>
        <pt x="338" y="224" on="1"/>
        <pt x="324" y="224" on="0"/>
        <pt x="283" y="237" on="0"/>
        <pt x="251" y="252" on="1"/>
        <pt x="216" y="268" on="0"/>
        <pt x="184" y="280" on="0"/>
        <pt x="171" y="280" on="1"/>
        <pt x="156" y="280" on="0"/>
        <pt x="125" y="253" on="0"/>
      </contour>
    </TTGlyph>
    <TTGlyph name="asterisk" xMin="102" yMin="389" xMax="375" yMax="686">
      <contour>
        <pt x="203" y="517" on="1"/>
        <pt x="102" y="557" on="1"/>
        <pt x="130" y="613" on="1"/>
        <pt x="219" y="560" on="1"/>
        <pt x="222" y="686" on="1"/>
        <pt x="279" y="686" on="1"/>
        <pt x="258" y="560" on="1"/>
        <pt x="358" y="613" on="1"/>
        <pt x="375" y="557" on="1"/>
        <pt x="267" y="517" on="1"/>
        <pt x="340" y="429" on="1"/>
        <pt x="295" y="389" on="1"/>
        <pt x="233" y="492" on="1"/>
        <pt x="151" y="389" on="1"/>
        <pt x="114" y="429" on="1"/>
      </contour>
    </TTGlyph>
    <TTGlyph name="at" xMin="53" yMin="-217" xMax="807" yMax="578">
      <contour>
        <pt x="512" y="240" on="1"/>
        <pt x="516" y="275" on="0"/>
        <pt x="497" y="315" on="0"/>
        <pt x="468" y="315" on="1"/>
        <pt x="448" y="315" on="0"/>
        <pt x="403" y="293" on="0"/>
        <pt x="363" y="252" on="0"/>
        <pt x="334" y="195" on="0"/>
        <pt x="331" y="159" on="1"/>
        <pt x="326" y="110" on="0"/>
        <pt x="366" y="52" on="0"/>
        <pt x="401" y="52" on="1"/>
        <pt x="434" y="52" on="0"/>
        <pt x="480" y="100" on="0"/>
        <pt x="503" y="142" on="1"/>
      </contour>
      <contour>
        <pt x="500" y="578" on="1"/>
        <pt x="572" y="578" on="0"/>
        <pt x="690" y="528" on="0"/>
        <pt x="769" y="440" on="0"/>
        <pt x="807" y="319" on="0"/>
        <pt x="800" y="248" on="1"/>
        <pt x="795" y="190" on="0"/>
        <pt x="756" y="95" on="0"/>
        <pt x="697" y="28" on="0"/>
        <pt x="625" y="-9" on="0"/>
        <pt x="587" y="-9" on="1"/>
        <pt x="507" y="-9" on="0"/>
        <pt x="498" y="70" on="1"/>
        <pt x="479" y="35" on="0"/>
        <pt x="425" y="-9" on="0"/>
        <pt x="382" y="-9" on="1"/>
        <pt x="356" y="-9" on="0"/>
        <pt x="308" y="15" on="0"/>
        <pt x="273" y="59" on="0"/>
        <pt x="254" y="120" on="0"/>
        <pt x="258" y="157" on="1"/>
        <pt x="262" y="205" on="0"/>
        <pt x="303" y="287" on="0"/>
        <pt x="363" y="347" on="0"/>
        <pt x="438" y="382" on="0"/>
        <pt x="476" y="382" on="1"/>
        <pt x="528" y="382" on="0"/>
        <pt x="588" y="311" on="0"/>
        <pt x="580" y="241" on="1"/>
        <pt x="567" y="102" on="1"/>
        <pt x="562" y="52" on="0"/>
        <pt x="598" y="52" on="1"/>
        <pt x="616" y="52" on="0"/>
        <pt x="658" y="78" on="0"/>
        <pt x="695" y="127" on="0"/>
        <pt x="723" y="198" on="0"/>
        <pt x="727" y="244" on="1"/>
        <pt x="733" y="302" on="0"/>
        <pt x="706" y="400" on="0"/>
        <pt x="645" y="470" on="0"/>
        <pt x="553" y="510" on="0"/>
        <pt x="494" y="510" on="1"/>
        <pt x="426" y="510" on="0"/>
        <pt x="302" y="459" on="0"/>
        <pt x="203" y="369" on="0"/>
        <pt x="139" y="245" on="0"/>
        <pt x="132" y="172" on="1"/>
        <pt x="125" y="94" on="0"/>
        <pt x="165" y="-26" on="0"/>
        <pt x="252" y="-109" on="0"/>
        <pt x="382" y="-152" on="0"/>
        <pt x="465" y="-152" on="1"/>
        <pt x="458" y="-217" on="1"/>
        <pt x="365" y="-217" on="0"/>
        <pt x="210" y="-163" on="0"/>
        <pt x="104" y="-61" on="0"/>
        <pt x="53" y="88" on="0"/>
        <pt x="62" y="184" on="1"/>
        <pt x="70" y="269" on="0"/>
        <pt x="146" y="414" on="0"/>
        <pt x="264" y="519" on="0"/>
        <pt x="416" y="578" on="0"/>
      </contour>
    </TTGlyph>
    <TTGlyph name="au.tam" xMin="63" yMin="-351" xMax="1973" yMax="513">
      <contour>
        <pt x="723" y="-189" on="1"/>
        <pt x="658" y="-189" on="0"/>
        <pt x="609" y="-169" on="1"/>
        <pt x="546" y="-265" on="0"/>
        <pt x="426" y="-351" on="0"/>
        <pt x="356" y="-351" on="1"/>
        <pt x="323" y="-351" on="0"/>
        <pt x="267" y="-330" on="0"/>
        <pt x="227" y="-293" on="0"/>
        <pt x="206" y="-241" on="0"/>
        <pt x="209" y="-210" on="1"/>
        <pt x="212" y="-182" on="0"/>
        <pt x="235" y="-138" on="0"/>
        <pt x="271" y="-107" on="0"/>
        <pt x="315" y="-91" on="0"/>
        <pt x="338" y="-91" on="1"/>
        <pt x="371" y="-91" on="0"/>
        <pt x="414" y="-119" on="0"/>
        <pt x="439" y="-165" on="0"/>
        <pt x="448" y="-226" on="0"/>
        <pt x="447" y="-259" on="1"/>
        <pt x="482" y="-234" on="0"/>
        <pt x="533" y="-172" on="0"/>
        <pt x="556" y="-137" on="1"/>
        <pt x="522" y="-108" on="0"/>
        <pt x="492" y="-23" on="0"/>
        <pt x="497" y="31" on="1"/>
        <pt x="505" y="113" on="0"/>
        <pt x="604" y="244" on="0"/>
        <pt x="682" y="292" on="1"/>
        <pt x="752" y="264" on="1"/>
        <pt x="734" y="230" on="0"/>
        <pt x="714" y="176" on="0"/>
        <pt x="711" y="141" on="1"/>
        <pt x="707" y="103" on="0"/>
        <pt x="744" y="60" on="0"/>
        <pt x="776" y="60" on="1"/>
        <pt x="811" y="60" on="0"/>
        <pt x="868" y="129" on="0"/>
        <pt x="874" y="188" on="1"/>
        <pt x="879" y="243" on="0"/>
        <pt x="831" y="337" on="0"/>
        <pt x="740" y="406" on="0"/>
        <pt x="610" y="444" on="0"/>
        <pt x="534" y="444" on="1"/>
        <pt x="447" y="444" on="0"/>
        <pt x="306" y="411" on="0"/>
        <pt x="204" y="348" on="0"/>
        <pt x="144" y="257" on="0"/>
        <pt x="138" y="199" on="1"/>
        <pt x="133" y="142" on="0"/>
        <pt x="174" y="75" on="0"/>
        <pt x="209" y="61" on="1"/>
        <pt x="204" y="85" on="0"/>
        <pt x="203" y="137" on="0"/>
        <pt x="208" y="163" on="1"/>
        <pt x="214" y="190" on="0"/>
        <pt x="239" y="238" on="0"/>
        <pt x="275" y="274" on="0"/>
        <pt x="321" y="295" on="0"/>
        <pt x="348" y="295" on="1"/>
        <pt x="405" y="295" on="0"/>
        <pt x="463" y="218" on="0"/>
        <pt x="457" y="158" on="1"/>
        <pt x="454" y="122" on="0"/>
        <pt x="421" y="61" on="0"/>
        <pt x="368" y="16" on="0"/>
        <pt x="300" y="-9" on="0"/>
        <pt x="262" y="-9" on="1"/>
        <pt x="219" y="-9" on="0"/>
        <pt x="145" y="24" on="0"/>
        <pt x="91" y="83" on="0"/>
        <pt x="63" y="165" on="0"/>
        <pt x="68" y="213" on="1"/>
        <pt x="74" y="280" on="0"/>
        <pt x="141" y="391" on="0"/>
        <pt x="261" y="470" on="0"/>
        <pt x="431" y="513" on="0"/>
        <pt x="541" y="513" on="1"/>
        <pt x="641" y="513" on="0"/>
        <pt x="797" y="459" on="0"/>
        <pt x="902" y="369" on="0"/>
        <pt x="951" y="251" on="0"/>
        <pt x="945" y="188" on="1"/>
        <pt x="941" y="143" on="0"/>
        <pt x="911" y="70" on="0"/>
        <pt x="865" y="19" on="0"/>
        <pt x="805" y="-9" on="0"/>
        <pt x="772" y="-9" on="1"/>
        <pt x="714" y="-9" on="0"/>
        <pt x="643" y="64" on="0"/>
        <pt x="648" y="124" on="1"/>
        <pt x="651" y="164" on="0"/>
        <pt x="676" y="211" on="1"/>
        <pt x="629" y="179" on="0"/>
        <pt x="572" y="83" on="0"/>
        <pt x="567" y="32" on="1"/>
        <pt x="559" y="-45" on="0"/>
        <pt x="644" y="-120" on="0"/>
        <pt x="725" y="-120" on="1"/>
        <pt x="793" y="-120" on="1"/>
        <pt x="787" y="-189" on="1"/>
      </contour>
      <contour>
        <pt x="1332" y="513" on="1"/>
        <pt x="1375" y="513" on="0"/>
        <pt x="1442" y="486" on="0"/>
        <pt x="1492" y="439" on="0"/>
        <pt x="1524" y="374" on="0"/>
        <pt x="1532" y="337" on="1"/>
        <pt x="1549" y="504" on="1"/>
        <pt x="1973" y="504" on="1"/>
        <pt x="1966" y="435" on="1"/>
        <pt x="1862" y="435" on="1"/>
        <pt x="1821" y="0" on="1"/>
        <pt x="1753" y="0" on="1"/>
        <pt x="1793" y="435" on="1"/>
        <pt x="1605" y="435" on="1"/>
        <pt x="1565" y="0" on="1"/>
        <pt x="1501" y="0" on="1"/>
        <pt x="1517" y="169" on="1"/>
        <pt x="1523" y="232" on="0"/>
        <pt x="1502" y="334" on="0"/>
        <pt x="1453" y="405" on="0"/>
        <pt x="1379" y="444" on="0"/>
        <pt x="1333" y="444" on="1"/>
        <pt x="1288" y="444" on="0"/>
        <pt x="1207" y="406" on="0"/>
        <pt x="1143" y="342" on="0"/>
        <pt x="1102" y="255" on="0"/>
        <pt x="1098" y="207" on="1"/>
        <pt x="1092" y="145" on="0"/>
        <pt x="1133" y="75" on="0"/>
        <pt x="1168" y="61" on="1"/>
        <pt x="1163" y="85" on="0"/>
        <pt x="1162" y="137" on="0"/>
        <pt x="1167" y="163" on="1"/>
        <pt x="1173" y="190" on="0"/>
        <pt x="1198" y="238" on="0"/>
        <pt x="1234" y="274" on="0"/>
        <pt x="1280" y="295" on="0"/>
        <pt x="1307" y="295" on="1"/>
        <pt x="1364" y="295" on="0"/>
        <pt x="1422" y="218" on="0"/>
        <pt x="1416" y="158" on="1"/>
        <pt x="1413" y="123" on="0"/>
        <pt x="1381" y="62" on="0"/>
        <pt x="1329" y="17" on="0"/>
        <pt x="1261" y="-9" on="0"/>
        <pt x="1221" y="-9" on="1"/>
        <pt x="1180" y="-9" on="0"/>
        <pt x="1105" y="24" on="0"/>
        <pt x="1051" y="84" on="0"/>
        <pt x="1022" y="168" on="0"/>
        <pt x="1027" y="220" on="1"/>
        <pt x="1033" y="285" on="0"/>
        <pt x="1088" y="393" on="0"/>
        <pt x="1172" y="470" on="0"/>
        <pt x="1276" y="513" on="0"/>
      </contour>
      <contour>
        <pt x="1293" y="229" on="1"/>
        <pt x="1258" y="229" on="0"/>
        <pt x="1212" y="169" on="0"/>
        <pt x="1205" y="130" on="1"/>
        <pt x="1203" y="110" on="0"/>
        <pt x="1203" y="71" on="0"/>
        <pt x="1207" y="54" on="1"/>
        <pt x="1217" y="51" on="0"/>
        <pt x="1230" y="51" on="1"/>
        <pt x="1246" y="51" on="0"/>
        <pt x="1283" y="64" on="0"/>
        <pt x="1317" y="91" on="0"/>
        <pt x="1342" y="131" on="0"/>
        <pt x="1345" y="158" on="1"/>
        <pt x="1347" y="188" on="0"/>
        <pt x="1322" y="229" on="0"/>
      </contour>
      <contour>
        <pt x="334" y="229" on="1"/>
        <pt x="299" y="229" on="0"/>
        <pt x="253" y="169" on="0"/>
        <pt x="246" y="130" on="1"/>
        <pt x="244" y="110" on="0"/>
        <pt x="244" y="71" on="0"/>
        <pt x="248" y="54" on="1"/>
        <pt x="258" y="51" on="0"/>
        <pt x="271" y="51" on="1"/>
        <pt x="287" y="51" on="0"/>
        <pt x="324" y="64" on="0"/>
        <pt x="358" y="91" on="0"/>
        <pt x="383" y="131" on="0"/>
        <pt x="386" y="158" on="1"/>
        <pt x="388" y="188" on="0"/>
        <pt x="363" y="229" on="0"/>
      </contour>
      <contour>
        <pt x="342" y="-151" on="1"/>
        <pt x="316" y="-151" on="0"/>
        <pt x="279" y="-187" on="0"/>
        <pt x="276" y="-215" on="1"/>
        <pt x="274" y="-248" on="0"/>
        <pt x="319" y="-288" on="0"/>
        <pt x="353" y="-288" on="1"/>
        <pt x="368" y="-288" on="0"/>
        <pt x="392" y="-284" on="0"/>
        <pt x="404" y="-280" on="1"/>
        <pt x="408" y="-225" on="0"/>
        <pt x="378" y="-151" on="0"/>
      </contour>
    </TTGlyph>
    <TTGlyph name="aumatra.tam" xMin="72" yMin="-9" xMax="2170" yMax="785">
      <contour>
        <pt x="848" y="421" on="1"/>
        <pt x="868" y="438" on="0"/>
        <pt x="915" y="458" on="0"/>
        <pt x="941" y="462" on="1"/>
        <pt x="941" y="444" on="0"/>
        <pt x="942" y="407" on="0"/>
        <pt x="942" y="389" on="1"/>
        <pt x="926" y="387" on="0"/>
        <pt x="895" y="375" on="0"/>
        <pt x="883" y="364" on="1"/>
      </contour>
      <contour>
        <pt x="768" y="288" on="1"/>
        <pt x="773" y="316" on="0"/>
        <pt x="797" y="365" on="0"/>
        <pt x="813" y="385" on="1"/>
        <pt x="859" y="341" on="1"/>
        <pt x="850" y="327" on="0"/>
        <pt x="836" y="298" on="0"/>
        <pt x="832" y="281" on="1"/>
      </contour>
      <contour>
        <pt x="987" y="462" on="1"/>
        <pt x="1011" y="458" on="0"/>
        <pt x="1054" y="437" on="0"/>
        <pt x="1071" y="421" on="1"/>
        <pt x="1025" y="362" on="1"/>
        <pt x="1014" y="373" on="0"/>
        <pt x="987" y="386" on="0"/>
        <pt x="972" y="388" on="1"/>
      </contour>
      <contour>
        <pt x="1099" y="385" on="1"/>
        <pt x="1126" y="341" on="0"/>
        <pt x="1126" y="287" on="1"/>
        <pt x="1059" y="278" on="1"/>
        <pt x="1059" y="297" on="0"/>
        <pt x="1052" y="325" on="0"/>
        <pt x="1044" y="338" on="1"/>
      </contour>
      <contour>
        <pt x="1038" y="102" on="1"/>
        <pt x="1019" y="87" on="0"/>
        <pt x="972" y="65" on="0"/>
        <pt x="948" y="63" on="1"/>
        <pt x="945" y="134" on="1"/>
        <pt x="978" y="140" on="0"/>
        <pt x="1004" y="159" on="1"/>
      </contour>
      <contour>
        <pt x="1121" y="236" on="1"/>
        <pt x="1110" y="179" on="0"/>
        <pt x="1075" y="139" on="1"/>
        <pt x="1027" y="183" on="1"/>
        <pt x="1048" y="210" on="0"/>
        <pt x="1056" y="245" on="1"/>
      </contour>
      <contour>
        <pt x="788" y="140" on="1"/>
        <pt x="764" y="181" on="0"/>
        <pt x="762" y="238" on="1"/>
        <pt x="828" y="247" on="1"/>
        <pt x="829" y="213" on="0"/>
        <pt x="844" y="185" on="1"/>
      </contour>
      <contour>
        <pt x="901" y="63" on="1"/>
        <pt x="876" y="66" on="0"/>
        <pt x="834" y="88" on="0"/>
        <pt x="817" y="104" on="1"/>
        <pt x="864" y="160" on="1"/>
        <pt x="886" y="140" on="0"/>
        <pt x="915" y="135" on="1"/>
      </contour>
      <contour>
        <pt x="505" y="785" on="1"/>
        <pt x="599" y="785" on="0"/>
        <pt x="689" y="660" on="0"/>
        <pt x="678" y="544" on="1"/>
        <pt x="627" y="0" on="1"/>
        <pt x="559" y="0" on="1"/>
        <pt x="611" y="544" on="1"/>
        <pt x="615" y="590" on="0"/>
        <pt x="603" y="655" on="0"/>
        <pt x="573" y="695" on="0"/>
        <pt x="527" y="714" on="0"/>
        <pt x="498" y="714" on="1"/>
        <pt x="446" y="714" on="0"/>
        <pt x="331" y="649" on="0"/>
        <pt x="231" y="536" on="0"/>
        <pt x="159" y="383" on="0"/>
        <pt x="151" y="295" on="1"/>
        <pt x="146" y="244" on="0"/>
        <pt x="155" y="166" on="0"/>
        <pt x="178" y="109" on="0"/>
        <pt x="210" y="72" on="0"/>
        <pt x="229" y="62" on="1"/>
        <pt x="224" y="85" on="0"/>
        <pt x="223" y="137" on="0"/>
        <pt x="230" y="163" on="1"/>
        <pt x="236" y="190" on="0"/>
        <pt x="260" y="238" on="0"/>
        <pt x="295" y="274" on="0"/>
        <pt x="342" y="295" on="0"/>
        <pt x="370" y="295" on="1"/>
        <pt x="427" y="295" on="0"/>
        <pt x="484" y="218" on="0"/>
        <pt x="478" y="158" on="1"/>
        <pt x="475" y="122" on="0"/>
        <pt x="443" y="61" on="0"/>
        <pt x="392" y="16" on="0"/>
        <pt x="323" y="-9" on="0"/>
        <pt x="283" y="-9" on="1"/>
        <pt x="240" y="-9" on="0"/>
        <pt x="160" y="32" on="0"/>
        <pt x="102" y="112" on="0"/>
        <pt x="72" y="232" on="0"/>
        <pt x="80" y="311" on="1"/>
        <pt x="89" y="408" on="0"/>
        <pt x="167" y="581" on="0"/>
        <pt x="283" y="710" on="0"/>
        <pt x="428" y="785" on="0"/>
      </contour>
      <contour>
        <pt x="355" y="229" on="1"/>
        <pt x="320" y="229" on="0"/>
        <pt x="274" y="169" on="0"/>
        <pt x="267" y="130" on="1"/>
        <pt x="261" y="89" on="0"/>
        <pt x="269" y="54" on="1"/>
        <pt x="281" y="51" on="0"/>
        <pt x="291" y="51" on="1"/>
        <pt x="307" y="51" on="0"/>
        <pt x="345" y="64" on="0"/>
        <pt x="379" y="91" on="0"/>
        <pt x="403" y="131" on="0"/>
        <pt x="406" y="158" on="1"/>
        <pt x="409" y="188" on="0"/>
        <pt x="384" y="229" on="0"/>
      </contour>
      <contour>
        <pt x="1529" y="513" on="1"/>
        <pt x="1572" y="513" on="0"/>
        <pt x="1639" y="486" on="0"/>
        <pt x="1689" y="439" on="0"/>
        <pt x="1721" y="374" on="0"/>
        <pt x="1729" y="337" on="1"/>
        <pt x="1746" y="504" on="1"/>
        <pt x="2170" y="504" on="1"/>
        <pt x="2163" y="435" on="1"/>
        <pt x="2059" y="435" on="1"/>
        <pt x="2018" y="0" on="1"/>
        <pt x="1950" y="0" on="1"/>
        <pt x="1990" y="435" on="1"/>
        <pt x="1802" y="435" on="1"/>
        <pt x="1762" y="0" on="1"/>
        <pt x="1698" y="0" on="1"/>
        <pt x="1714" y="169" on="1"/>
        <pt x="1720" y="232" on="0"/>
        <pt x="1699" y="334" on="0"/>
        <pt x="1650" y="405" on="0"/>
        <pt x="1576" y="444" on="0"/>
        <pt x="1530" y="444" on="1"/>
        <pt x="1485" y="444" on="0"/>
        <pt x="1404" y="406" on="0"/>
        <pt x="1340" y="342" on="0"/>
        <pt x="1299" y="255" on="0"/>
        <pt x="1295" y="207" on="1"/>
        <pt x="1289" y="145" on="0"/>
        <pt x="1330" y="75" on="0"/>
        <pt x="1365" y="61" on="1"/>
        <pt x="1360" y="85" on="0"/>
        <pt x="1359" y="137" on="0"/>
        <pt x="1364" y="163" on="1"/>
        <pt x="1370" y="190" on="0"/>
        <pt x="1395" y="238" on="0"/>
        <pt x="1431" y="274" on="0"/>
        <pt x="1477" y="295" on="0"/>
        <pt x="1504" y="295" on="1"/>
        <pt x="1561" y="295" on="0"/>
        <pt x="1619" y="218" on="0"/>
        <pt x="1613" y="158" on="1"/>
        <pt x="1610" y="123" on="0"/>
        <pt x="1578" y="62" on="0"/>
        <pt x="1526" y="17" on="0"/>
        <pt x="1458" y="-9" on="0"/>
        <pt x="1418" y="-9" on="1"/>
        <pt x="1377" y="-9" on="0"/>
        <pt x="1302" y="24" on="0"/>
        <pt x="1248" y="84" on="0"/>
        <pt x="1219" y="168" on="0"/>
        <pt x="1224" y="220" on="1"/>
        <pt x="1230" y="285" on="0"/>
        <pt x="1285" y="393" on="0"/>
        <pt x="1369" y="470" on="0"/>
        <pt x="1473" y="513" on="0"/>
      </contour>
      <contour>
        <pt x="1490" y="229" on="1"/>
        <pt x="1455" y="229" on="0"/>
        <pt x="1409" y="169" on="0"/>
        <pt x="1402" y="130" on="1"/>
        <pt x="1400" y="110" on="0"/>
        <pt x="1400" y="71" on="0"/>
        <pt x="1404" y="54" on="1"/>
        <pt x="1414" y="51" on="0"/>
        <pt x="1427" y="51" on="1"/>
        <pt x="1443" y="51" on="0"/>
        <pt x="1480" y="64" on="0"/>
        <pt x="1514" y="91" on="0"/>
        <pt x="1539" y="131" on="0"/>
        <pt x="1542" y="158" on="1"/>
        <pt x="1544" y="188" on="0"/>
        <pt x="1519" y="229" on="0"/>
      </contour>
    </TTGlyph>
    <TTGlyph name="aumatrahalf.tam" xMin="63" yMin="-9" xMax="1014" yMax="513">
      <contour>
        <pt x="373" y="513" on="1"/>
        <pt x="416" y="513" on="0"/>
        <pt x="483" y="486" on="0"/>
        <pt x="533" y="439" on="0"/>
        <pt x="565" y="374" on="0"/>
        <pt x="573" y="337" on="1"/>
        <pt x="590" y="504" on="1"/>
        <pt x="1014" y="504" on="1"/>
        <pt x="1007" y="435" on="1"/>
        <pt x="903" y="435" on="1"/>
        <pt x="862" y="0" on="1"/>
        <pt x="794" y="0" on="1"/>
        <pt x="834" y="435" on="1"/>
        <pt x="646" y="435" on="1"/>
        <pt x="606" y="0" on="1"/>
        <pt x="542" y="0" on="1"/>
        <pt x="558" y="169" on="1"/>
        <pt x="564" y="232" on="0"/>
        <pt x="543" y="334" on="0"/>
        <pt x="494" y="405" on="0"/>
        <pt x="420" y="444" on="0"/>
        <pt x="374" y="444" on="1"/>
        <pt x="329" y="444" on="0"/>
        <pt x="248" y="406" on="0"/>
        <pt x="184" y="342" on="0"/>
        <pt x="143" y="255" on="0"/>
        <pt x="139" y="207" on="1"/>
        <pt x="133" y="145" on="0"/>
        <pt x="174" y="75" on="0"/>
        <pt x="209" y="61" on="1"/>
        <pt x="204" y="85" on="0"/>
        <pt x="203" y="137" on="0"/>
        <pt x="208" y="163" on="1"/>
        <pt x="214" y="190" on="0"/>
        <pt x="239" y="238" on="0"/>
        <pt x="275" y="274" on="0"/>
        <pt x="321" y="295" on="0"/>
        <pt x="348" y="295" on="1"/>
        <pt x="405" y="295" on="0"/>
        <pt x="463" y="218" on="0"/>
        <pt x="457" y="158" on="1"/>
        <pt x="454" y="123" on="0"/>
        <pt x="422" y="62" on="0"/>
        <pt x="370" y="17" on="0"/>
        <pt x="302" y="-9" on="0"/>
        <pt x="262" y="-9" on="1"/>
        <pt x="221" y="-9" on="0"/>
        <pt x="146" y="24" on="0"/>
        <pt x="92" y="84" on="0"/>
        <pt x="63" y="168" on="0"/>
        <pt x="68" y="220" on="1"/>
        <pt x="74" y="285" on="0"/>
        <pt x="129" y="393" on="0"/>
        <pt x="213" y="470" on="0"/>
        <pt x="317" y="513" on="0"/>
      </contour>
      <contour>
        <pt x="334" y="229" on="1"/>
        <pt x="299" y="229" on="0"/>
        <pt x="253" y="169" on="0"/>
        <pt x="246" y="130" on="1"/>
        <pt x="244" y="110" on="0"/>
        <pt x="244" y="71" on="0"/>
        <pt x="248" y="54" on="1"/>
        <pt x="258" y="51" on="0"/>
        <pt x="271" y="51" on="1"/>
        <pt x="287" y="51" on="0"/>
        <pt x="324" y="64" on="0"/>
        <pt x="358" y="91" on="0"/>
        <pt x="383" y="131" on="0"/>
        <pt x="386" y="158" on="1"/>
        <pt x="388" y="188" on="0"/>
        <pt x="363" y="229" on="0"/>
      </contour>
    </TTGlyph>
    <TTGlyph name="backslash" xMin="66" yMin="-74" xMax="442" yMax="733">
      <contour>
        <pt x="66" y="733" on="1"/>
        <pt x="138" y="733" on="1"/>
        <pt x="442" y="-74" on="1"/>
        <pt x="368" y="-74" on="1"/>
      </contour>
    </TTGlyph>
    <TTGlyph name="bar" xMin="78" yMin="-122" xMax="230" yMax="753">
      <contour>
        <pt x="160" y="753" on="1"/>
        <pt x="230" y="753" on="1"/>
        <pt x="147" y="-122" on="1"/>
        <pt x="78" y="-122" on="1"/>
      </contour>
    </TTGlyph>
    <TTGlyph name="braceleft" xMin="108" yMin="-140" xMax="393" yMax="754">
      <contour>
        <pt x="309" y="-140" on="1"/>
        <pt x="255" y="-140" on="0"/>
        <pt x="185" y="-105" on="0"/>
        <pt x="147" y="-42" on="0"/>
        <pt x="135" y="45" on="0"/>
        <pt x="140" y="96" on="1"/>
        <pt x="148" y="188" on="1"/>
        <pt x="153" y="231" on="0"/>
        <pt x="141" y="266" on="0"/>
        <pt x="124" y="266" on="1"/>
        <pt x="108" y="266" on="1"/>
        <pt x="116" y="347" on="1"/>
        <pt x="132" y="347" on="1"/>
        <pt x="149" y="347" on="0"/>
        <pt x="166" y="382" on="0"/>
        <pt x="170" y="425" on="1"/>
        <pt x="179" y="517" on="1"/>
        <pt x="184" y="568" on="0"/>
        <pt x="212" y="655" on="0"/>
        <pt x="263" y="718" on="0"/>
        <pt x="339" y="754" on="0"/>
        <pt x="393" y="754" on="1"/>
        <pt x="387" y="687" on="1"/>
        <pt x="321" y="687" on="0"/>
        <pt x="257" y="604" on="0"/>
        <pt x="250" y="523" on="1"/>
        <pt x="240" y="423" on="1"/>
        <pt x="235" y="376" on="0"/>
        <pt x="202" y="321" on="0"/>
        <pt x="179" y="309" on="1"/>
        <pt x="179" y="304" on="1"/>
        <pt x="200" y="293" on="0"/>
        <pt x="222" y="237" on="0"/>
        <pt x="218" y="191" on="1"/>
        <pt x="208" y="89" on="1"/>
        <pt x="201" y="8" on="0"/>
        <pt x="249" y="-74" on="0"/>
        <pt x="315" y="-74" on="1"/>
      </contour>
    </TTGlyph>
    <TTGlyph name="braceright" xMin="-31" yMin="-141" xMax="254" yMax="753">
      <contour>
        <pt x="53" y="753" on="1"/>
        <pt x="107" y="753" on="0"/>
        <pt x="177" y="718" on="0"/>
        <pt x="215" y="655" on="0"/>
        <pt x="226" y="568" on="0"/>
        <pt x="222" y="517" on="1"/>
        <pt x="214" y="425" on="1"/>
        <pt x="209" y="382" on="0"/>
        <pt x="221" y="347" on="0"/>
        <pt x="238" y="347" on="1"/>
        <pt x="254" y="347" on="1"/>
        <pt x="246" y="266" on="1"/>
        <pt x="230" y="266" on="1"/>
        <pt x="213" y="266" on="0"/>
        <pt x="196" y="231" on="0"/>
        <pt x="192" y="188" on="1"/>
        <pt x="183" y="96" on="1"/>
        <pt x="178" y="45" on="0"/>
        <pt x="150" y="-42" on="0"/>
        <pt x="99" y="-105" on="0"/>
        <pt x="23" y="-141" on="0"/>
        <pt x="-31" y="-141" on="1"/>
        <pt x="-25" y="-74" on="1"/>
        <pt x="41" y="-74" on="0"/>
        <pt x="105" y="9" on="0"/>
        <pt x="112" y="90" on="1"/>
        <pt x="122" y="190" on="1"/>
        <pt x="127" y="237" on="0"/>
        <pt x="160" y="292" on="0"/>
        <pt x="183" y="304" on="1"/>
        <pt x="183" y="309" on="1"/>
        <pt x="162" y="320" on="0"/>
        <pt x="140" y="376" on="0"/>
        <pt x="144" y="422" on="1"/>
        <pt x="154" y="524" on="1"/>
        <pt x="161" y="605" on="0"/>
        <pt x="113" y="687" on="0"/>
        <pt x="47" y="687" on="1"/>
      </contour>
    </TTGlyph>
    <TTGlyph name="bracketleft" xMin="87" yMin="-101" xMax="349" yMax="738">
      <contour>
        <pt x="172" y="738" on="1"/>
        <pt x="349" y="738" on="1"/>
        <pt x="342" y="670" on="1"/>
        <pt x="234" y="670" on="1"/>
        <pt x="162" y="-33" on="1"/>
        <pt x="270" y="-33" on="1"/>
        <pt x="264" y="-101" on="1"/>
        <pt x="87" y="-101" on="1"/>
      </contour>
    </TTGlyph>
    <TTGlyph name="bracketright" xMin="-6" yMin="-101" xMax="260" yMax="738">
      <contour>
        <pt x="171" y="-101" on="1"/>
        <pt x="-6" y="-101" on="1"/>
        <pt x="1" y="-33" on="1"/>
        <pt x="110" y="-33" on="1"/>
        <pt x="184" y="670" on="1"/>
        <pt x="75" y="670" on="1"/>
        <pt x="82" y="738" on="1"/>
        <pt x="260" y="738" on="1"/>
      </contour>
    </TTGlyph>
    <TTGlyph name="ca.tam" xMin="52" yMin="-9" xMax="616" yMax="504">
      <contour>
        <pt x="241" y="280" on="1"/>
        <pt x="396" y="280" on="1"/>
        <pt x="410" y="435" on="1"/>
        <pt x="256" y="435" on="1"/>
      </contour>
      <contour>
        <pt x="196" y="227" on="1"/>
        <pt x="163" y="227" on="0"/>
        <pt x="130" y="199" on="0"/>
        <pt x="127" y="171" on="1"/>
        <pt x="125" y="146" on="0"/>
        <pt x="145" y="104" on="0"/>
        <pt x="185" y="73" on="0"/>
        <pt x="242" y="55" on="0"/>
        <pt x="275" y="55" on="1"/>
        <pt x="328" y="55" on="0"/>
        <pt x="381" y="114" on="0"/>
        <pt x="386" y="174" on="1"/>
        <pt x="392" y="227" on="1"/>
      </contour>
      <contour>
        <pt x="616" y="504" on="1"/>
        <pt x="609" y="435" on="1"/>
        <pt x="478" y="435" on="1"/>
        <pt x="464" y="280" on="1"/>
        <pt x="573" y="280" on="1"/>
        <pt x="569" y="227" on="1"/>
        <pt x="460" y="227" on="1"/>
        <pt x="454" y="173" on="1"/>
        <pt x="436" y="-9" on="0"/>
        <pt x="275" y="-9" on="1"/>
        <pt x="223" y="-9" on="0"/>
        <pt x="139" y="23" on="0"/>
        <pt x="81" y="75" on="0"/>
        <pt x="52" y="144" on="0"/>
        <pt x="56" y="180" on="1"/>
        <pt x="61" y="233" on="0"/>
        <pt x="127" y="280" on="0"/>
        <pt x="177" y="280" on="1"/>
        <pt x="198" y="504" on="1"/>
      </contour>
    </TTGlyph>
    <TTGlyph name="cansv.tam" xMin="52" yMin="-9" xMax="616" yMax="810">
      <contour>
        <pt x="241" y="280" on="1"/>
        <pt x="396" y="280" on="1"/>
        <pt x="410" y="435" on="1"/>
        <pt x="256" y="435" on="1"/>
      </contour>
      <contour>
        <pt x="196" y="227" on="1"/>
        <pt x="163" y="227" on="0"/>
        <pt x="130" y="199" on="0"/>
        <pt x="127" y="171" on="1"/>
        <pt x="125" y="146" on="0"/>
        <pt x="145" y="104" on="0"/>
        <pt x="185" y="73" on="0"/>
        <pt x="242" y="55" on="0"/>
        <pt x="275" y="55" on="1"/>
        <pt x="328" y="55" on="0"/>
        <pt x="381" y="114" on="0"/>
        <pt x="386" y="174" on="1"/>
        <pt x="392" y="227" on="1"/>
      </contour>
      <contour>
        <pt x="616" y="504" on="1"/>
        <pt x="609" y="435" on="1"/>
        <pt x="478" y="435" on="1"/>
        <pt x="464" y="280" on="1"/>
        <pt x="573" y="280" on="1"/>
        <pt x="569" y="227" on="1"/>
        <pt x="460" y="227" on="1"/>
        <pt x="454" y="173" on="1"/>
        <pt x="436" y="-9" on="0"/>
        <pt x="275" y="-9" on="1"/>
        <pt x="223" y="-9" on="0"/>
        <pt x="139" y="23" on="0"/>
        <pt x="81" y="75" on="0"/>
        <pt x="52" y="144" on="0"/>
        <pt x="56" y="180" on="1"/>
        <pt x="61" y="233" on="0"/>
        <pt x="127" y="280" on="0"/>
        <pt x="177" y="280" on="1"/>
        <pt x="198" y="504" on="1"/>
      </contour>
      <contour>
        <pt x="430" y="810" on="1"/>
        <pt x="476" y="810" on="0"/>
        <pt x="534" y="750" on="0"/>
        <pt x="530" y="697" on="1"/>
        <pt x="528" y="670" on="0"/>
        <pt x="506" y="628" on="0"/>
        <pt x="473" y="598" on="0"/>
        <pt x="431" y="583" on="0"/>
        <pt x="409" y="583" on="1"/>
        <pt x="386" y="583" on="0"/>
        <pt x="349" y="598" on="0"/>
        <pt x="322" y="628" on="0"/>
        <pt x="309" y="670" on="0"/>
        <pt x="311" y="697" on="1"/>
        <pt x="316" y="751" on="0"/>
        <pt x="385" y="810" on="0"/>
      </contour>
      <contour>
        <pt x="425" y="755" on="1"/>
        <pt x="403" y="755" on="0"/>
        <pt x="377" y="723" on="0"/>
        <pt x="374" y="697" on="1"/>
        <pt x="372" y="670" on="0"/>
        <pt x="391" y="639" on="0"/>
        <pt x="414" y="639" on="1"/>
        <pt x="437" y="639" on="0"/>
        <pt x="464" y="670" on="0"/>
        <pt x="467" y="697" on="1"/>
        <pt x="469" y="723" on="0"/>
        <pt x="448" y="755" on="0"/>
      </contour>
    </TTGlyph>
    <TTGlyph name="ci.tam" xMin="52" yMin="-9" xMax="778" yMax="785">
      <contour>
        <pt x="434" y="504" on="1"/>
        <pt x="411" y="522" on="0"/>
        <pt x="388" y="579" on="0"/>
        <pt x="391" y="614" on="1"/>
        <pt x="395" y="650" on="0"/>
        <pt x="426" y="713" on="0"/>
        <pt x="478" y="759" on="0"/>
        <pt x="549" y="785" on="0"/>
        <pt x="591" y="785" on="1"/>
        <pt x="687" y="785" on="0"/>
        <pt x="778" y="654" on="0"/>
        <pt x="774" y="540" on="1"/>
        <pt x="773" y="523" on="0"/>
        <pt x="771" y="486" on="0"/>
        <pt x="769" y="468" on="1"/>
        <pt x="724" y="0" on="1"/>
        <pt x="657" y="0" on="1"/>
        <pt x="705" y="515" on="1"/>
        <pt x="713" y="608" on="0"/>
        <pt x="660" y="714" on="0"/>
        <pt x="590" y="714" on="1"/>
        <pt x="562" y="714" on="0"/>
        <pt x="517" y="693" on="0"/>
        <pt x="484" y="658" on="0"/>
        <pt x="464" y="611" on="0"/>
        <pt x="462" y="586" on="1"/>
        <pt x="459" y="562" on="0"/>
        <pt x="467" y="522" on="0"/>
        <pt x="475" y="504" on="1"/>
        <pt x="617" y="504" on="1"/>
        <pt x="609" y="435" on="1"/>
        <pt x="478" y="435" on="1"/>
        <pt x="464" y="280" on="1"/>
        <pt x="573" y="280" on="1"/>
        <pt x="569" y="227" on="1"/>
        <pt x="460" y="227" on="1"/>
        <pt x="455" y="173" on="1"/>
        <pt x="437" y="-9" on="0"/>
        <pt x="275" y="-9" on="1"/>
        <pt x="223" y="-9" on="0"/>
        <pt x="139" y="23" on="0"/>
        <pt x="81" y="75" on="0"/>
        <pt x="52" y="144" on="0"/>
        <pt x="56" y="180" on="1"/>
        <pt x="61" y="233" on="0"/>
        <pt x="127" y="280" on="0"/>
        <pt x="177" y="280" on="1"/>
        <pt x="199" y="504" on="1"/>
      </contour>
      <contour>
        <pt x="196" y="227" on="1"/>
        <pt x="163" y="227" on="0"/>
        <pt x="130" y="199" on="0"/>
        <pt x="127" y="171" on="1"/>
        <pt x="125" y="146" on="0"/>
        <pt x="146" y="104" on="0"/>
        <pt x="186" y="73" on="0"/>
        <pt x="242" y="55" on="0"/>
        <pt x="275" y="55" on="1"/>
        <pt x="328" y="55" on="0"/>
        <pt x="381" y="114" on="0"/>
        <pt x="386" y="174" on="1"/>
        <pt x="392" y="227" on="1"/>
      </contour>
      <contour>
        <pt x="242" y="280" on="1"/>
        <pt x="396" y="280" on="1"/>
        <pt x="411" y="435" on="1"/>
        <pt x="256" y="435" on="1"/>
      </contour>
    </TTGlyph>
    <TTGlyph name="cii.tam" xMin="52" yMin="-9" xMax="704" yMax="819">
      <contour>
        <pt x="548" y="819" on="1"/>
        <pt x="585" y="819" on="0"/>
        <pt x="644" y="795" on="0"/>
        <pt x="684" y="756" on="0"/>
        <pt x="704" y="705" on="0"/>
        <pt x="701" y="677" on="1"/>
        <pt x="696" y="626" on="0"/>
        <pt x="628" y="566" on="0"/>
        <pt x="578" y="566" on="1"/>
        <pt x="528" y="566" on="0"/>
        <pt x="481" y="625" on="0"/>
        <pt x="486" y="665" on="1"/>
        <pt x="492" y="717" on="0"/>
        <pt x="533" y="758" on="1"/>
        <pt x="510" y="755" on="0"/>
        <pt x="469" y="734" on="0"/>
        <pt x="437" y="701" on="0"/>
        <pt x="416" y="657" on="0"/>
        <pt x="414" y="630" on="1"/>
        <pt x="405" y="551" on="0"/>
        <pt x="479" y="504" on="1"/>
        <pt x="616" y="504" on="1"/>
        <pt x="609" y="435" on="1"/>
        <pt x="478" y="435" on="1"/>
        <pt x="464" y="280" on="1"/>
        <pt x="573" y="280" on="1"/>
        <pt x="569" y="227" on="1"/>
        <pt x="460" y="227" on="1"/>
        <pt x="454" y="173" on="1"/>
        <pt x="436" y="-9" on="0"/>
        <pt x="275" y="-9" on="1"/>
        <pt x="223" y="-9" on="0"/>
        <pt x="139" y="23" on="0"/>
        <pt x="81" y="75" on="0"/>
        <pt x="52" y="144" on="0"/>
        <pt x="56" y="180" on="1"/>
        <pt x="61" y="233" on="0"/>
        <pt x="127" y="280" on="0"/>
        <pt x="177" y="280" on="1"/>
        <pt x="198" y="504" on="1"/>
        <pt x="430" y="504" on="1"/>
        <pt x="388" y="523" on="0"/>
        <pt x="345" y="599" on="0"/>
        <pt x="350" y="648" on="1"/>
        <pt x="353" y="684" on="0"/>
        <pt x="387" y="746" on="0"/>
        <pt x="440" y="793" on="0"/>
        <pt x="509" y="819" on="0"/>
      </contour>
      <contour>
        <pt x="196" y="227" on="1"/>
        <pt x="163" y="227" on="0"/>
        <pt x="130" y="199" on="0"/>
        <pt x="127" y="171" on="1"/>
        <pt x="125" y="146" on="0"/>
        <pt x="145" y="104" on="0"/>
        <pt x="185" y="73" on="0"/>
        <pt x="242" y="55" on="0"/>
        <pt x="275" y="55" on="1"/>
        <pt x="328" y="55" on="0"/>
        <pt x="381" y="114" on="0"/>
        <pt x="386" y="174" on="1"/>
        <pt x="392" y="227" on="1"/>
      </contour>
      <contour>
        <pt x="241" y="280" on="1"/>
        <pt x="396" y="280" on="1"/>
        <pt x="410" y="435" on="1"/>
        <pt x="256" y="435" on="1"/>
      </contour>
      <contour>
        <pt x="567" y="759" on="1"/>
        <pt x="553" y="740" on="0"/>
        <pt x="534" y="700" on="0"/>
        <pt x="532" y="680" on="1"/>
        <pt x="530" y="654" on="0"/>
        <pt x="553" y="621" on="0"/>
        <pt x="577" y="621" on="1"/>
        <pt x="600" y="621" on="0"/>
        <pt x="633" y="656" on="0"/>
        <pt x="635" y="680" on="1"/>
        <pt x="638" y="711" on="0"/>
        <pt x="599" y="753" on="0"/>
      </contour>
    </TTGlyph>
    <TTGlyph name="colon" xMin="49" yMin="-9" xMax="193" yMax="482">
      <contour>
        <pt x="142" y="482" on="1"/>
        <pt x="165" y="482" on="0"/>
        <pt x="193" y="449" on="0"/>
        <pt x="190" y="424" on="1"/>
        <pt x="188" y="400" on="0"/>
        <pt x="154" y="367" on="0"/>
        <pt x="131" y="367" on="1"/>
        <pt x="110" y="367" on="0"/>
        <pt x="85" y="400" on="0"/>
        <pt x="87" y="424" on="1"/>
        <pt x="89" y="449" on="0"/>
        <pt x="120" y="482" on="0"/>
      </contour>
      <contour>
        <pt x="107" y="106" on="1"/>
        <pt x="130" y="106" on="0"/>
        <pt x="157" y="73" on="0"/>
        <pt x="155" y="47" on="1"/>
        <pt x="153" y="23" on="0"/>
        <pt x="119" y="-9" on="0"/>
        <pt x="96" y="-9" on="1"/>
        <pt x="74" y="-9" on="0"/>
        <pt x="49" y="23" on="0"/>
        <pt x="51" y="47" on="1"/>
        <pt x="53" y="73" on="0"/>
        <pt x="85" y="106" on="0"/>
      </contour>
    </TTGlyph>
    <TTGlyph name="comma" xMin="36" yMin="-113" xMax="178" yMax="100">
      <contour>
        <pt x="122" y="100" on="1"/>
        <pt x="149" y="100" on="0"/>
        <pt x="178" y="54" on="0"/>
        <pt x="175" y="19" on="1"/>
        <pt x="171" y="-16" on="0"/>
        <pt x="125" y="-91" on="0"/>
        <pt x="84" y="-113" on="1"/>
        <pt x="36" y="-84" on="1"/>
        <pt x="62" y="-69" on="0"/>
        <pt x="101" y="-31" on="0"/>
        <pt x="109" y="-5" on="1"/>
        <pt x="89" y="-3" on="0"/>
        <pt x="65" y="24" on="0"/>
        <pt x="67" y="46" on="1"/>
        <pt x="69" y="69" on="0"/>
        <pt x="99" y="100" on="0"/>
      </contour>
    </TTGlyph>
    <TTGlyph name="cu.tam" xMin="52" yMin="-9" xMax="734" yMax="504">
      <contour>
        <pt x="616" y="504" on="1"/>
        <pt x="609" y="435" on="1"/>
        <pt x="478" y="435" on="1"/>
        <pt x="464" y="280" on="1"/>
        <pt x="734" y="280" on="1"/>
        <pt x="730" y="227" on="1"/>
        <pt x="646" y="227" on="1"/>
        <pt x="626" y="0" on="1"/>
        <pt x="557" y="0" on="1"/>
        <pt x="578" y="227" on="1"/>
        <pt x="460" y="227" on="1"/>
        <pt x="454" y="173" on="1"/>
        <pt x="436" y="-9" on="0"/>
        <pt x="275" y="-9" on="1"/>
        <pt x="223" y="-9" on="0"/>
        <pt x="139" y="23" on="0"/>
        <pt x="81" y="75" on="0"/>
        <pt x="52" y="144" on="0"/>
        <pt x="56" y="180" on="1"/>
        <pt x="61" y="233" on="0"/>
        <pt x="127" y="280" on="0"/>
        <pt x="177" y="280" on="1"/>
        <pt x="198" y="504" on="1"/>
      </contour>
      <contour>
        <pt x="196" y="227" on="1"/>
        <pt x="133" y="227" on="0"/>
        <pt x="127" y="171" on="1"/>
        <pt x="125" y="146" on="0"/>
        <pt x="145" y="104" on="0"/>
        <pt x="185" y="73" on="0"/>
        <pt x="242" y="55" on="0"/>
        <pt x="275" y="55" on="1"/>
        <pt x="328" y="55" on="0"/>
        <pt x="381" y="114" on="0"/>
        <pt x="386" y="174" on="1"/>
        <pt x="392" y="227" on="1"/>
      </contour>
      <contour>
        <pt x="241" y="280" on="1"/>
        <pt x="396" y="280" on="1"/>
        <pt x="410" y="435" on="1"/>
        <pt x="256" y="435" on="1"/>
      </contour>
    </TTGlyph>
    <TTGlyph name="cuu.tam" xMin="59" yMin="-328" xMax="1068" yMax="513">
      <contour>
        <pt x="812" y="504" on="1"/>
        <pt x="806" y="435" on="1"/>
        <pt x="676" y="435" on="1"/>
        <pt x="661" y="280" on="1"/>
        <pt x="954" y="280" on="1"/>
        <pt x="949" y="227" on="1"/>
        <pt x="848" y="227" on="1"/>
        <pt x="830" y="32" on="1"/>
        <pt x="850" y="77" on="0"/>
        <pt x="916" y="119" on="0"/>
        <pt x="954" y="119" on="1"/>
        <pt x="983" y="119" on="0"/>
        <pt x="1027" y="95" on="0"/>
        <pt x="1055" y="54" on="0"/>
        <pt x="1068" y="-2" on="0"/>
        <pt x="1065" y="-34" on="1"/>
        <pt x="1059" y="-93" on="0"/>
        <pt x="1003" y="-199" on="0"/>
        <pt x="897" y="-280" on="0"/>
        <pt x="738" y="-328" on="0"/>
        <pt x="630" y="-328" on="1"/>
        <pt x="504" y="-328" on="0"/>
        <pt x="290" y="-257" on="0"/>
        <pt x="137" y="-126" on="0"/>
        <pt x="59" y="59" on="0"/>
        <pt x="70" y="174" on="1"/>
        <pt x="74" y="217" on="0"/>
        <pt x="91" y="298" on="0"/>
        <pt x="116" y="380" on="0"/>
        <pt x="151" y="466" on="0"/>
        <pt x="174" y="513" on="1"/>
        <pt x="235" y="492" on="1"/>
        <pt x="213" y="446" on="0"/>
        <pt x="181" y="364" on="0"/>
        <pt x="158" y="288" on="0"/>
        <pt x="144" y="213" on="0"/>
        <pt x="140" y="174" on="1"/>
        <pt x="130" y="66" on="0"/>
        <pt x="204" y="-95" on="0"/>
        <pt x="343" y="-202" on="0"/>
        <pt x="531" y="-256" on="0"/>
        <pt x="636" y="-256" on="1"/>
        <pt x="721" y="-256" on="0"/>
        <pt x="850" y="-222" on="0"/>
        <pt x="940" y="-163" on="0"/>
        <pt x="989" y="-84" on="0"/>
        <pt x="994" y="-39" on="1"/>
        <pt x="998" y="4" on="0"/>
        <pt x="967" y="53" on="0"/>
        <pt x="935" y="53" on="1"/>
        <pt x="914" y="53" on="0"/>
        <pt x="874" y="30" on="0"/>
        <pt x="843" y="-9" on="0"/>
        <pt x="822" y="-60" on="0"/>
        <pt x="819" y="-88" on="1"/>
        <pt x="750" y="-88" on="1"/>
        <pt x="780" y="227" on="1"/>
        <pt x="656" y="227" on="1"/>
        <pt x="652" y="169" on="0"/>
        <pt x="629" y="81" on="0"/>
        <pt x="585" y="21" on="0"/>
        <pt x="519" y="-9" on="0"/>
        <pt x="472" y="-9" on="1"/>
        <pt x="423" y="-9" on="0"/>
        <pt x="340" y="23" on="0"/>
        <pt x="280" y="76" on="0"/>
        <pt x="249" y="145" on="0"/>
        <pt x="252" y="183" on="1"/>
        <pt x="257" y="230" on="0"/>
        <pt x="319" y="280" on="0"/>
        <pt x="364" y="280" on="1"/>
        <pt x="374" y="280" on="1"/>
        <pt x="395" y="504" on="1"/>
      </contour>
      <contour>
        <pt x="392" y="227" on="1"/>
        <pt x="327" y="227" on="0"/>
        <pt x="321" y="171" on="1"/>
        <pt x="319" y="146" on="0"/>
        <pt x="341" y="104" on="0"/>
        <pt x="382" y="73" on="0"/>
        <pt x="440" y="55" on="0"/>
        <pt x="473" y="55" on="1"/>
        <pt x="573" y="55" on="0"/>
        <pt x="584" y="174" on="1"/>
        <pt x="588" y="227" on="1"/>
      </contour>
      <contour>
        <pt x="438" y="280" on="1"/>
        <pt x="594" y="280" on="1"/>
        <pt x="609" y="435" on="1"/>
        <pt x="452" y="435" on="1"/>
      </contour>
    </TTGlyph>
    <TTGlyph name="cvir.tam" xMin="52" yMin="-9" xMax="616" yMax="737">
      <contour>
        <pt x="241" y="280" on="1"/>
        <pt x="396" y="280" on="1"/>
        <pt x="410" y="435" on="1"/>
        <pt x="256" y="435" on="1"/>
      </contour>
      <contour>
        <pt x="196" y="227" on="1"/>
        <pt x="163" y="227" on="0"/>
        <pt x="130" y="199" on="0"/>
        <pt x="127" y="171" on="1"/>
        <pt x="125" y="146" on="0"/>
        <pt x="145" y="104" on="0"/>
        <pt x="185" y="73" on="0"/>
        <pt x="242" y="55" on="0"/>
        <pt x="275" y="55" on="1"/>
        <pt x="328" y="55" on="0"/>
        <pt x="381" y="114" on="0"/>
        <pt x="386" y="174" on="1"/>
        <pt x="392" y="227" on="1"/>
      </contour>
      <contour>
        <pt x="616" y="504" on="1"/>
        <pt x="609" y="435" on="1"/>
        <pt x="478" y="435" on="1"/>
        <pt x="464" y="280" on="1"/>
        <pt x="573" y="280" on="1"/>
        <pt x="569" y="227" on="1"/>
        <pt x="460" y="227" on="1"/>
        <pt x="454" y="173" on="1"/>
        <pt x="436" y="-9" on="0"/>
        <pt x="275" y="-9" on="1"/>
        <pt x="223" y="-9" on="0"/>
        <pt x="139" y="23" on="0"/>
        <pt x="81" y="75" on="0"/>
        <pt x="52" y="144" on="0"/>
        <pt x="56" y="180" on="1"/>
        <pt x="61" y="233" on="0"/>
        <pt x="127" y="280" on="0"/>
        <pt x="177" y="280" on="1"/>
        <pt x="198" y="504" on="1"/>
      </contour>
      <contour>
        <pt x="370" y="684" on="1"/>
        <pt x="373" y="707" on="0"/>
        <pt x="403" y="737" on="0"/>
        <pt x="421" y="737" on="1"/>
        <pt x="441" y="737" on="0"/>
        <pt x="466" y="707" on="0"/>
        <pt x="464" y="684" on="1"/>
        <pt x="462" y="664" on="0"/>
        <pt x="432" y="634" on="0"/>
        <pt x="412" y="634" on="1"/>
        <pt x="393" y="634" on="0"/>
        <pt x="368" y="664" on="0"/>
      </contour>
    </TTGlyph>
    <TTGlyph name="dollar" xMin="81" yMin="-105" xMax="533" yMax="731">
      <contour>
        <pt x="400" y="332" on="1"/>
        <pt x="431" y="321" on="0"/>
        <pt x="480" y="293" on="0"/>
        <pt x="513" y="253" on="0"/>
        <pt x="527" y="201" on="0"/>
        <pt x="524" y="167" on="1"/>
        <pt x="521" y="133" on="0"/>
        <pt x="488" y="73" on="0"/>
        <pt x="434" y="26" on="0"/>
        <pt x="360" y="-4" on="0"/>
        <pt x="315" y="-7" on="1"/>
        <pt x="306" y="-105" on="1"/>
        <pt x="248" y="-105" on="1"/>
        <pt x="257" y="-7" on="1"/>
        <pt x="219" y="-3" on="0"/>
        <pt x="152" y="25" on="0"/>
        <pt x="105" y="75" on="0"/>
        <pt x="81" y="147" on="0"/>
        <pt x="86" y="195" on="1"/>
        <pt x="154" y="195" on="1"/>
        <pt x="149" y="135" on="0"/>
        <pt x="206" y="64" on="0"/>
        <pt x="263" y="56" on="1"/>
        <pt x="286" y="298" on="1"/>
        <pt x="256" y="310" on="1"/>
        <pt x="184" y="337" on="0"/>
        <pt x="121" y="412" on="0"/>
        <pt x="127" y="475" on="1"/>
        <pt x="130" y="509" on="0"/>
        <pt x="161" y="566" on="0"/>
        <pt x="212" y="608" on="0"/>
        <pt x="279" y="634" on="0"/>
        <pt x="318" y="638" on="1"/>
        <pt x="327" y="731" on="1"/>
        <pt x="384" y="731" on="1"/>
        <pt x="375" y="639" on="1"/>
        <pt x="446" y="633" on="0"/>
        <pt x="531" y="550" on="0"/>
        <pt x="533" y="472" on="1"/>
        <pt x="464" y="472" on="1"/>
        <pt x="462" y="517" on="0"/>
        <pt x="415" y="572" on="0"/>
        <pt x="369" y="577" on="1"/>
        <pt x="348" y="349" on="1"/>
      </contour>
      <contour>
        <pt x="451" y="165" on="1"/>
        <pt x="458" y="236" on="0"/>
        <pt x="378" y="265" on="1"/>
        <pt x="342" y="278" on="1"/>
        <pt x="321" y="55" on="1"/>
        <pt x="379" y="62" on="0"/>
        <pt x="447" y="126" on="0"/>
      </contour>
      <contour>
        <pt x="199" y="474" on="1"/>
        <pt x="195" y="437" on="0"/>
        <pt x="231" y="395" on="0"/>
        <pt x="269" y="380" on="1"/>
        <pt x="293" y="370" on="1"/>
        <pt x="312" y="575" on="1"/>
        <pt x="261" y="567" on="0"/>
        <pt x="202" y="512" on="0"/>
      </contour>
    </TTGlyph>
    <TTGlyph name="e.tam" xMin="63" yMin="-9" xMax="743" yMax="504">
      <contour>
        <pt x="743" y="504" on="1"/>
        <pt x="736" y="435" on="1"/>
        <pt x="631" y="435" on="1"/>
        <pt x="591" y="0" on="1"/>
        <pt x="523" y="0" on="1"/>
        <pt x="563" y="435" on="1"/>
        <pt x="429" y="435" on="1"/>
        <pt x="370" y="435" on="0"/>
        <pt x="268" y="401" on="0"/>
        <pt x="191" y="340" on="0"/>
        <pt x="144" y="256" on="0"/>
        <pt x="139" y="207" on="1"/>
        <pt x="133" y="145" on="0"/>
        <pt x="174" y="75" on="0"/>
        <pt x="209" y="61" on="1"/>
        <pt x="204" y="85" on="0"/>
        <pt x="203" y="137" on="0"/>
        <pt x="208" y="163" on="1"/>
        <pt x="214" y="190" on="0"/>
        <pt x="238" y="238" on="0"/>
        <pt x="274" y="274" on="0"/>
        <pt x="321" y="295" on="0"/>
        <pt x="348" y="295" on="1"/>
        <pt x="405" y="295" on="0"/>
        <pt x="463" y="218" on="0"/>
        <pt x="457" y="158" on="1"/>
        <pt x="454" y="123" on="0"/>
        <pt x="422" y="62" on="0"/>
        <pt x="370" y="17" on="0"/>
        <pt x="302" y="-9" on="0"/>
        <pt x="262" y="-9" on="1"/>
        <pt x="221" y="-9" on="0"/>
        <pt x="146" y="24" on="0"/>
        <pt x="92" y="83" on="0"/>
        <pt x="63" y="167" on="0"/>
        <pt x="68" y="218" on="1"/>
        <pt x="74" y="279" on="0"/>
        <pt x="132" y="383" on="0"/>
        <pt x="228" y="460" on="0"/>
        <pt x="358" y="504" on="0"/>
        <pt x="436" y="504" on="1"/>
      </contour>
      <contour>
        <pt x="334" y="229" on="1"/>
        <pt x="299" y="228" on="0"/>
        <pt x="253" y="169" on="0"/>
        <pt x="246" y="130" on="1"/>
        <pt x="244" y="110" on="0"/>
        <pt x="244" y="71" on="0"/>
        <pt x="248" y="54" on="1"/>
        <pt x="258" y="51" on="0"/>
        <pt x="267" y="51" on="1"/>
        <pt x="283" y="51" on="0"/>
        <pt x="322" y="64" on="0"/>
        <pt x="357" y="90" on="0"/>
        <pt x="383" y="130" on="0"/>
        <pt x="386" y="158" on="1"/>
        <pt x="388" y="188" on="0"/>
        <pt x="363" y="229" on="0"/>
      </contour>
    </TTGlyph>
    <TTGlyph name="ee.tam" xMin="63" yMin="-251" xMax="743" yMax="504">
      <contour>
        <pt x="743" y="504" on="1"/>
        <pt x="736" y="435" on="1"/>
        <pt x="631" y="435" on="1"/>
        <pt x="591" y="0" on="1"/>
        <pt x="590" y="0" on="1"/>
        <pt x="585" y="-56" on="1"/>
        <pt x="351" y="-251" on="1"/>
        <pt x="292" y="-214" on="1"/>
        <pt x="521" y="-21" on="1"/>
        <pt x="526" y="43" on="1"/>
        <pt x="527" y="43" on="1"/>
        <pt x="563" y="435" on="1"/>
        <pt x="429" y="435" on="1"/>
        <pt x="370" y="435" on="0"/>
        <pt x="268" y="401" on="0"/>
        <pt x="191" y="340" on="0"/>
        <pt x="144" y="256" on="0"/>
        <pt x="139" y="207" on="1"/>
        <pt x="133" y="145" on="0"/>
        <pt x="174" y="75" on="0"/>
        <pt x="209" y="61" on="1"/>
        <pt x="204" y="85" on="0"/>
        <pt x="203" y="137" on="0"/>
        <pt x="208" y="163" on="1"/>
        <pt x="214" y="190" on="0"/>
        <pt x="238" y="238" on="0"/>
        <pt x="274" y="274" on="0"/>
        <pt x="321" y="295" on="0"/>
        <pt x="348" y="295" on="1"/>
        <pt x="405" y="295" on="0"/>
        <pt x="463" y="218" on="0"/>
        <pt x="457" y="158" on="1"/>
        <pt x="454" y="123" on="0"/>
        <pt x="422" y="62" on="0"/>
        <pt x="370" y="17" on="0"/>
        <pt x="302" y="-9" on="0"/>
        <pt x="262" y="-9" on="1"/>
        <pt x="221" y="-9" on="0"/>
        <pt x="146" y="24" on="0"/>
        <pt x="92" y="83" on="0"/>
        <pt x="63" y="167" on="0"/>
        <pt x="68" y="218" on="1"/>
        <pt x="74" y="279" on="0"/>
        <pt x="132" y="383" on="0"/>
        <pt x="228" y="460" on="0"/>
        <pt x="358" y="504" on="0"/>
        <pt x="436" y="504" on="1"/>
      </contour>
      <contour>
        <pt x="334" y="229" on="1"/>
        <pt x="299" y="228" on="0"/>
        <pt x="253" y="169" on="0"/>
        <pt x="246" y="130" on="1"/>
        <pt x="244" y="110" on="0"/>
        <pt x="244" y="71" on="0"/>
        <pt x="248" y="54" on="1"/>
        <pt x="258" y="51" on="0"/>
        <pt x="267" y="51" on="1"/>
        <pt x="283" y="51" on="0"/>
        <pt x="322" y="64" on="0"/>
        <pt x="357" y="90" on="0"/>
        <pt x="383" y="130" on="0"/>
        <pt x="386" y="158" on="1"/>
        <pt x="388" y="188" on="0"/>
        <pt x="363" y="229" on="0"/>
      </contour>
    </TTGlyph>
    <TTGlyph name="eematra.tam" xMin="71" yMin="-9" xMax="595" yMax="785">
      <contour>
        <pt x="422" y="785" on="1"/>
        <pt x="463" y="785" on="0"/>
        <pt x="528" y="759" on="0"/>
        <pt x="573" y="715" on="0"/>
        <pt x="595" y="657" on="0"/>
        <pt x="592" y="625" on="1"/>
        <pt x="587" y="567" on="0"/>
        <pt x="510" y="500" on="0"/>
        <pt x="455" y="500" on="1"/>
        <pt x="428" y="500" on="0"/>
        <pt x="387" y="518" on="0"/>
        <pt x="360" y="550" on="0"/>
        <pt x="348" y="591" on="0"/>
        <pt x="350" y="615" on="1"/>
        <pt x="353" y="647" on="0"/>
        <pt x="384" y="705" on="0"/>
        <pt x="407" y="729" on="1"/>
        <pt x="369" y="724" on="0"/>
        <pt x="285" y="671" on="0"/>
        <pt x="213" y="583" on="0"/>
        <pt x="160" y="461" on="0"/>
        <pt x="153" y="388" on="1"/>
        <pt x="146" y="313" on="0"/>
        <pt x="166" y="202" on="0"/>
        <pt x="208" y="124" on="0"/>
        <pt x="265" y="77" on="0"/>
        <pt x="294" y="65" on="1"/>
        <pt x="284" y="116" on="0"/>
        <pt x="296" y="169" on="1"/>
        <pt x="308" y="226" on="0"/>
        <pt x="383" y="299" on="0"/>
        <pt x="439" y="299" on="1"/>
        <pt x="467" y="299" on="0"/>
        <pt x="510" y="277" on="0"/>
        <pt x="538" y="239" on="0"/>
        <pt x="551" y="188" on="0"/>
        <pt x="548" y="158" on="1"/>
        <pt x="545" y="122" on="0"/>
        <pt x="512" y="61" on="0"/>
        <pt x="459" y="16" on="0"/>
        <pt x="391" y="-9" on="0"/>
        <pt x="353" y="-9" on="1"/>
        <pt x="301" y="-9" on="0"/>
        <pt x="196" y="41" on="0"/>
        <pt x="115" y="141" on="0"/>
        <pt x="71" y="290" on="0"/>
        <pt x="80" y="388" on="1"/>
        <pt x="88" y="475" on="0"/>
        <pt x="152" y="621" on="0"/>
        <pt x="247" y="726" on="0"/>
        <pt x="362" y="785" on="0"/>
      </contour>
      <contour>
        <pt x="331" y="133" on="1"/>
        <pt x="328" y="113" on="0"/>
        <pt x="329" y="73" on="0"/>
        <pt x="332" y="56" on="1"/>
        <pt x="336" y="54" on="0"/>
        <pt x="347" y="53" on="0"/>
        <pt x="352" y="52" on="1"/>
        <pt x="362" y="52" on="0"/>
        <pt x="384" y="55" on="0"/>
        <pt x="395" y="59" on="1"/>
        <pt x="426" y="69" on="0"/>
        <pt x="471" y="120" on="0"/>
        <pt x="476" y="158" on="1"/>
        <pt x="479" y="191" on="0"/>
        <pt x="452" y="233" on="0"/>
        <pt x="423" y="233" on="1"/>
        <pt x="405" y="233" on="0"/>
        <pt x="374" y="216" on="0"/>
        <pt x="350" y="188" on="0"/>
        <pt x="334" y="152" on="0"/>
      </contour>
      <contour>
        <pt x="525" y="626" on="1"/>
        <pt x="528" y="668" on="0"/>
        <pt x="477" y="719" on="0"/>
        <pt x="439" y="726" on="1"/>
        <pt x="422" y="705" on="0"/>
        <pt x="400" y="653" on="0"/>
        <pt x="397" y="630" on="1"/>
        <pt x="394" y="596" on="0"/>
        <pt x="425" y="554" on="0"/>
        <pt x="454" y="554" on="1"/>
        <pt x="482" y="554" on="0"/>
        <pt x="521" y="591" on="0"/>
      </contour>
    </TTGlyph>
    <TTGlyph name="eight" xMin="61" yMin="-12" xMax="531" yMax="640">
      <contour>
        <pt x="337" y="640" on="1"/>
        <pt x="382" y="640" on="0"/>
        <pt x="455" y="613" on="0"/>
        <pt x="506" y="567" on="0"/>
        <pt x="531" y="502" on="0"/>
        <pt x="527" y="465" on="1"/>
        <pt x="525" y="439" on="0"/>
        <pt x="504" y="392" on="0"/>
        <pt x="470" y="353" on="0"/>
        <pt x="421" y="326" on="0"/>
        <pt x="391" y="321" on="1"/>
        <pt x="406" y="315" on="1"/>
        <pt x="466" y="289" on="0"/>
        <pt x="525" y="219" on="0"/>
        <pt x="519" y="157" on="1"/>
        <pt x="516" y="120" on="0"/>
        <pt x="479" y="58" on="0"/>
        <pt x="417" y="13" on="0"/>
        <pt x="329" y="-12" on="0"/>
        <pt x="275" y="-12" on="1"/>
        <pt x="225" y="-12" on="0"/>
        <pt x="144" y="15" on="0"/>
        <pt x="89" y="64" on="0"/>
        <pt x="61" y="130" on="0"/>
        <pt x="65" y="169" on="1"/>
        <pt x="70" y="231" on="0"/>
        <pt x="150" y="308" on="0"/>
        <pt x="210" y="319" on="1"/>
        <pt x="191" y="329" on="0"/>
        <pt x="153" y="357" on="0"/>
        <pt x="125" y="395" on="0"/>
        <pt x="109" y="443" on="0"/>
        <pt x="112" y="473" on="1"/>
        <pt x="115" y="509" on="0"/>
        <pt x="150" y="571" on="0"/>
        <pt x="208" y="615" on="0"/>
        <pt x="288" y="640" on="0"/>
      </contour>
      <contour>
        <pt x="276" y="289" on="1"/>
        <pt x="218" y="282" on="0"/>
        <pt x="143" y="216" on="0"/>
        <pt x="140" y="175" on="1"/>
        <pt x="137" y="148" on="0"/>
        <pt x="156" y="105" on="0"/>
        <pt x="195" y="76" on="0"/>
        <pt x="249" y="61" on="0"/>
        <pt x="282" y="61" on="1"/>
        <pt x="355" y="61" on="0"/>
        <pt x="440" y="112" on="0"/>
        <pt x="445" y="154" on="1"/>
        <pt x="447" y="187" on="0"/>
        <pt x="408" y="232" on="0"/>
        <pt x="373" y="247" on="1"/>
      </contour>
      <contour>
        <pt x="187" y="471" on="1"/>
        <pt x="184" y="436" on="0"/>
        <pt x="220" y="396" on="0"/>
        <pt x="255" y="381" on="1"/>
        <pt x="319" y="353" on="1"/>
        <pt x="345" y="354" on="0"/>
        <pt x="391" y="370" on="0"/>
        <pt x="427" y="399" on="0"/>
        <pt x="450" y="438" on="0"/>
        <pt x="453" y="461" on="1"/>
        <pt x="457" y="508" on="0"/>
        <pt x="390" y="567" on="0"/>
        <pt x="330" y="567" on="1"/>
        <pt x="301" y="567" on="0"/>
        <pt x="251" y="552" on="0"/>
        <pt x="213" y="526" on="0"/>
        <pt x="189" y="491" on="0"/>
      </contour>
    </TTGlyph>
    <TTGlyph name="eighttamil" xMin="42" yMin="-9" xMax="767" yMax="513">
      <contour>
        <pt x="372" y="513" on="1"/>
        <pt x="426" y="513" on="0"/>
        <pt x="506" y="471" on="0"/>
        <pt x="557" y="402" on="0"/>
        <pt x="579" y="313" on="0"/>
        <pt x="575" y="267" on="1"/>
        <pt x="676" y="267" on="1"/>
        <pt x="698" y="507" on="1"/>
        <pt x="767" y="507" on="1"/>
        <pt x="720" y="0" on="1"/>
        <pt x="652" y="0" on="1"/>
        <pt x="671" y="215" on="1"/>
        <pt x="568" y="215" on="1"/>
        <pt x="558" y="170" on="0"/>
        <pt x="515" y="88" on="0"/>
        <pt x="446" y="27" on="0"/>
        <pt x="350" y="-9" on="0"/>
        <pt x="287" y="-9" on="1"/>
        <pt x="227" y="-9" on="0"/>
        <pt x="134" y="22" on="0"/>
        <pt x="71" y="73" on="0"/>
        <pt x="42" y="139" on="0"/>
        <pt x="45" y="174" on="1"/>
        <pt x="49" y="222" on="0"/>
        <pt x="113" y="267" on="0"/>
        <pt x="162" y="267" on="1"/>
        <pt x="235" y="267" on="1"/>
        <pt x="212" y="282" on="0"/>
        <pt x="187" y="334" on="0"/>
        <pt x="190" y="369" on="1"/>
        <pt x="193" y="400" on="0"/>
        <pt x="223" y="453" on="0"/>
        <pt x="271" y="492" on="0"/>
        <pt x="335" y="513" on="0"/>
      </contour>
      <contour>
        <pt x="293" y="60" on="1"/>
        <pt x="378" y="60" on="0"/>
        <pt x="479" y="143" on="0"/>
        <pt x="496" y="215" on="1"/>
        <pt x="175" y="215" on="1"/>
        <pt x="148" y="215" on="0"/>
        <pt x="119" y="189" on="0"/>
        <pt x="117" y="166" on="1"/>
        <pt x="115" y="147" on="0"/>
        <pt x="135" y="109" on="0"/>
        <pt x="179" y="79" on="0"/>
        <pt x="247" y="60" on="0"/>
      </contour>
      <contour>
        <pt x="260" y="354" on="1"/>
        <pt x="257" y="321" on="0"/>
        <pt x="295" y="269" on="0"/>
        <pt x="339" y="267" on="1"/>
        <pt x="504" y="267" on="1"/>
        <pt x="507" y="304" on="0"/>
        <pt x="489" y="369" on="0"/>
        <pt x="454" y="417" on="0"/>
        <pt x="402" y="444" on="0"/>
        <pt x="370" y="444" on="1"/>
        <pt x="322" y="444" on="0"/>
        <pt x="263" y="394" on="0"/>
      </contour>
    </TTGlyph>
    <TTGlyph name="ematra.tam" xMin="72" yMin="-9" xMax="689" yMax="785">
      <contour>
        <pt x="505" y="785" on="1"/>
        <pt x="599" y="785" on="0"/>
        <pt x="689" y="660" on="0"/>
        <pt x="678" y="544" on="1"/>
        <pt x="627" y="0" on="1"/>
        <pt x="559" y="0" on="1"/>
        <pt x="611" y="544" on="1"/>
        <pt x="615" y="590" on="0"/>
        <pt x="603" y="655" on="0"/>
        <pt x="573" y="695" on="0"/>
        <pt x="527" y="714" on="0"/>
        <pt x="498" y="714" on="1"/>
        <pt x="446" y="714" on="0"/>
        <pt x="331" y="649" on="0"/>
        <pt x="231" y="536" on="0"/>
        <pt x="159" y="383" on="0"/>
        <pt x="151" y="295" on="1"/>
        <pt x="146" y="244" on="0"/>
        <pt x="155" y="166" on="0"/>
        <pt x="178" y="109" on="0"/>
        <pt x="210" y="72" on="0"/>
        <pt x="229" y="62" on="1"/>
        <pt x="224" y="85" on="0"/>
        <pt x="223" y="137" on="0"/>
        <pt x="230" y="163" on="1"/>
        <pt x="236" y="190" on="0"/>
        <pt x="260" y="238" on="0"/>
        <pt x="295" y="274" on="0"/>
        <pt x="342" y="295" on="0"/>
        <pt x="370" y="295" on="1"/>
        <pt x="427" y="295" on="0"/>
        <pt x="484" y="218" on="0"/>
        <pt x="478" y="158" on="1"/>
        <pt x="475" y="122" on="0"/>
        <pt x="443" y="61" on="0"/>
        <pt x="392" y="16" on="0"/>
        <pt x="323" y="-9" on="0"/>
        <pt x="283" y="-9" on="1"/>
        <pt x="240" y="-9" on="0"/>
        <pt x="160" y="32" on="0"/>
        <pt x="102" y="112" on="0"/>
        <pt x="72" y="232" on="0"/>
        <pt x="80" y="311" on="1"/>
        <pt x="89" y="408" on="0"/>
        <pt x="167" y="581" on="0"/>
        <pt x="283" y="710" on="0"/>
        <pt x="428" y="785" on="0"/>
      </contour>
      <contour>
        <pt x="355" y="229" on="1"/>
        <pt x="320" y="229" on="0"/>
        <pt x="274" y="169" on="0"/>
        <pt x="267" y="130" on="1"/>
        <pt x="261" y="89" on="0"/>
        <pt x="269" y="54" on="1"/>
        <pt x="281" y="51" on="0"/>
        <pt x="291" y="51" on="1"/>
        <pt x="307" y="51" on="0"/>
        <pt x="345" y="64" on="0"/>
        <pt x="379" y="91" on="0"/>
        <pt x="403" y="131" on="0"/>
        <pt x="406" y="158" on="1"/>
        <pt x="409" y="188" on="0"/>
        <pt x="384" y="229" on="0"/>
      </contour>
    </TTGlyph>
    <TTGlyph name="emdash" xMin="75" yMin="271" xMax="633" yMax="340">
      <contour>
        <pt x="633" y="340" on="1"/>
        <pt x="627" y="271" on="1"/>
        <pt x="75" y="271" on="1"/>
        <pt x="81" y="340" on="1"/>
      </contour>
    </TTGlyph>
    <TTGlyph name="endash" xMin="75" yMin="271" xMax="405" yMax="340">
      <contour>
        <pt x="405" y="340" on="1"/>
        <pt x="399" y="271" on="1"/>
        <pt x="75" y="271" on="1"/>
        <pt x="81" y="340" on="1"/>
      </contour>
    </TTGlyph>
    <TTGlyph name="equals" xMin="82" yMin="124" xMax="403" yMax="394">
      <contour>
        <pt x="384" y="193" on="1"/>
        <pt x="378" y="124" on="1"/>
        <pt x="82" y="124" on="1"/>
        <pt x="88" y="193" on="1"/>
      </contour>
      <contour>
        <pt x="403" y="394" on="1"/>
        <pt x="397" y="325" on="1"/>
        <pt x="102" y="325" on="1"/>
        <pt x="107" y="394" on="1"/>
      </contour>
    </TTGlyph>
    <TTGlyph name="exclam" xMin="77" yMin="-9" xMax="223" yMax="652">
      <contour>
        <pt x="223" y="652" on="1"/>
        <pt x="171" y="183" on="1"/>
        <pt x="114" y="183" on="1"/>
        <pt x="151" y="652" on="1"/>
      </contour>
      <contour>
        <pt x="135" y="106" on="1"/>
        <pt x="158" y="106" on="0"/>
        <pt x="185" y="73" on="0"/>
        <pt x="183" y="47" on="1"/>
        <pt x="180" y="23" on="0"/>
        <pt x="147" y="-9" on="0"/>
        <pt x="124" y="-9" on="1"/>
        <pt x="103" y="-9" on="0"/>
        <pt x="77" y="23" on="0"/>
        <pt x="79" y="47" on="1"/>
        <pt x="81" y="73" on="0"/>
        <pt x="113" y="106" on="0"/>
      </contour>
    </TTGlyph>
    <TTGlyph name="five" xMin="60" yMin="-114" xMax="481" yMax="545">
      <contour>
        <pt x="481" y="545" on="1"/>
        <pt x="473" y="473" on="1"/>
        <pt x="228" y="473" on="1"/>
        <pt x="196" y="297" on="1"/>
        <pt x="216" y="302" on="0"/>
        <pt x="260" y="306" on="0"/>
        <pt x="281" y="306" on="1"/>
        <pt x="375" y="306" on="0"/>
        <pt x="473" y="199" on="0"/>
        <pt x="465" y="106" on="1"/>
        <pt x="460" y="58" on="0"/>
        <pt x="421" y="-22" on="0"/>
        <pt x="358" y="-81" on="0"/>
        <pt x="277" y="-114" on="0"/>
        <pt x="231" y="-114" on="1"/>
        <pt x="195" y="-114" on="0"/>
        <pt x="130" y="-90" on="0"/>
        <pt x="84" y="-42" on="0"/>
        <pt x="60" y="28" on="0"/>
        <pt x="64" y="74" on="1"/>
        <pt x="134" y="74" on="1"/>
        <pt x="129" y="17" on="0"/>
        <pt x="186" y="-42" on="0"/>
        <pt x="239" y="-42" on="1"/>
        <pt x="270" y="-42" on="0"/>
        <pt x="324" y="-20" on="0"/>
        <pt x="364" y="20" on="0"/>
        <pt x="390" y="74" on="0"/>
        <pt x="392" y="106" on="1"/>
        <pt x="399" y="169" on="0"/>
        <pt x="333" y="242" on="0"/>
        <pt x="261" y="242" on="1"/>
        <pt x="116" y="242" on="1"/>
        <pt x="169" y="545" on="1"/>
      </contour>
    </TTGlyph>
    <TTGlyph name="fivetamil" xMin="60" yMin="-251" xMax="912" yMax="511">
      <contour>
        <pt x="794" y="504" on="1"/>
        <pt x="787" y="435" on="1"/>
        <pt x="680" y="435" on="1"/>
        <pt x="659" y="207" on="1"/>
        <pt x="679" y="252" on="0"/>
        <pt x="744" y="295" on="0"/>
        <pt x="785" y="295" on="1"/>
        <pt x="813" y="295" on="0"/>
        <pt x="862" y="268" on="0"/>
        <pt x="896" y="217" on="0"/>
        <pt x="912" y="146" on="0"/>
        <pt x="908" y="101" on="1"/>
        <pt x="900" y="20" on="0"/>
        <pt x="831" y="-111" on="0"/>
        <pt x="719" y="-202" on="0"/>
        <pt x="571" y="-251" on="0"/>
        <pt x="485" y="-251" on="1"/>
        <pt x="384" y="-251" on="0"/>
        <pt x="221" y="-194" on="0"/>
        <pt x="112" y="-86" on="0"/>
        <pt x="60" y="72" on="0"/>
        <pt x="70" y="173" on="1"/>
        <pt x="78" y="262" on="0"/>
        <pt x="139" y="429" on="0"/>
        <pt x="186" y="511" on="1"/>
        <pt x="247" y="491" on="1"/>
        <pt x="202" y="406" on="0"/>
        <pt x="150" y="255" on="0"/>
        <pt x="142" y="173" on="1"/>
        <pt x="134" y="86" on="0"/>
        <pt x="174" y="-46" on="0"/>
        <pt x="265" y="-134" on="0"/>
        <pt x="402" y="-179" on="0"/>
        <pt x="491" y="-179" on="1"/>
        <pt x="556" y="-179" on="0"/>
        <pt x="675" y="-142" on="0"/>
        <pt x="768" y="-71" on="0"/>
        <pt x="829" y="33" on="0"/>
        <pt x="835" y="101" on="1"/>
        <pt x="841" y="162" on="0"/>
        <pt x="802" y="229" on="0"/>
        <pt x="764" y="229" on="1"/>
        <pt x="743" y="229" on="0"/>
        <pt x="703" y="206" on="0"/>
        <pt x="671" y="164" on="0"/>
        <pt x="649" y="106" on="0"/>
        <pt x="645" y="71" on="1"/>
        <pt x="640" y="0" on="1"/>
        <pt x="572" y="0" on="1"/>
        <pt x="613" y="435" on="1"/>
        <pt x="427" y="435" on="1"/>
        <pt x="387" y="0" on="1"/>
        <pt x="319" y="0" on="1"/>
        <pt x="366" y="504" on="1"/>
      </contour>
    </TTGlyph>
    <TTGlyph name="four" xMin="25" yMin="-105" xMax="493" yMax="546">
      <contour>
        <pt x="436" y="546" on="1"/>
        <pt x="396" y="121" on="1"/>
        <pt x="493" y="121" on="1"/>
        <pt x="488" y="54" on="1"/>
        <pt x="390" y="54" on="1"/>
        <pt x="374" y="-105" on="1"/>
        <pt x="304" y="-105" on="1"/>
        <pt x="318" y="54" on="1"/>
        <pt x="25" y="54" on="1"/>
        <pt x="31" y="115" on="1"/>
        <pt x="369" y="546" on="1"/>
      </contour>
      <contour>
        <pt x="112" y="115" on="1"/>
        <pt x="327" y="115" on="1"/>
        <pt x="356" y="422" on="1"/>
      </contour>
    </TTGlyph>
    <TTGlyph name="fourtamil" xMin="55" yMin="-9" xMax="726" yMax="504">
      <contour>
        <pt x="726" y="504" on="1"/>
        <pt x="698" y="227" on="1"/>
        <pt x="460" y="227" on="1"/>
        <pt x="455" y="173" on="1"/>
        <pt x="437" y="-9" on="0"/>
        <pt x="275" y="-9" on="1"/>
        <pt x="226" y="-9" on="0"/>
        <pt x="145" y="20" on="0"/>
        <pt x="87" y="69" on="0"/>
        <pt x="55" y="132" on="0"/>
        <pt x="55" y="166" on="1"/>
        <pt x="55" y="214" on="0"/>
        <pt x="113" y="280" on="0"/>
        <pt x="167" y="280" on="1"/>
        <pt x="177" y="280" on="1"/>
        <pt x="199" y="504" on="1"/>
        <pt x="566" y="504" on="1"/>
        <pt x="558" y="435" on="1"/>
        <pt x="479" y="435" on="1"/>
        <pt x="465" y="280" on="1"/>
        <pt x="635" y="280" on="1"/>
        <pt x="657" y="504" on="1"/>
      </contour>
      <contour>
        <pt x="196" y="227" on="1"/>
        <pt x="167" y="227" on="0"/>
        <pt x="127" y="199" on="0"/>
        <pt x="127" y="162" on="1"/>
        <pt x="127" y="139" on="0"/>
        <pt x="150" y="100" on="0"/>
        <pt x="189" y="71" on="0"/>
        <pt x="243" y="55" on="0"/>
        <pt x="275" y="55" on="1"/>
        <pt x="328" y="55" on="0"/>
        <pt x="381" y="114" on="0"/>
        <pt x="386" y="174" on="1"/>
        <pt x="392" y="227" on="1"/>
      </contour>
      <contour>
        <pt x="242" y="280" on="1"/>
        <pt x="396" y="280" on="1"/>
        <pt x="411" y="435" on="1"/>
        <pt x="256" y="435" on="1"/>
      </contour>
    </TTGlyph>
    <TTGlyph name="greater" xMin="51" yMin="38" xMax="409" yMax="577">
      <contour>
        <pt x="145" y="577" on="1"/>
        <pt x="409" y="345" on="1"/>
        <pt x="402" y="270" on="1"/>
        <pt x="94" y="38" on="1"/>
        <pt x="51" y="103" on="1"/>
        <pt x="329" y="307" on="1"/>
        <pt x="91" y="514" on="1"/>
      </contour>
    </TTGlyph>
    <TTGlyph name="ha.tam" xMin="26" yMin="-321" xMax="1446" yMax="513">
      <contour>
        <pt x="1018" y="513" on="1"/>
        <pt x="1066" y="513" on="0"/>
        <pt x="1115" y="456" on="0"/>
        <pt x="1122" y="411" on="1"/>
        <pt x="1148" y="465" on="0"/>
        <pt x="1223" y="513" on="0"/>
        <pt x="1272" y="513" on="1"/>
        <pt x="1315" y="513" on="0"/>
        <pt x="1382" y="468" on="0"/>
        <pt x="1427" y="387" on="0"/>
        <pt x="1446" y="277" on="0"/>
        <pt x="1440" y="212" on="1"/>
        <pt x="1431" y="121" on="0"/>
        <pt x="1372" y="-20" on="0"/>
        <pt x="1276" y="-116" on="0"/>
        <pt x="1145" y="-166" on="0"/>
        <pt x="1065" y="-166" on="1"/>
        <pt x="147" y="-166" on="1"/>
        <pt x="125" y="-166" on="0"/>
        <pt x="98" y="-188" on="0"/>
        <pt x="96" y="-210" on="1"/>
        <pt x="94" y="-233" on="0"/>
        <pt x="115" y="-271" on="0"/>
        <pt x="132" y="-288" on="1"/>
        <pt x="81" y="-321" on="1"/>
        <pt x="58" y="-298" on="0"/>
        <pt x="26" y="-234" on="0"/>
        <pt x="30" y="-196" on="1"/>
        <pt x="32" y="-176" on="0"/>
        <pt x="47" y="-140" on="0"/>
        <pt x="75" y="-113" on="0"/>
        <pt x="116" y="-97" on="0"/>
        <pt x="144" y="-97" on="1"/>
        <pt x="1049" y="-97" on="1"/>
        <pt x="1073" y="-97" on="0"/>
        <pt x="1119" y="-93" on="0"/>
        <pt x="1140" y="-89" on="1"/>
        <pt x="1195" y="-79" on="0"/>
        <pt x="1275" y="-26" on="0"/>
        <pt x="1331" y="54" on="0"/>
        <pt x="1362" y="154" on="0"/>
        <pt x="1368" y="211" on="1"/>
        <pt x="1372" y="264" on="0"/>
        <pt x="1361" y="350" on="0"/>
        <pt x="1332" y="411" on="0"/>
        <pt x="1290" y="444" on="0"/>
        <pt x="1265" y="444" on="1"/>
        <pt x="1224" y="444" on="0"/>
        <pt x="1172" y="374" on="0"/>
        <pt x="1165" y="306" on="1"/>
        <pt x="1136" y="0" on="1"/>
        <pt x="1068" y="0" on="1"/>
        <pt x="1097" y="305" on="1"/>
        <pt x="1108" y="441" on="0"/>
        <pt x="1021" y="444" on="1"/>
        <pt x="977" y="444" on="0"/>
        <pt x="926" y="374" on="0"/>
        <pt x="920" y="306" on="1"/>
        <pt x="891" y="0" on="1"/>
        <pt x="577" y="0" on="1"/>
        <pt x="525" y="34" on="1"/>
        <pt x="548" y="76" on="0"/>
        <pt x="578" y="172" on="0"/>
        <pt x="583" y="220" on="1"/>
        <pt x="587" y="265" on="0"/>
        <pt x="568" y="346" on="0"/>
        <pt x="522" y="407" on="0"/>
        <pt x="447" y="444" on="0"/>
        <pt x="395" y="444" on="1"/>
        <pt x="348" y="444" on="0"/>
        <pt x="261" y="409" on="0"/>
        <pt x="193" y="346" on="0"/>
        <pt x="148" y="259" on="0"/>
        <pt x="143" y="207" on="1"/>
        <pt x="138" y="146" on="0"/>
        <pt x="179" y="75" on="0"/>
        <pt x="213" y="61" on="1"/>
        <pt x="208" y="85" on="0"/>
        <pt x="207" y="137" on="0"/>
        <pt x="212" y="163" on="1"/>
        <pt x="222" y="204" on="0"/>
        <pt x="270" y="267" on="0"/>
        <pt x="306" y="281" on="1"/>
        <pt x="340" y="295" on="0"/>
        <pt x="374" y="289" on="1"/>
        <pt x="421" y="284" on="0"/>
        <pt x="467" y="211" on="0"/>
        <pt x="462" y="158" on="1"/>
        <pt x="459" y="123" on="0"/>
        <pt x="427" y="62" on="0"/>
        <pt x="375" y="17" on="0"/>
        <pt x="306" y="-9" on="0"/>
        <pt x="267" y="-9" on="1"/>
        <pt x="225" y="-9" on="0"/>
        <pt x="151" y="24" on="0"/>
        <pt x="96" y="83" on="0"/>
        <pt x="67" y="167" on="0"/>
        <pt x="72" y="218" on="1"/>
        <pt x="78" y="284" on="0"/>
        <pt x="135" y="393" on="0"/>
        <pt x="224" y="471" on="0"/>
        <pt x="339" y="513" on="0"/>
        <pt x="403" y="513" on="1"/>
        <pt x="470" y="513" on="0"/>
        <pt x="570" y="466" on="0"/>
        <pt x="634" y="387" on="0"/>
        <pt x="662" y="284" on="0"/>
        <pt x="657" y="229" on="1"/>
        <pt x="652" y="184" on="0"/>
        <pt x="629" y="105" on="0"/>
        <pt x="612" y="69" on="1"/>
        <pt x="828" y="69" on="1"/>
        <pt x="850" y="306" on="1"/>
        <pt x="860" y="410" on="0"/>
        <pt x="947" y="513" on="0"/>
      </contour>
      <contour>
        <pt x="338" y="229" on="1"/>
        <pt x="303" y="229" on="0"/>
        <pt x="257" y="169" on="0"/>
        <pt x="251" y="130" on="1"/>
        <pt x="248" y="110" on="0"/>
        <pt x="248" y="71" on="0"/>
        <pt x="253" y="54" on="1"/>
        <pt x="257" y="52" on="0"/>
        <pt x="268" y="51" on="0"/>
        <pt x="271" y="51" on="1"/>
        <pt x="287" y="51" on="0"/>
        <pt x="327" y="64" on="0"/>
        <pt x="362" y="90" on="0"/>
        <pt x="388" y="131" on="0"/>
        <pt x="390" y="158" on="1"/>
        <pt x="392" y="188" on="0"/>
        <pt x="368" y="229" on="0"/>
      </contour>
    </TTGlyph>
    <TTGlyph name="hansv.tam" xMin="13" yMin="-321" xMax="1433" yMax="815">
      <contour>
        <pt x="1005" y="513" on="1"/>
        <pt x="1053" y="513" on="0"/>
        <pt x="1102" y="456" on="0"/>
        <pt x="1109" y="411" on="1"/>
        <pt x="1135" y="465" on="0"/>
        <pt x="1210" y="513" on="0"/>
        <pt x="1259" y="513" on="1"/>
        <pt x="1302" y="513" on="0"/>
        <pt x="1369" y="468" on="0"/>
        <pt x="1414" y="387" on="0"/>
        <pt x="1433" y="277" on="0"/>
        <pt x="1427" y="212" on="1"/>
        <pt x="1418" y="121" on="0"/>
        <pt x="1359" y="-20" on="0"/>
        <pt x="1263" y="-116" on="0"/>
        <pt x="1132" y="-166" on="0"/>
        <pt x="1052" y="-166" on="1"/>
        <pt x="134" y="-166" on="1"/>
        <pt x="112" y="-166" on="0"/>
        <pt x="85" y="-188" on="0"/>
        <pt x="83" y="-210" on="1"/>
        <pt x="81" y="-233" on="0"/>
        <pt x="102" y="-271" on="0"/>
        <pt x="119" y="-288" on="1"/>
        <pt x="68" y="-321" on="1"/>
        <pt x="45" y="-298" on="0"/>
        <pt x="13" y="-234" on="0"/>
        <pt x="17" y="-196" on="1"/>
        <pt x="19" y="-176" on="0"/>
        <pt x="34" y="-140" on="0"/>
        <pt x="62" y="-113" on="0"/>
        <pt x="103" y="-97" on="0"/>
        <pt x="131" y="-97" on="1"/>
        <pt x="1036" y="-97" on="1"/>
        <pt x="1060" y="-97" on="0"/>
        <pt x="1106" y="-93" on="0"/>
        <pt x="1127" y="-89" on="1"/>
        <pt x="1182" y="-79" on="0"/>
        <pt x="1262" y="-26" on="0"/>
        <pt x="1318" y="54" on="0"/>
        <pt x="1349" y="154" on="0"/>
        <pt x="1355" y="211" on="1"/>
        <pt x="1359" y="264" on="0"/>
        <pt x="1348" y="350" on="0"/>
        <pt x="1319" y="411" on="0"/>
        <pt x="1277" y="444" on="0"/>
        <pt x="1252" y="444" on="1"/>
        <pt x="1211" y="444" on="0"/>
        <pt x="1159" y="374" on="0"/>
        <pt x="1152" y="306" on="1"/>
        <pt x="1123" y="0" on="1"/>
        <pt x="1055" y="0" on="1"/>
        <pt x="1084" y="305" on="1"/>
        <pt x="1095" y="441" on="0"/>
        <pt x="1008" y="444" on="1"/>
        <pt x="964" y="444" on="0"/>
        <pt x="913" y="374" on="0"/>
        <pt x="907" y="306" on="1"/>
        <pt x="878" y="0" on="1"/>
        <pt x="564" y="0" on="1"/>
        <pt x="512" y="34" on="1"/>
        <pt x="535" y="76" on="0"/>
        <pt x="565" y="172" on="0"/>
        <pt x="570" y="220" on="1"/>
        <pt x="574" y="265" on="0"/>
        <pt x="555" y="346" on="0"/>
        <pt x="509" y="407" on="0"/>
        <pt x="434" y="444" on="0"/>
        <pt x="382" y="444" on="1"/>
        <pt x="335" y="444" on="0"/>
        <pt x="248" y="409" on="0"/>
        <pt x="180" y="346" on="0"/>
        <pt x="135" y="259" on="0"/>
        <pt x="130" y="207" on="1"/>
        <pt x="125" y="146" on="0"/>
        <pt x="166" y="75" on="0"/>
        <pt x="200" y="61" on="1"/>
        <pt x="195" y="85" on="0"/>
        <pt x="194" y="137" on="0"/>
        <pt x="199" y="163" on="1"/>
        <pt x="209" y="204" on="0"/>
        <pt x="257" y="267" on="0"/>
        <pt x="293" y="281" on="1"/>
        <pt x="327" y="295" on="0"/>
        <pt x="361" y="289" on="1"/>
        <pt x="408" y="284" on="0"/>
        <pt x="454" y="211" on="0"/>
        <pt x="449" y="158" on="1"/>
        <pt x="446" y="123" on="0"/>
        <pt x="414" y="62" on="0"/>
        <pt x="362" y="17" on="0"/>
        <pt x="293" y="-9" on="0"/>
        <pt x="254" y="-9" on="1"/>
        <pt x="212" y="-9" on="0"/>
        <pt x="138" y="24" on="0"/>
        <pt x="83" y="83" on="0"/>
        <pt x="54" y="167" on="0"/>
        <pt x="59" y="218" on="1"/>
        <pt x="65" y="284" on="0"/>
        <pt x="122" y="393" on="0"/>
        <pt x="211" y="471" on="0"/>
        <pt x="326" y="513" on="0"/>
        <pt x="390" y="513" on="1"/>
        <pt x="457" y="513" on="0"/>
        <pt x="557" y="466" on="0"/>
        <pt x="621" y="387" on="0"/>
        <pt x="649" y="284" on="0"/>
        <pt x="644" y="229" on="1"/>
        <pt x="639" y="184" on="0"/>
        <pt x="616" y="105" on="0"/>
        <pt x="599" y="69" on="1"/>
        <pt x="815" y="69" on="1"/>
        <pt x="837" y="306" on="1"/>
        <pt x="847" y="410" on="0"/>
        <pt x="934" y="513" on="0"/>
      </contour>
      <contour>
        <pt x="325" y="229" on="1"/>
        <pt x="290" y="229" on="0"/>
        <pt x="244" y="169" on="0"/>
        <pt x="238" y="130" on="1"/>
        <pt x="235" y="110" on="0"/>
        <pt x="235" y="71" on="0"/>
        <pt x="240" y="54" on="1"/>
        <pt x="244" y="52" on="0"/>
        <pt x="255" y="51" on="0"/>
        <pt x="258" y="51" on="1"/>
        <pt x="274" y="51" on="0"/>
        <pt x="314" y="64" on="0"/>
        <pt x="349" y="90" on="0"/>
        <pt x="375" y="131" on="0"/>
        <pt x="377" y="158" on="1"/>
        <pt x="379" y="188" on="0"/>
        <pt x="355" y="229" on="0"/>
      </contour>
      <contour>
        <pt x="767" y="815" on="1"/>
        <pt x="813" y="815" on="0"/>
        <pt x="871" y="755" on="0"/>
        <pt x="867" y="702" on="1"/>
        <pt x="865" y="675" on="0"/>
        <pt x="843" y="633" on="0"/>
        <pt x="810" y="603" on="0"/>
        <pt x="768" y="588" on="0"/>
        <pt x="746" y="588" on="1"/>
        <pt x="723" y="588" on="0"/>
        <pt x="686" y="603" on="0"/>
        <pt x="659" y="633" on="0"/>
        <pt x="646" y="675" on="0"/>
        <pt x="648" y="702" on="1"/>
        <pt x="653" y="756" on="0"/>
        <pt x="722" y="815" on="0"/>
      </contour>
      <contour>
        <pt x="762" y="760" on="1"/>
        <pt x="740" y="760" on="0"/>
        <pt x="714" y="728" on="0"/>
        <pt x="711" y="702" on="1"/>
        <pt x="709" y="675" on="0"/>
        <pt x="728" y="644" on="0"/>
        <pt x="751" y="644" on="1"/>
        <pt x="774" y="644" on="0"/>
        <pt x="801" y="675" on="0"/>
        <pt x="804" y="702" on="1"/>
        <pt x="806" y="728" on="0"/>
        <pt x="785" y="760" on="0"/>
      </contour>
    </TTGlyph>
    <TTGlyph name="hi.tam" xMin="26" yMin="-321" xMax="1662" yMax="785">
      <contour>
        <pt x="1018" y="513" on="1"/>
        <pt x="1066" y="513" on="0"/>
        <pt x="1115" y="456" on="0"/>
        <pt x="1122" y="411" on="1"/>
        <pt x="1148" y="465" on="0"/>
        <pt x="1223" y="513" on="0"/>
        <pt x="1272" y="513" on="1"/>
        <pt x="1278" y="513" on="0"/>
        <pt x="1291" y="512" on="0"/>
        <pt x="1297" y="511" on="1"/>
        <pt x="1283" y="532" on="0"/>
        <pt x="1268" y="586" on="0"/>
        <pt x="1271" y="615" on="1"/>
        <pt x="1274" y="654" on="0"/>
        <pt x="1307" y="717" on="0"/>
        <pt x="1360" y="761" on="0"/>
        <pt x="1431" y="785" on="0"/>
        <pt x="1472" y="785" on="1"/>
        <pt x="1516" y="785" on="0"/>
        <pt x="1588" y="750" on="0"/>
        <pt x="1637" y="682" on="0"/>
        <pt x="1662" y="583" on="0"/>
        <pt x="1659" y="519" on="1"/>
        <pt x="1658" y="481" on="0"/>
        <pt x="1653" y="440" on="1"/>
        <pt x="1612" y="0" on="1"/>
        <pt x="1544" y="0" on="1"/>
        <pt x="1589" y="494" on="1"/>
        <pt x="1600" y="601" on="0"/>
        <pt x="1537" y="714" on="0"/>
        <pt x="1470" y="714" on="1"/>
        <pt x="1444" y="714" on="0"/>
        <pt x="1398" y="694" on="0"/>
        <pt x="1363" y="658" on="0"/>
        <pt x="1341" y="610" on="0"/>
        <pt x="1338" y="582" on="1"/>
        <pt x="1335" y="553" on="0"/>
        <pt x="1345" y="505" on="0"/>
        <pt x="1362" y="480" on="1"/>
        <pt x="1406" y="443" on="0"/>
        <pt x="1448" y="303" on="0"/>
        <pt x="1440" y="212" on="1"/>
        <pt x="1431" y="121" on="0"/>
        <pt x="1372" y="-20" on="0"/>
        <pt x="1276" y="-116" on="0"/>
        <pt x="1145" y="-166" on="0"/>
        <pt x="1065" y="-166" on="1"/>
        <pt x="147" y="-166" on="1"/>
        <pt x="125" y="-166" on="0"/>
        <pt x="98" y="-188" on="0"/>
        <pt x="96" y="-210" on="1"/>
        <pt x="94" y="-233" on="0"/>
        <pt x="115" y="-271" on="0"/>
        <pt x="132" y="-288" on="1"/>
        <pt x="81" y="-321" on="1"/>
        <pt x="58" y="-298" on="0"/>
        <pt x="26" y="-234" on="0"/>
        <pt x="30" y="-196" on="1"/>
        <pt x="32" y="-176" on="0"/>
        <pt x="47" y="-140" on="0"/>
        <pt x="75" y="-113" on="0"/>
        <pt x="116" y="-97" on="0"/>
        <pt x="144" y="-97" on="1"/>
        <pt x="1049" y="-97" on="1"/>
        <pt x="1073" y="-97" on="0"/>
        <pt x="1119" y="-93" on="0"/>
        <pt x="1140" y="-89" on="1"/>
        <pt x="1195" y="-79" on="0"/>
        <pt x="1275" y="-26" on="0"/>
        <pt x="1331" y="54" on="0"/>
        <pt x="1362" y="154" on="0"/>
        <pt x="1368" y="211" on="1"/>
        <pt x="1372" y="264" on="0"/>
        <pt x="1361" y="350" on="0"/>
        <pt x="1332" y="411" on="0"/>
        <pt x="1290" y="444" on="0"/>
        <pt x="1265" y="444" on="1"/>
        <pt x="1224" y="444" on="0"/>
        <pt x="1172" y="374" on="0"/>
        <pt x="1165" y="306" on="1"/>
        <pt x="1136" y="0" on="1"/>
        <pt x="1068" y="0" on="1"/>
        <pt x="1097" y="305" on="1"/>
        <pt x="1108" y="441" on="0"/>
        <pt x="1021" y="444" on="1"/>
        <pt x="977" y="444" on="0"/>
        <pt x="926" y="374" on="0"/>
        <pt x="920" y="306" on="1"/>
        <pt x="891" y="0" on="1"/>
        <pt x="577" y="0" on="1"/>
        <pt x="525" y="34" on="1"/>
        <pt x="548" y="76" on="0"/>
        <pt x="578" y="172" on="0"/>
        <pt x="583" y="220" on="1"/>
        <pt x="587" y="265" on="0"/>
        <pt x="568" y="346" on="0"/>
        <pt x="522" y="407" on="0"/>
        <pt x="447" y="444" on="0"/>
        <pt x="395" y="444" on="1"/>
        <pt x="348" y="444" on="0"/>
        <pt x="261" y="409" on="0"/>
        <pt x="193" y="346" on="0"/>
        <pt x="148" y="259" on="0"/>
        <pt x="143" y="207" on="1"/>
        <pt x="138" y="146" on="0"/>
        <pt x="179" y="75" on="0"/>
        <pt x="213" y="61" on="1"/>
        <pt x="208" y="85" on="0"/>
        <pt x="207" y="137" on="0"/>
        <pt x="212" y="163" on="1"/>
        <pt x="222" y="204" on="0"/>
        <pt x="270" y="267" on="0"/>
        <pt x="306" y="281" on="1"/>
        <pt x="321" y="287" on="0"/>
        <pt x="357" y="292" on="0"/>
        <pt x="374" y="289" on="1"/>
        <pt x="421" y="284" on="0"/>
        <pt x="467" y="211" on="0"/>
        <pt x="462" y="158" on="1"/>
        <pt x="459" y="123" on="0"/>
        <pt x="427" y="62" on="0"/>
        <pt x="375" y="17" on="0"/>
        <pt x="306" y="-9" on="0"/>
        <pt x="267" y="-9" on="1"/>
        <pt x="225" y="-9" on="0"/>
        <pt x="151" y="24" on="0"/>
        <pt x="96" y="83" on="0"/>
        <pt x="67" y="167" on="0"/>
        <pt x="72" y="218" on="1"/>
        <pt x="78" y="284" on="0"/>
        <pt x="135" y="393" on="0"/>
        <pt x="224" y="471" on="0"/>
        <pt x="339" y="513" on="0"/>
        <pt x="403" y="513" on="1"/>
        <pt x="470" y="513" on="0"/>
        <pt x="570" y="466" on="0"/>
        <pt x="634" y="387" on="0"/>
        <pt x="662" y="284" on="0"/>
        <pt x="657" y="229" on="1"/>
        <pt x="652" y="184" on="0"/>
        <pt x="629" y="105" on="0"/>
        <pt x="612" y="69" on="1"/>
        <pt x="828" y="69" on="1"/>
        <pt x="850" y="306" on="1"/>
        <pt x="860" y="410" on="0"/>
        <pt x="947" y="513" on="0"/>
      </contour>
      <contour>
        <pt x="338" y="229" on="1"/>
        <pt x="303" y="229" on="0"/>
        <pt x="257" y="169" on="0"/>
        <pt x="251" y="130" on="1"/>
        <pt x="248" y="110" on="0"/>
        <pt x="248" y="71" on="0"/>
        <pt x="253" y="54" on="1"/>
        <pt x="257" y="52" on="0"/>
        <pt x="268" y="51" on="0"/>
        <pt x="271" y="51" on="1"/>
        <pt x="287" y="51" on="0"/>
        <pt x="327" y="64" on="0"/>
        <pt x="362" y="91" on="0"/>
        <pt x="388" y="131" on="0"/>
        <pt x="390" y="158" on="1"/>
        <pt x="392" y="188" on="0"/>
        <pt x="368" y="229" on="0"/>
      </contour>
    </TTGlyph>
    <TTGlyph name="hii.tam" xMin="26" yMin="-321" xMax="1515" yMax="819">
      <contour>
        <pt x="1359" y="819" on="1"/>
        <pt x="1396" y="819" on="0"/>
        <pt x="1455" y="795" on="0"/>
        <pt x="1495" y="756" on="0"/>
        <pt x="1515" y="705" on="0"/>
        <pt x="1512" y="677" on="1"/>
        <pt x="1507" y="626" on="0"/>
        <pt x="1439" y="566" on="0"/>
        <pt x="1388" y="566" on="1"/>
        <pt x="1339" y="566" on="0"/>
        <pt x="1292" y="625" on="0"/>
        <pt x="1296" y="665" on="1"/>
        <pt x="1298" y="692" on="0"/>
        <pt x="1323" y="738" on="0"/>
        <pt x="1342" y="758" on="1"/>
        <pt x="1297" y="752" on="0"/>
        <pt x="1228" y="682" on="0"/>
        <pt x="1223" y="630" on="1"/>
        <pt x="1219" y="589" on="0"/>
        <pt x="1260" y="526" on="0"/>
        <pt x="1303" y="509" on="1"/>
        <pt x="1339" y="501" on="0"/>
        <pt x="1394" y="450" on="0"/>
        <pt x="1430" y="372" on="0"/>
        <pt x="1445" y="270" on="0"/>
        <pt x="1440" y="212" on="1"/>
        <pt x="1431" y="121" on="0"/>
        <pt x="1372" y="-20" on="0"/>
        <pt x="1276" y="-116" on="0"/>
        <pt x="1145" y="-166" on="0"/>
        <pt x="1065" y="-166" on="1"/>
        <pt x="147" y="-166" on="1"/>
        <pt x="125" y="-166" on="0"/>
        <pt x="98" y="-188" on="0"/>
        <pt x="96" y="-210" on="1"/>
        <pt x="94" y="-233" on="0"/>
        <pt x="115" y="-271" on="0"/>
        <pt x="132" y="-288" on="1"/>
        <pt x="81" y="-321" on="1"/>
        <pt x="58" y="-298" on="0"/>
        <pt x="26" y="-234" on="0"/>
        <pt x="30" y="-196" on="1"/>
        <pt x="32" y="-176" on="0"/>
        <pt x="47" y="-140" on="0"/>
        <pt x="75" y="-113" on="0"/>
        <pt x="116" y="-97" on="0"/>
        <pt x="144" y="-97" on="1"/>
        <pt x="1049" y="-97" on="1"/>
        <pt x="1073" y="-97" on="0"/>
        <pt x="1119" y="-93" on="0"/>
        <pt x="1140" y="-89" on="1"/>
        <pt x="1195" y="-79" on="0"/>
        <pt x="1275" y="-26" on="0"/>
        <pt x="1331" y="54" on="0"/>
        <pt x="1362" y="154" on="0"/>
        <pt x="1368" y="211" on="1"/>
        <pt x="1372" y="264" on="0"/>
        <pt x="1361" y="350" on="0"/>
        <pt x="1332" y="411" on="0"/>
        <pt x="1290" y="444" on="0"/>
        <pt x="1265" y="444" on="1"/>
        <pt x="1224" y="444" on="0"/>
        <pt x="1172" y="374" on="0"/>
        <pt x="1165" y="306" on="1"/>
        <pt x="1136" y="0" on="1"/>
        <pt x="1068" y="0" on="1"/>
        <pt x="1097" y="305" on="1"/>
        <pt x="1108" y="441" on="0"/>
        <pt x="1021" y="444" on="1"/>
        <pt x="977" y="444" on="0"/>
        <pt x="926" y="374" on="0"/>
        <pt x="920" y="306" on="1"/>
        <pt x="891" y="0" on="1"/>
        <pt x="577" y="0" on="1"/>
        <pt x="525" y="34" on="1"/>
        <pt x="548" y="76" on="0"/>
        <pt x="578" y="172" on="0"/>
        <pt x="583" y="220" on="1"/>
        <pt x="587" y="265" on="0"/>
        <pt x="568" y="346" on="0"/>
        <pt x="522" y="407" on="0"/>
        <pt x="447" y="444" on="0"/>
        <pt x="395" y="444" on="1"/>
        <pt x="348" y="444" on="0"/>
        <pt x="261" y="409" on="0"/>
        <pt x="193" y="346" on="0"/>
        <pt x="148" y="259" on="0"/>
        <pt x="143" y="207" on="1"/>
        <pt x="138" y="146" on="0"/>
        <pt x="179" y="75" on="0"/>
        <pt x="213" y="61" on="1"/>
        <pt x="208" y="85" on="0"/>
        <pt x="207" y="137" on="0"/>
        <pt x="212" y="163" on="1"/>
        <pt x="222" y="204" on="0"/>
        <pt x="270" y="267" on="0"/>
        <pt x="306" y="281" on="1"/>
        <pt x="340" y="295" on="0"/>
        <pt x="374" y="289" on="1"/>
        <pt x="421" y="284" on="0"/>
        <pt x="467" y="211" on="0"/>
        <pt x="462" y="158" on="1"/>
        <pt x="459" y="123" on="0"/>
        <pt x="427" y="62" on="0"/>
        <pt x="375" y="17" on="0"/>
        <pt x="306" y="-9" on="0"/>
        <pt x="267" y="-9" on="1"/>
        <pt x="225" y="-9" on="0"/>
        <pt x="151" y="24" on="0"/>
        <pt x="96" y="83" on="0"/>
        <pt x="67" y="167" on="0"/>
        <pt x="72" y="218" on="1"/>
        <pt x="78" y="284" on="0"/>
        <pt x="135" y="393" on="0"/>
        <pt x="224" y="471" on="0"/>
        <pt x="339" y="513" on="0"/>
        <pt x="403" y="513" on="1"/>
        <pt x="470" y="513" on="0"/>
        <pt x="570" y="466" on="0"/>
        <pt x="634" y="387" on="0"/>
        <pt x="662" y="284" on="0"/>
        <pt x="657" y="229" on="1"/>
        <pt x="652" y="184" on="0"/>
        <pt x="629" y="105" on="0"/>
        <pt x="612" y="69" on="1"/>
        <pt x="828" y="69" on="1"/>
        <pt x="850" y="306" on="1"/>
        <pt x="860" y="410" on="0"/>
        <pt x="947" y="513" on="0"/>
        <pt x="1018" y="513" on="1"/>
        <pt x="1066" y="513" on="0"/>
        <pt x="1115" y="456" on="0"/>
        <pt x="1122" y="411" on="1"/>
        <pt x="1141" y="451" on="0"/>
        <pt x="1191" y="497" on="0"/>
        <pt x="1223" y="506" on="1"/>
        <pt x="1189" y="530" on="0"/>
        <pt x="1156" y="605" on="0"/>
        <pt x="1161" y="648" on="1"/>
        <pt x="1164" y="684" on="0"/>
        <pt x="1198" y="746" on="0"/>
        <pt x="1250" y="792" on="0"/>
        <pt x="1320" y="819" on="0"/>
      </contour>
      <contour>
        <pt x="338" y="229" on="1"/>
        <pt x="303" y="229" on="0"/>
        <pt x="257" y="169" on="0"/>
        <pt x="251" y="130" on="1"/>
        <pt x="248" y="110" on="0"/>
        <pt x="248" y="71" on="0"/>
        <pt x="253" y="54" on="1"/>
        <pt x="257" y="52" on="0"/>
        <pt x="268" y="51" on="0"/>
        <pt x="271" y="51" on="1"/>
        <pt x="287" y="51" on="0"/>
        <pt x="327" y="64" on="0"/>
        <pt x="362" y="90" on="0"/>
        <pt x="388" y="131" on="0"/>
        <pt x="390" y="158" on="1"/>
        <pt x="392" y="188" on="0"/>
        <pt x="368" y="229" on="0"/>
      </contour>
      <contour>
        <pt x="1377" y="759" on="1"/>
        <pt x="1363" y="740" on="0"/>
        <pt x="1344" y="700" on="0"/>
        <pt x="1342" y="680" on="1"/>
        <pt x="1340" y="654" on="0"/>
        <pt x="1364" y="621" on="0"/>
        <pt x="1387" y="621" on="1"/>
        <pt x="1411" y="621" on="0"/>
        <pt x="1444" y="656" on="0"/>
        <pt x="1446" y="680" on="1"/>
        <pt x="1448" y="711" on="0"/>
        <pt x="1409" y="753" on="0"/>
      </contour>
    </TTGlyph>
    <TTGlyph name="hu.tam" xMin="13" yMin="-321" xMax="1821" yMax="513">
      <contour>
        <pt x="1005" y="513" on="1"/>
        <pt x="1053" y="513" on="0"/>
        <pt x="1102" y="456" on="0"/>
        <pt x="1109" y="411" on="1"/>
        <pt x="1135" y="465" on="0"/>
        <pt x="1210" y="513" on="0"/>
        <pt x="1259" y="513" on="1"/>
        <pt x="1272" y="513" on="0"/>
        <pt x="1296" y="508" on="0"/>
        <pt x="1308" y="504" on="1"/>
        <pt x="1672" y="504" on="1"/>
        <pt x="1707" y="504" on="0"/>
        <pt x="1764" y="485" on="0"/>
        <pt x="1803" y="449" on="0"/>
        <pt x="1821" y="396" on="0"/>
        <pt x="1818" y="362" on="1"/>
        <pt x="1815" y="331" on="0"/>
        <pt x="1791" y="277" on="0"/>
        <pt x="1752" y="236" on="0"/>
        <pt x="1699" y="213" on="0"/>
        <pt x="1667" y="213" on="1"/>
        <pt x="1634" y="213" on="0"/>
        <pt x="1586" y="239" on="0"/>
        <pt x="1556" y="283" on="0"/>
        <pt x="1544" y="340" on="0"/>
        <pt x="1547" y="371" on="1"/>
        <pt x="1554" y="442" on="1"/>
        <pt x="1383" y="442" on="1"/>
        <pt x="1410" y="401" on="0"/>
        <pt x="1434" y="283" on="0"/>
        <pt x="1427" y="212" on="1"/>
        <pt x="1418" y="121" on="0"/>
        <pt x="1359" y="-20" on="0"/>
        <pt x="1263" y="-116" on="0"/>
        <pt x="1132" y="-166" on="0"/>
        <pt x="1052" y="-166" on="1"/>
        <pt x="134" y="-166" on="1"/>
        <pt x="112" y="-166" on="0"/>
        <pt x="85" y="-188" on="0"/>
        <pt x="83" y="-210" on="1"/>
        <pt x="81" y="-233" on="0"/>
        <pt x="102" y="-271" on="0"/>
        <pt x="119" y="-288" on="1"/>
        <pt x="68" y="-321" on="1"/>
        <pt x="45" y="-298" on="0"/>
        <pt x="13" y="-234" on="0"/>
        <pt x="17" y="-196" on="1"/>
        <pt x="19" y="-176" on="0"/>
        <pt x="34" y="-140" on="0"/>
        <pt x="62" y="-113" on="0"/>
        <pt x="103" y="-97" on="0"/>
        <pt x="131" y="-97" on="1"/>
        <pt x="1036" y="-97" on="1"/>
        <pt x="1060" y="-97" on="0"/>
        <pt x="1106" y="-93" on="0"/>
        <pt x="1127" y="-89" on="1"/>
        <pt x="1182" y="-79" on="0"/>
        <pt x="1262" y="-26" on="0"/>
        <pt x="1318" y="54" on="0"/>
        <pt x="1349" y="154" on="0"/>
        <pt x="1355" y="211" on="1"/>
        <pt x="1359" y="264" on="0"/>
        <pt x="1348" y="350" on="0"/>
        <pt x="1319" y="411" on="0"/>
        <pt x="1277" y="444" on="0"/>
        <pt x="1252" y="444" on="1"/>
        <pt x="1211" y="444" on="0"/>
        <pt x="1159" y="374" on="0"/>
        <pt x="1152" y="306" on="1"/>
        <pt x="1123" y="0" on="1"/>
        <pt x="1055" y="0" on="1"/>
        <pt x="1084" y="305" on="1"/>
        <pt x="1095" y="441" on="0"/>
        <pt x="1008" y="444" on="1"/>
        <pt x="964" y="444" on="0"/>
        <pt x="913" y="374" on="0"/>
        <pt x="907" y="306" on="1"/>
        <pt x="878" y="0" on="1"/>
        <pt x="564" y="0" on="1"/>
        <pt x="512" y="34" on="1"/>
        <pt x="535" y="76" on="0"/>
        <pt x="565" y="172" on="0"/>
        <pt x="570" y="220" on="1"/>
        <pt x="574" y="265" on="0"/>
        <pt x="555" y="346" on="0"/>
        <pt x="509" y="407" on="0"/>
        <pt x="434" y="444" on="0"/>
        <pt x="382" y="444" on="1"/>
        <pt x="335" y="444" on="0"/>
        <pt x="248" y="409" on="0"/>
        <pt x="180" y="346" on="0"/>
        <pt x="135" y="259" on="0"/>
        <pt x="130" y="207" on="1"/>
        <pt x="125" y="146" on="0"/>
        <pt x="166" y="75" on="0"/>
        <pt x="200" y="61" on="1"/>
        <pt x="195" y="85" on="0"/>
        <pt x="194" y="137" on="0"/>
        <pt x="199" y="163" on="1"/>
        <pt x="209" y="204" on="0"/>
        <pt x="257" y="267" on="0"/>
        <pt x="293" y="281" on="1"/>
        <pt x="308" y="287" on="0"/>
        <pt x="344" y="292" on="0"/>
        <pt x="361" y="289" on="1"/>
        <pt x="408" y="284" on="0"/>
        <pt x="454" y="211" on="0"/>
        <pt x="449" y="158" on="1"/>
        <pt x="446" y="123" on="0"/>
        <pt x="414" y="62" on="0"/>
        <pt x="362" y="17" on="0"/>
        <pt x="293" y="-9" on="0"/>
        <pt x="254" y="-9" on="1"/>
        <pt x="212" y="-9" on="0"/>
        <pt x="138" y="24" on="0"/>
        <pt x="83" y="83" on="0"/>
        <pt x="54" y="167" on="0"/>
        <pt x="59" y="218" on="1"/>
        <pt x="65" y="284" on="0"/>
        <pt x="122" y="393" on="0"/>
        <pt x="211" y="471" on="0"/>
        <pt x="326" y="513" on="0"/>
        <pt x="390" y="513" on="1"/>
        <pt x="457" y="513" on="0"/>
        <pt x="557" y="466" on="0"/>
        <pt x="621" y="387" on="0"/>
        <pt x="649" y="284" on="0"/>
        <pt x="644" y="229" on="1"/>
        <pt x="639" y="184" on="0"/>
        <pt x="616" y="105" on="0"/>
        <pt x="599" y="69" on="1"/>
        <pt x="815" y="69" on="1"/>
        <pt x="837" y="306" on="1"/>
        <pt x="847" y="410" on="0"/>
        <pt x="934" y="513" on="0"/>
      </contour>
      <contour>
        <pt x="1617" y="442" on="1"/>
        <pt x="1610" y="365" on="1"/>
        <pt x="1606" y="323" on="0"/>
        <pt x="1636" y="274" on="0"/>
        <pt x="1668" y="274" on="1"/>
        <pt x="1699" y="274" on="0"/>
        <pt x="1745" y="324" on="0"/>
        <pt x="1748" y="362" on="1"/>
        <pt x="1756" y="442" on="0"/>
        <pt x="1666" y="442" on="1"/>
      </contour>
      <contour>
        <pt x="325" y="229" on="1"/>
        <pt x="290" y="229" on="0"/>
        <pt x="244" y="169" on="0"/>
        <pt x="238" y="130" on="1"/>
        <pt x="235" y="110" on="0"/>
        <pt x="235" y="71" on="0"/>
        <pt x="240" y="54" on="1"/>
        <pt x="244" y="52" on="0"/>
        <pt x="255" y="51" on="0"/>
        <pt x="258" y="51" on="1"/>
        <pt x="274" y="51" on="0"/>
        <pt x="314" y="64" on="0"/>
        <pt x="349" y="91" on="0"/>
        <pt x="375" y="131" on="0"/>
        <pt x="377" y="158" on="1"/>
        <pt x="379" y="188" on="0"/>
        <pt x="355" y="229" on="0"/>
      </contour>
    </TTGlyph>
    <TTGlyph name="hundredtamil" xMin="82" yMin="0" xMax="829" yMax="513">
      <contour>
        <pt x="829" y="504" on="1"/>
        <pt x="823" y="435" on="1"/>
        <pt x="719" y="435" on="1"/>
        <pt x="679" y="0" on="1"/>
        <pt x="610" y="0" on="1"/>
        <pt x="651" y="435" on="1"/>
        <pt x="465" y="435" on="1"/>
        <pt x="425" y="0" on="1"/>
        <pt x="356" y="0" on="1"/>
        <pt x="383" y="289" on="1"/>
        <pt x="390" y="369" on="0"/>
        <pt x="333" y="444" on="0"/>
        <pt x="290" y="444" on="1"/>
        <pt x="247" y="444" on="0"/>
        <pt x="186" y="382" on="0"/>
        <pt x="180" y="317" on="1"/>
        <pt x="150" y="0" on="1"/>
        <pt x="82" y="0" on="1"/>
        <pt x="113" y="335" on="1"/>
        <pt x="121" y="423" on="0"/>
        <pt x="212" y="513" on="0"/>
        <pt x="277" y="513" on="1"/>
        <pt x="322" y="513" on="0"/>
        <pt x="381" y="461" on="0"/>
        <pt x="395" y="413" on="1"/>
        <pt x="404" y="504" on="1"/>
      </contour>
    </TTGlyph>
    <TTGlyph name="huu.tam" xMin="13" yMin="-321" xMax="2102" yMax="660">
      <contour>
        <pt x="1005" y="513" on="1"/>
        <pt x="1053" y="513" on="0"/>
        <pt x="1102" y="456" on="0"/>
        <pt x="1109" y="411" on="1"/>
        <pt x="1135" y="465" on="0"/>
        <pt x="1210" y="513" on="0"/>
        <pt x="1259" y="513" on="1"/>
        <pt x="1272" y="513" on="0"/>
        <pt x="1296" y="508" on="0"/>
        <pt x="1308" y="504" on="1"/>
        <pt x="1674" y="504" on="1"/>
        <pt x="1697" y="576" on="0"/>
        <pt x="1808" y="660" on="0"/>
        <pt x="1881" y="660" on="1"/>
        <pt x="1931" y="660" on="0"/>
        <pt x="2016" y="618" on="0"/>
        <pt x="2074" y="540" on="0"/>
        <pt x="2102" y="431" on="0"/>
        <pt x="2096" y="364" on="1"/>
        <pt x="2090" y="293" on="0"/>
        <pt x="2041" y="172" on="0"/>
        <pt x="1960" y="82" on="0"/>
        <pt x="1845" y="31" on="0"/>
        <pt x="1773" y="31" on="1"/>
        <pt x="1677" y="31" on="0"/>
        <pt x="1533" y="138" on="0"/>
        <pt x="1500" y="244" on="1"/>
        <pt x="1549" y="281" on="1"/>
        <pt x="1580" y="182" on="0"/>
        <pt x="1695" y="100" on="0"/>
        <pt x="1776" y="100" on="1"/>
        <pt x="1831" y="100" on="0"/>
        <pt x="1918" y="138" on="0"/>
        <pt x="1982" y="208" on="0"/>
        <pt x="2020" y="305" on="0"/>
        <pt x="2026" y="364" on="1"/>
        <pt x="2032" y="418" on="0"/>
        <pt x="2013" y="503" on="0"/>
        <pt x="1971" y="561" on="0"/>
        <pt x="1911" y="592" on="0"/>
        <pt x="1875" y="592" on="1"/>
        <pt x="1830" y="592" on="0"/>
        <pt x="1757" y="545" on="0"/>
        <pt x="1734" y="504" on="1"/>
        <pt x="1782" y="504" on="1"/>
        <pt x="1853" y="504" on="0"/>
        <pt x="1934" y="430" on="0"/>
        <pt x="1928" y="362" on="1"/>
        <pt x="1925" y="331" on="0"/>
        <pt x="1901" y="277" on="0"/>
        <pt x="1862" y="236" on="0"/>
        <pt x="1809" y="213" on="0"/>
        <pt x="1777" y="213" on="1"/>
        <pt x="1744" y="213" on="0"/>
        <pt x="1695" y="239" on="0"/>
        <pt x="1665" y="283" on="0"/>
        <pt x="1653" y="340" on="0"/>
        <pt x="1656" y="371" on="1"/>
        <pt x="1663" y="442" on="1"/>
        <pt x="1383" y="442" on="1"/>
        <pt x="1410" y="401" on="0"/>
        <pt x="1434" y="283" on="0"/>
        <pt x="1427" y="212" on="1"/>
        <pt x="1418" y="121" on="0"/>
        <pt x="1359" y="-20" on="0"/>
        <pt x="1263" y="-116" on="0"/>
        <pt x="1132" y="-166" on="0"/>
        <pt x="1052" y="-166" on="1"/>
        <pt x="134" y="-166" on="1"/>
        <pt x="112" y="-166" on="0"/>
        <pt x="85" y="-188" on="0"/>
        <pt x="83" y="-210" on="1"/>
        <pt x="81" y="-233" on="0"/>
        <pt x="102" y="-271" on="0"/>
        <pt x="119" y="-288" on="1"/>
        <pt x="68" y="-321" on="1"/>
        <pt x="45" y="-298" on="0"/>
        <pt x="13" y="-234" on="0"/>
        <pt x="17" y="-196" on="1"/>
        <pt x="19" y="-176" on="0"/>
        <pt x="34" y="-140" on="0"/>
        <pt x="62" y="-113" on="0"/>
        <pt x="103" y="-97" on="0"/>
        <pt x="131" y="-97" on="1"/>
        <pt x="1036" y="-97" on="1"/>
        <pt x="1060" y="-97" on="0"/>
        <pt x="1106" y="-93" on="0"/>
        <pt x="1127" y="-89" on="1"/>
        <pt x="1182" y="-79" on="0"/>
        <pt x="1262" y="-26" on="0"/>
        <pt x="1318" y="54" on="0"/>
        <pt x="1349" y="154" on="0"/>
        <pt x="1355" y="211" on="1"/>
        <pt x="1359" y="264" on="0"/>
        <pt x="1348" y="350" on="0"/>
        <pt x="1319" y="411" on="0"/>
        <pt x="1277" y="444" on="0"/>
        <pt x="1252" y="444" on="1"/>
        <pt x="1211" y="444" on="0"/>
        <pt x="1159" y="374" on="0"/>
        <pt x="1152" y="306" on="1"/>
        <pt x="1123" y="0" on="1"/>
        <pt x="1055" y="0" on="1"/>
        <pt x="1084" y="305" on="1"/>
        <pt x="1095" y="441" on="0"/>
        <pt x="1008" y="444" on="1"/>
        <pt x="964" y="444" on="0"/>
        <pt x="913" y="374" on="0"/>
        <pt x="907" y="306" on="1"/>
        <pt x="878" y="0" on="1"/>
        <pt x="564" y="0" on="1"/>
        <pt x="512" y="34" on="1"/>
        <pt x="535" y="76" on="0"/>
        <pt x="565" y="172" on="0"/>
        <pt x="570" y="220" on="1"/>
        <pt x="574" y="265" on="0"/>
        <pt x="555" y="346" on="0"/>
        <pt x="509" y="407" on="0"/>
        <pt x="434" y="444" on="0"/>
        <pt x="382" y="444" on="1"/>
        <pt x="335" y="444" on="0"/>
        <pt x="248" y="409" on="0"/>
        <pt x="180" y="346" on="0"/>
        <pt x="135" y="259" on="0"/>
        <pt x="130" y="207" on="1"/>
        <pt x="125" y="146" on="0"/>
        <pt x="166" y="75" on="0"/>
        <pt x="200" y="61" on="1"/>
        <pt x="195" y="85" on="0"/>
        <pt x="194" y="137" on="0"/>
        <pt x="199" y="163" on="1"/>
        <pt x="209" y="204" on="0"/>
        <pt x="257" y="267" on="0"/>
        <pt x="293" y="281" on="1"/>
        <pt x="308" y="287" on="0"/>
        <pt x="344" y="292" on="0"/>
        <pt x="361" y="289" on="1"/>
        <pt x="408" y="284" on="0"/>
        <pt x="454" y="211" on="0"/>
        <pt x="449" y="158" on="1"/>
        <pt x="446" y="123" on="0"/>
        <pt x="414" y="62" on="0"/>
        <pt x="362" y="17" on="0"/>
        <pt x="293" y="-9" on="0"/>
        <pt x="254" y="-9" on="1"/>
        <pt x="212" y="-9" on="0"/>
        <pt x="138" y="24" on="0"/>
        <pt x="83" y="83" on="0"/>
        <pt x="54" y="167" on="0"/>
        <pt x="59" y="218" on="1"/>
        <pt x="65" y="284" on="0"/>
        <pt x="122" y="393" on="0"/>
        <pt x="211" y="471" on="0"/>
        <pt x="326" y="513" on="0"/>
        <pt x="390" y="513" on="1"/>
        <pt x="457" y="513" on="0"/>
        <pt x="557" y="466" on="0"/>
        <pt x="621" y="387" on="0"/>
        <pt x="649" y="284" on="0"/>
        <pt x="644" y="229" on="1"/>
        <pt x="639" y="184" on="0"/>
        <pt x="616" y="105" on="0"/>
        <pt x="599" y="69" on="1"/>
        <pt x="815" y="69" on="1"/>
        <pt x="837" y="306" on="1"/>
        <pt x="847" y="410" on="0"/>
        <pt x="934" y="513" on="0"/>
      </contour>
      <contour>
        <pt x="1719" y="365" on="1"/>
        <pt x="1715" y="320" on="0"/>
        <pt x="1747" y="274" on="0"/>
        <pt x="1779" y="274" on="1"/>
        <pt x="1808" y="274" on="0"/>
        <pt x="1853" y="324" on="0"/>
        <pt x="1858" y="362" on="1"/>
        <pt x="1864" y="442" on="0"/>
        <pt x="1775" y="442" on="1"/>
        <pt x="1727" y="442" on="1"/>
      </contour>
      <contour>
        <pt x="325" y="229" on="1"/>
        <pt x="290" y="229" on="0"/>
        <pt x="244" y="169" on="0"/>
        <pt x="238" y="130" on="1"/>
        <pt x="235" y="110" on="0"/>
        <pt x="235" y="71" on="0"/>
        <pt x="240" y="54" on="1"/>
        <pt x="244" y="52" on="0"/>
        <pt x="255" y="51" on="0"/>
        <pt x="258" y="51" on="1"/>
        <pt x="274" y="51" on="0"/>
        <pt x="314" y="64" on="0"/>
        <pt x="349" y="91" on="0"/>
        <pt x="375" y="131" on="0"/>
        <pt x="377" y="158" on="1"/>
        <pt x="379" y="188" on="0"/>
        <pt x="355" y="229" on="0"/>
      </contour>
    </TTGlyph>
    <TTGlyph name="hvir.tam" xMin="26" yMin="-321" xMax="1446" yMax="737">
      <contour>
        <pt x="1018" y="513" on="1"/>
        <pt x="1066" y="513" on="0"/>
        <pt x="1115" y="456" on="0"/>
        <pt x="1122" y="411" on="1"/>
        <pt x="1148" y="465" on="0"/>
        <pt x="1223" y="513" on="0"/>
        <pt x="1272" y="513" on="1"/>
        <pt x="1315" y="513" on="0"/>
        <pt x="1382" y="468" on="0"/>
        <pt x="1427" y="387" on="0"/>
        <pt x="1446" y="277" on="0"/>
        <pt x="1440" y="212" on="1"/>
        <pt x="1431" y="121" on="0"/>
        <pt x="1372" y="-20" on="0"/>
        <pt x="1276" y="-116" on="0"/>
        <pt x="1145" y="-166" on="0"/>
        <pt x="1065" y="-166" on="1"/>
        <pt x="147" y="-166" on="1"/>
        <pt x="125" y="-166" on="0"/>
        <pt x="98" y="-188" on="0"/>
        <pt x="96" y="-210" on="1"/>
        <pt x="94" y="-233" on="0"/>
        <pt x="115" y="-271" on="0"/>
        <pt x="132" y="-288" on="1"/>
        <pt x="81" y="-321" on="1"/>
        <pt x="58" y="-298" on="0"/>
        <pt x="26" y="-234" on="0"/>
        <pt x="30" y="-196" on="1"/>
        <pt x="32" y="-176" on="0"/>
        <pt x="47" y="-140" on="0"/>
        <pt x="75" y="-113" on="0"/>
        <pt x="116" y="-97" on="0"/>
        <pt x="144" y="-97" on="1"/>
        <pt x="1049" y="-97" on="1"/>
        <pt x="1073" y="-97" on="0"/>
        <pt x="1119" y="-93" on="0"/>
        <pt x="1140" y="-89" on="1"/>
        <pt x="1195" y="-79" on="0"/>
        <pt x="1275" y="-26" on="0"/>
        <pt x="1331" y="54" on="0"/>
        <pt x="1362" y="154" on="0"/>
        <pt x="1368" y="211" on="1"/>
        <pt x="1372" y="264" on="0"/>
        <pt x="1361" y="350" on="0"/>
        <pt x="1332" y="411" on="0"/>
        <pt x="1290" y="444" on="0"/>
        <pt x="1265" y="444" on="1"/>
        <pt x="1224" y="444" on="0"/>
        <pt x="1172" y="374" on="0"/>
        <pt x="1165" y="306" on="1"/>
        <pt x="1136" y="0" on="1"/>
        <pt x="1068" y="0" on="1"/>
        <pt x="1097" y="305" on="1"/>
        <pt x="1108" y="441" on="0"/>
        <pt x="1021" y="444" on="1"/>
        <pt x="977" y="444" on="0"/>
        <pt x="926" y="374" on="0"/>
        <pt x="920" y="306" on="1"/>
        <pt x="891" y="0" on="1"/>
        <pt x="577" y="0" on="1"/>
        <pt x="525" y="34" on="1"/>
        <pt x="548" y="76" on="0"/>
        <pt x="578" y="172" on="0"/>
        <pt x="583" y="220" on="1"/>
        <pt x="587" y="265" on="0"/>
        <pt x="568" y="346" on="0"/>
        <pt x="522" y="407" on="0"/>
        <pt x="447" y="444" on="0"/>
        <pt x="395" y="444" on="1"/>
        <pt x="348" y="444" on="0"/>
        <pt x="261" y="409" on="0"/>
        <pt x="193" y="346" on="0"/>
        <pt x="148" y="259" on="0"/>
        <pt x="143" y="207" on="1"/>
        <pt x="138" y="146" on="0"/>
        <pt x="179" y="75" on="0"/>
        <pt x="213" y="61" on="1"/>
        <pt x="208" y="85" on="0"/>
        <pt x="207" y="137" on="0"/>
        <pt x="212" y="163" on="1"/>
        <pt x="222" y="204" on="0"/>
        <pt x="270" y="267" on="0"/>
        <pt x="306" y="281" on="1"/>
        <pt x="340" y="295" on="0"/>
        <pt x="374" y="289" on="1"/>
        <pt x="421" y="284" on="0"/>
        <pt x="467" y="211" on="0"/>
        <pt x="462" y="158" on="1"/>
        <pt x="459" y="123" on="0"/>
        <pt x="427" y="62" on="0"/>
        <pt x="375" y="17" on="0"/>
        <pt x="306" y="-9" on="0"/>
        <pt x="267" y="-9" on="1"/>
        <pt x="225" y="-9" on="0"/>
        <pt x="151" y="24" on="0"/>
        <pt x="96" y="83" on="0"/>
        <pt x="67" y="167" on="0"/>
        <pt x="72" y="218" on="1"/>
        <pt x="78" y="284" on="0"/>
        <pt x="135" y="393" on="0"/>
        <pt x="224" y="471" on="0"/>
        <pt x="339" y="513" on="0"/>
        <pt x="403" y="513" on="1"/>
        <pt x="470" y="513" on="0"/>
        <pt x="570" y="466" on="0"/>
        <pt x="634" y="387" on="0"/>
        <pt x="662" y="284" on="0"/>
        <pt x="657" y="229" on="1"/>
        <pt x="652" y="184" on="0"/>
        <pt x="629" y="105" on="0"/>
        <pt x="612" y="69" on="1"/>
        <pt x="828" y="69" on="1"/>
        <pt x="850" y="306" on="1"/>
        <pt x="860" y="410" on="0"/>
        <pt x="947" y="513" on="0"/>
      </contour>
      <contour>
        <pt x="338" y="229" on="1"/>
        <pt x="303" y="229" on="0"/>
        <pt x="257" y="169" on="0"/>
        <pt x="251" y="130" on="1"/>
        <pt x="248" y="110" on="0"/>
        <pt x="248" y="71" on="0"/>
        <pt x="253" y="54" on="1"/>
        <pt x="257" y="52" on="0"/>
        <pt x="268" y="51" on="0"/>
        <pt x="271" y="51" on="1"/>
        <pt x="287" y="51" on="0"/>
        <pt x="327" y="64" on="0"/>
        <pt x="362" y="90" on="0"/>
        <pt x="388" y="131" on="0"/>
        <pt x="390" y="158" on="1"/>
        <pt x="392" y="188" on="0"/>
        <pt x="368" y="229" on="0"/>
      </contour>
      <contour>
        <pt x="756" y="684" on="1"/>
        <pt x="759" y="707" on="0"/>
        <pt x="789" y="737" on="0"/>
        <pt x="807" y="737" on="1"/>
        <pt x="827" y="737" on="0"/>
        <pt x="852" y="707" on="0"/>
        <pt x="850" y="684" on="1"/>
        <pt x="848" y="664" on="0"/>
        <pt x="818" y="634" on="0"/>
        <pt x="798" y="634" on="1"/>
        <pt x="779" y="634" on="0"/>
        <pt x="754" y="664" on="0"/>
      </contour>
    </TTGlyph>
    <TTGlyph name="hyphen" xMin="75" yMin="271" xMax="324" yMax="340">
      <contour>
        <pt x="324" y="340" on="1"/>
        <pt x="318" y="271" on="1"/>
        <pt x="75" y="271" on="1"/>
        <pt x="81" y="340" on="1"/>
      </contour>
    </TTGlyph>
    <TTGlyph name="i.tam" xMin="29" yMin="-251" xMax="878" yMax="730">
      <contour>
        <pt x="536" y="730" on="1"/>
        <pt x="627" y="730" on="0"/>
        <pt x="761" y="656" on="0"/>
        <pt x="845" y="530" on="0"/>
        <pt x="878" y="362" on="0"/>
        <pt x="869" y="268" on="1"/>
        <pt x="857" y="132" on="1"/>
        <pt x="798" y="132" on="1"/>
        <pt x="810" y="262" on="1"/>
        <pt x="818" y="349" on="0"/>
        <pt x="792" y="495" on="0"/>
        <pt x="723" y="601" on="0"/>
        <pt x="609" y="661" on="0"/>
        <pt x="530" y="661" on="1"/>
        <pt x="453" y="661" on="0"/>
        <pt x="326" y="609" on="0"/>
        <pt x="232" y="516" on="0"/>
        <pt x="174" y="390" on="0"/>
        <pt x="167" y="316" on="1"/>
        <pt x="160" y="247" on="0"/>
        <pt x="191" y="131" on="0"/>
        <pt x="221" y="79" on="1"/>
        <pt x="268" y="99" on="0"/>
        <pt x="386" y="122" on="0"/>
        <pt x="447" y="122" on="1"/>
        <pt x="490" y="122" on="0"/>
        <pt x="565" y="111" on="0"/>
        <pt x="600" y="100" on="1"/>
        <pt x="628" y="162" on="0"/>
        <pt x="634" y="227" on="1"/>
        <pt x="638" y="267" on="0"/>
        <pt x="625" y="341" on="0"/>
        <pt x="597" y="402" on="0"/>
        <pt x="553" y="446" on="0"/>
        <pt x="525" y="455" on="1"/>
        <pt x="533" y="432" on="0"/>
        <pt x="542" y="377" on="0"/>
        <pt x="540" y="351" on="1"/>
        <pt x="537" y="324" on="0"/>
        <pt x="515" y="274" on="0"/>
        <pt x="481" y="236" on="0"/>
        <pt x="435" y="213" on="0"/>
        <pt x="408" y="213" on="1"/>
        <pt x="383" y="213" on="0"/>
        <pt x="341" y="233" on="0"/>
        <pt x="312" y="268" on="0"/>
        <pt x="298" y="316" on="0"/>
        <pt x="301" y="344" on="1"/>
        <pt x="305" y="384" on="0"/>
        <pt x="342" y="446" on="0"/>
        <pt x="398" y="489" on="0"/>
        <pt x="465" y="511" on="0"/>
        <pt x="499" y="511" on="1"/>
        <pt x="540" y="511" on="0"/>
        <pt x="615" y="472" on="0"/>
        <pt x="670" y="399" on="0"/>
        <pt x="697" y="293" on="0"/>
        <pt x="691" y="227" on="1"/>
        <pt x="688" y="189" on="0"/>
        <pt x="668" y="118" on="0"/>
        <pt x="654" y="84" on="1"/>
        <pt x="697" y="67" on="0"/>
        <pt x="769" y="22" on="0"/>
        <pt x="819" y="-30" on="0"/>
        <pt x="845" y="-90" on="0"/>
        <pt x="842" y="-122" on="1"/>
        <pt x="839" y="-152" on="0"/>
        <pt x="812" y="-199" on="0"/>
        <pt x="769" y="-233" on="0"/>
        <pt x="711" y="-251" on="0"/>
        <pt x="677" y="-251" on="1"/>
        <pt x="612" y="-251" on="0"/>
        <pt x="494" y="-213" on="0"/>
        <pt x="429" y="-176" on="1"/>
        <pt x="375" y="-209" on="0"/>
        <pt x="250" y="-251" on="0"/>
        <pt x="181" y="-251" on="1"/>
        <pt x="143" y="-251" on="0"/>
        <pt x="85" y="-231" on="0"/>
        <pt x="47" y="-195" on="0"/>
        <pt x="29" y="-145" on="0"/>
        <pt x="32" y="-116" on="1"/>
        <pt x="37" y="-65" on="0"/>
        <pt x="108" y="21" on="0"/>
        <pt x="168" y="54" on="1"/>
        <pt x="132" y="115" on="0"/>
        <pt x="97" y="247" on="0"/>
        <pt x="104" y="319" on="1"/>
        <pt x="113" y="413" on="0"/>
        <pt x="186" y="565" on="0"/>
        <pt x="302" y="672" on="0"/>
        <pt x="451" y="730" on="0"/>
      </contour>
      <contour>
        <pt x="775" y="-118" on="1"/>
        <pt x="779" y="-74" on="0"/>
        <pt x="699" y="5" on="0"/>
        <pt x="632" y="34" on="1"/>
        <pt x="600" y="-23" on="0"/>
        <pt x="524" y="-109" on="0"/>
        <pt x="475" y="-144" on="1"/>
        <pt x="523" y="-167" on="0"/>
        <pt x="620" y="-194" on="0"/>
        <pt x="669" y="-194" on="1"/>
        <pt x="716" y="-194" on="0"/>
        <pt x="772" y="-150" on="0"/>
      </contour>
      <contour>
        <pt x="423" y="-114" on="1"/>
        <pt x="472" y="-79" on="0"/>
        <pt x="546" y="0" on="0"/>
        <pt x="576" y="51" on="1"/>
        <pt x="542" y="59" on="0"/>
        <pt x="471" y="67" on="0"/>
        <pt x="433" y="67" on="1"/>
        <pt x="387" y="66" on="0"/>
        <pt x="293" y="50" on="0"/>
        <pt x="254" y="33" on="1"/>
        <pt x="286" y="-11" on="0"/>
        <pt x="375" y="-83" on="0"/>
      </contour>
      <contour>
        <pt x="189" y="-194" on="1"/>
        <pt x="234" y="-194" on="0"/>
        <pt x="333" y="-168" on="0"/>
        <pt x="378" y="-145" on="1"/>
        <pt x="325" y="-113" on="0"/>
        <pt x="232" y="-36" on="0"/>
        <pt x="200" y="8" on="1"/>
        <pt x="154" y="-18" on="0"/>
        <pt x="101" y="-85" on="0"/>
        <pt x="97" y="-120" on="1"/>
        <pt x="94" y="-154" on="0"/>
        <pt x="139" y="-194" on="0"/>
      </contour>
      <contour>
        <pt x="488" y="448" on="1"/>
        <pt x="463" y="446" on="0"/>
        <pt x="418" y="430" on="0"/>
        <pt x="382" y="403" on="0"/>
        <pt x="359" y="366" on="0"/>
        <pt x="357" y="344" on="1"/>
        <pt x="355" y="318" on="0"/>
        <pt x="374" y="282" on="0"/>
        <pt x="391" y="275" on="1"/>
        <pt x="402" y="271" on="0"/>
        <pt x="416" y="271" on="1"/>
        <pt x="454" y="273" on="0"/>
        <pt x="495" y="342" on="0"/>
        <pt x="496" y="396" on="1"/>
        <pt x="496" y="422" on="0"/>
      </contour>
    </TTGlyph>
    <TTGlyph name="ii.tam" xMin="80" yMin="0" xMax="636" yMax="504">
      <contour>
        <pt x="636" y="504" on="1"/>
        <pt x="629" y="435" on="1"/>
        <pt x="472" y="435" on="1"/>
        <pt x="432" y="0" on="1"/>
        <pt x="364" y="0" on="1"/>
        <pt x="404" y="435" on="1"/>
        <pt x="189" y="435" on="1"/>
        <pt x="149" y="0" on="1"/>
        <pt x="80" y="0" on="1"/>
        <pt x="127" y="504" on="1"/>
      </contour>
      <contour>
        <pt x="281" y="273" on="1"/>
        <pt x="301" y="273" on="0"/>
        <pt x="323" y="245" on="0"/>
        <pt x="321" y="224" on="1"/>
        <pt x="319" y="203" on="0"/>
        <pt x="291" y="175" on="0"/>
        <pt x="271" y="175" on="1"/>
        <pt x="251" y="175" on="0"/>
        <pt x="229" y="203" on="0"/>
        <pt x="231" y="224" on="1"/>
        <pt x="234" y="245" on="0"/>
        <pt x="261" y="273" on="0"/>
      </contour>
      <contour>
        <pt x="563" y="273" on="1"/>
        <pt x="583" y="273" on="0"/>
        <pt x="606" y="245" on="0"/>
        <pt x="604" y="224" on="1"/>
        <pt x="603" y="203" on="0"/>
        <pt x="574" y="175" on="0"/>
        <pt x="554" y="175" on="1"/>
        <pt x="535" y="175" on="0"/>
        <pt x="513" y="203" on="0"/>
        <pt x="515" y="224" on="1"/>
        <pt x="517" y="245" on="0"/>
        <pt x="545" y="273" on="0"/>
      </contour>
    </TTGlyph>
    <TTGlyph name="iimatra.alt.tam" xMin="60" yMin="484" xMax="419" yMax="819">
      <contour>
        <pt x="263" y="819" on="1"/>
        <pt x="300" y="819" on="0"/>
        <pt x="359" y="795" on="0"/>
        <pt x="399" y="756" on="0"/>
        <pt x="419" y="705" on="0"/>
        <pt x="416" y="677" on="1"/>
        <pt x="411" y="626" on="0"/>
        <pt x="343" y="566" on="0"/>
        <pt x="292" y="566" on="1"/>
        <pt x="243" y="566" on="0"/>
        <pt x="196" y="625" on="0"/>
        <pt x="200" y="665" on="1"/>
        <pt x="202" y="692" on="0"/>
        <pt x="227" y="738" on="0"/>
        <pt x="246" y="758" on="1"/>
        <pt x="201" y="752" on="0"/>
        <pt x="132" y="682" on="0"/>
        <pt x="127" y="630" on="1"/>
        <pt x="123" y="585" on="0"/>
        <pt x="173" y="518" on="0"/>
        <pt x="224" y="504" on="1"/>
        <pt x="175" y="484" on="1"/>
        <pt x="118" y="500" on="0"/>
        <pt x="60" y="592" on="0"/>
        <pt x="65" y="648" on="1"/>
        <pt x="68" y="684" on="0"/>
        <pt x="102" y="746" on="0"/>
        <pt x="154" y="792" on="0"/>
        <pt x="224" y="819" on="0"/>
      </contour>
      <contour>
        <pt x="281" y="759" on="1"/>
        <pt x="267" y="740" on="0"/>
        <pt x="248" y="700" on="0"/>
        <pt x="246" y="680" on="1"/>
        <pt x="244" y="654" on="0"/>
        <pt x="268" y="621" on="0"/>
        <pt x="291" y="621" on="1"/>
        <pt x="315" y="621" on="0"/>
        <pt x="348" y="656" on="0"/>
        <pt x="350" y="680" on="1"/>
        <pt x="352" y="711" on="0"/>
        <pt x="313" y="753" on="0"/>
      </contour>
    </TTGlyph>
    <TTGlyph name="iimatra.tam" xMin="92" yMin="496" xMax="451" yMax="819">
      <contour>
        <pt x="295" y="819" on="1"/>
        <pt x="332" y="819" on="0"/>
        <pt x="391" y="795" on="0"/>
        <pt x="431" y="756" on="0"/>
        <pt x="451" y="705" on="0"/>
        <pt x="448" y="677" on="1"/>
        <pt x="443" y="626" on="0"/>
        <pt x="375" y="566" on="0"/>
        <pt x="325" y="566" on="1"/>
        <pt x="275" y="566" on="0"/>
        <pt x="228" y="625" on="0"/>
        <pt x="233" y="665" on="1"/>
        <pt x="239" y="717" on="0"/>
        <pt x="280" y="758" on="1"/>
        <pt x="257" y="755" on="0"/>
        <pt x="216" y="734" on="0"/>
        <pt x="184" y="701" on="0"/>
        <pt x="163" y="657" on="0"/>
        <pt x="161" y="630" on="1"/>
        <pt x="152" y="550" on="0"/>
        <pt x="228" y="503" on="1"/>
        <pt x="198" y="496" on="1"/>
        <pt x="147" y="512" on="0"/>
        <pt x="92" y="594" on="0"/>
        <pt x="97" y="648" on="1"/>
        <pt x="100" y="684" on="0"/>
        <pt x="134" y="746" on="0"/>
        <pt x="187" y="793" on="0"/>
        <pt x="256" y="819" on="0"/>
      </contour>
      <contour>
        <pt x="314" y="759" on="1"/>
        <pt x="300" y="740" on="0"/>
        <pt x="281" y="700" on="0"/>
        <pt x="279" y="680" on="1"/>
        <pt x="277" y="654" on="0"/>
        <pt x="300" y="621" on="0"/>
        <pt x="324" y="621" on="1"/>
        <pt x="347" y="621" on="0"/>
        <pt x="380" y="656" on="0"/>
        <pt x="382" y="680" on="1"/>
        <pt x="385" y="711" on="0"/>
        <pt x="346" y="753" on="0"/>
      </contour>
    </TTGlyph>
    <TTGlyph name="imatra.alt.tam" xMin="-214" yMin="0" xMax="162" yMax="785">
      <contour>
        <pt x="-29" y="785" on="1"/>
        <pt x="64" y="785" on="0"/>
        <pt x="162" y="642" on="0"/>
        <pt x="151" y="511" on="1"/>
        <pt x="102" y="0" on="1"/>
        <pt x="34" y="0" on="1"/>
        <pt x="82" y="510" on="1"/>
        <pt x="92" y="607" on="0"/>
        <pt x="33" y="714" on="0"/>
        <pt x="-29" y="714" on="1"/>
        <pt x="-74" y="714" on="0"/>
        <pt x="-138" y="652" on="0"/>
        <pt x="-143" y="603" on="1"/>
        <pt x="-150" y="536" on="0"/>
        <pt x="-103" y="487" on="1"/>
        <pt x="-125" y="487" on="1"/>
        <pt x="-144" y="496" on="0"/>
        <pt x="-178" y="525" on="0"/>
        <pt x="-202" y="563" on="0"/>
        <pt x="-214" y="608" on="0"/>
        <pt x="-211" y="634" on="1"/>
        <pt x="-208" y="665" on="0"/>
        <pt x="-180" y="720" on="0"/>
        <pt x="-134" y="761" on="0"/>
        <pt x="-69" y="785" on="0"/>
      </contour>
    </TTGlyph>
    <TTGlyph name="imatra.alt1.tam" xMin="-174" yMin="0" xMax="208" yMax="785">
      <contour>
        <pt x="22" y="785" on="1"/>
        <pt x="68" y="785" on="0"/>
        <pt x="140" y="747" on="0"/>
        <pt x="188" y="674" on="0"/>
        <pt x="208" y="568" on="0"/>
        <pt x="202" y="501" on="1"/>
        <pt x="154" y="0" on="1"/>
        <pt x="87" y="0" on="1"/>
        <pt x="134" y="501" on="1"/>
        <pt x="145" y="610" on="0"/>
        <pt x="82" y="717" on="0"/>
        <pt x="19" y="717" on="1"/>
        <pt x="-5" y="717" on="0"/>
        <pt x="-47" y="700" on="0"/>
        <pt x="-79" y="670" on="0"/>
        <pt x="-100" y="629" on="0"/>
        <pt x="-102" y="605" on="1"/>
        <pt x="-105" y="567" on="0"/>
        <pt x="-66" y="515" on="0"/>
        <pt x="-31" y="504" on="1"/>
        <pt x="-62" y="468" on="1"/>
        <pt x="-86" y="472" on="0"/>
        <pt x="-128" y="497" on="0"/>
        <pt x="-158" y="536" on="0"/>
        <pt x="-174" y="587" on="0"/>
        <pt x="-171" y="618" on="1"/>
        <pt x="-168" y="653" on="0"/>
        <pt x="-137" y="714" on="0"/>
        <pt x="-87" y="759" on="0"/>
        <pt x="-19" y="785" on="0"/>
      </contour>
    </TTGlyph>
    <TTGlyph name="imatra.alt2.tam" xMin="-307" yMin="0" xMax="202" yMax="785">
      <contour>
        <pt x="-62" y="785" on="1"/>
        <pt x="2" y="785" on="0"/>
        <pt x="105" y="736" on="0"/>
        <pt x="172" y="640" on="0"/>
        <pt x="202" y="497" on="0"/>
        <pt x="193" y="403" on="1"/>
        <pt x="154" y="0" on="1"/>
        <pt x="87" y="0" on="1"/>
        <pt x="124" y="404" on="1"/>
        <pt x="138" y="555" on="0"/>
        <pt x="43" y="714" on="0"/>
        <pt x="-63" y="714" on="1"/>
        <pt x="-99" y="714" on="0"/>
        <pt x="-160" y="694" on="0"/>
        <pt x="-205" y="659" on="0"/>
        <pt x="-232" y="610" on="0"/>
        <pt x="-235" y="581" on="1"/>
        <pt x="-238" y="557" on="0"/>
        <pt x="-229" y="514" on="0"/>
        <pt x="-218" y="491" on="1"/>
        <pt x="-241" y="491" on="1"/>
        <pt x="-271" y="507" on="0"/>
        <pt x="-307" y="569" on="0"/>
        <pt x="-302" y="611" on="1"/>
        <pt x="-299" y="646" on="0"/>
        <pt x="-264" y="709" on="0"/>
        <pt x="-202" y="757" on="0"/>
        <pt x="-116" y="785" on="0"/>
      </contour>
    </TTGlyph>
    <TTGlyph name="imatra.tam" xMin="-293" yMin="0" xMax="201" yMax="785">
      <contour>
        <pt x="-50" y="785" on="1"/>
        <pt x="78" y="785" on="0"/>
        <pt x="201" y="599" on="0"/>
        <pt x="185" y="419" on="1"/>
        <pt x="145" y="0" on="1"/>
        <pt x="77" y="0" on="1"/>
        <pt x="116" y="419" on="1"/>
        <pt x="130" y="572" on="0"/>
        <pt x="42" y="714" on="0"/>
        <pt x="-53" y="714" on="1"/>
        <pt x="-87" y="714" on="0"/>
        <pt x="-146" y="694" on="0"/>
        <pt x="-191" y="659" on="0"/>
        <pt x="-218" y="610" on="0"/>
        <pt x="-221" y="581" on="1"/>
        <pt x="-226" y="531" on="0"/>
        <pt x="-202" y="491" on="1"/>
        <pt x="-223" y="491" on="1"/>
        <pt x="-257" y="505" on="0"/>
        <pt x="-293" y="571" on="0"/>
        <pt x="-288" y="613" on="1"/>
        <pt x="-285" y="649" on="0"/>
        <pt x="-248" y="712" on="0"/>
        <pt x="-186" y="759" on="0"/>
        <pt x="-101" y="785" on="0"/>
      </contour>
    </TTGlyph>
    <TTGlyph name="ja.tam" xMin="51" yMin="-257" xMax="745" yMax="513">
      <contour>
        <pt x="290" y="513" on="1"/>
        <pt x="351" y="513" on="0"/>
        <pt x="427" y="443" on="0"/>
        <pt x="441" y="386" on="1"/>
        <pt x="465" y="446" on="0"/>
        <pt x="549" y="513" on="0"/>
        <pt x="606" y="513" on="1"/>
        <pt x="636" y="513" on="0"/>
        <pt x="687" y="487" on="0"/>
        <pt x="724" y="442" on="0"/>
        <pt x="745" y="379" on="0"/>
        <pt x="745" y="343" on="1"/>
        <pt x="745" y="272" on="0"/>
        <pt x="692" y="163" on="0"/>
        <pt x="598" y="88" on="0"/>
        <pt x="470" y="49" on="0"/>
        <pt x="394" y="49" on="1"/>
        <pt x="274" y="49" on="1"/>
        <pt x="241" y="49" on="0"/>
        <pt x="185" y="30" on="0"/>
        <pt x="145" y="-4" on="0"/>
        <pt x="122" y="-52" on="0"/>
        <pt x="122" y="-81" on="1"/>
        <pt x="122" y="-129" on="0"/>
        <pt x="183" y="-183" on="0"/>
        <pt x="228" y="-183" on="1"/>
        <pt x="258" y="-183" on="0"/>
        <pt x="318" y="-156" on="0"/>
        <pt x="377" y="-114" on="0"/>
        <pt x="436" y="-67" on="0"/>
        <pt x="497" y="-25" on="0"/>
        <pt x="560" y="2" on="0"/>
        <pt x="594" y="2" on="1"/>
        <pt x="651" y="2" on="0"/>
        <pt x="707" y="-60" on="0"/>
        <pt x="707" y="-104" on="1"/>
        <pt x="707" y="-137" on="0"/>
        <pt x="682" y="-189" on="0"/>
        <pt x="639" y="-227" on="0"/>
        <pt x="579" y="-252" on="0"/>
        <pt x="545" y="-257" on="1"/>
        <pt x="506" y="-214" on="1"/>
        <pt x="528" y="-211" on="0"/>
        <pt x="575" y="-197" on="0"/>
        <pt x="612" y="-173" on="0"/>
        <pt x="636" y="-138" on="0"/>
        <pt x="636" y="-115" on="1"/>
        <pt x="636" y="-94" on="0"/>
        <pt x="608" y="-62" on="0"/>
        <pt x="582" y="-62" on="1"/>
        <pt x="557" y="-62" on="0"/>
        <pt x="503" y="-90" on="0"/>
        <pt x="447" y="-132" on="0"/>
        <pt x="387" y="-181" on="0"/>
        <pt x="324" y="-223" on="0"/>
        <pt x="257" y="-251" on="0"/>
        <pt x="222" y="-251" on="1"/>
        <pt x="185" y="-251" on="0"/>
        <pt x="123" y="-228" on="0"/>
        <pt x="77" y="-186" on="0"/>
        <pt x="51" y="-126" on="0"/>
        <pt x="51" y="-89" on="1"/>
        <pt x="51" y="-43" on="0"/>
        <pt x="83" y="32" on="0"/>
        <pt x="141" y="84" on="0"/>
        <pt x="223" y="112" on="0"/>
        <pt x="274" y="112" on="1"/>
        <pt x="400" y="112" on="1"/>
        <pt x="459" y="112" on="0"/>
        <pt x="559" y="139" on="0"/>
        <pt x="632" y="195" on="0"/>
        <pt x="673" y="282" on="0"/>
        <pt x="673" y="343" on="1"/>
        <pt x="673" y="392" on="0"/>
        <pt x="633" y="446" on="0"/>
        <pt x="598" y="446" on="1"/>
        <pt x="555" y="446" on="0"/>
        <pt x="493" y="369" on="0"/>
        <pt x="485" y="288" on="1"/>
        <pt x="479" y="222" on="1"/>
        <pt x="410" y="222" on="1"/>
        <pt x="415" y="269" on="1"/>
        <pt x="419" y="305" on="0"/>
        <pt x="405" y="375" on="0"/>
        <pt x="369" y="426" on="0"/>
        <pt x="309" y="452" on="0"/>
        <pt x="267" y="444" on="1"/>
        <pt x="301" y="420" on="0"/>
        <pt x="336" y="349" on="0"/>
        <pt x="336" y="311" on="1"/>
        <pt x="336" y="255" on="0"/>
        <pt x="265" y="182" on="0"/>
        <pt x="207" y="182" on="1"/>
        <pt x="183" y="182" on="0"/>
        <pt x="140" y="198" on="0"/>
        <pt x="107" y="229" on="0"/>
        <pt x="88" y="276" on="0"/>
        <pt x="88" y="307" on="1"/>
        <pt x="88" y="347" on="0"/>
        <pt x="119" y="422" on="0"/>
        <pt x="173" y="479" on="0"/>
        <pt x="247" y="513" on="0"/>
      </contour>
      <contour>
        <pt x="232" y="432" on="1"/>
        <pt x="199" y="414" on="0"/>
        <pt x="155" y="348" on="0"/>
        <pt x="155" y="307" on="1"/>
        <pt x="155" y="279" on="0"/>
        <pt x="184" y="242" on="0"/>
        <pt x="213" y="242" on="1"/>
        <pt x="248" y="242" on="0"/>
        <pt x="289" y="296" on="0"/>
        <pt x="289" y="333" on="1"/>
        <pt x="289" y="362" on="0"/>
        <pt x="261" y="412" on="0"/>
      </contour>
    </TTGlyph>
    <TTGlyph name="jansv.tam" xMin="51" yMin="-257" xMax="745" yMax="810">
      <contour>
        <pt x="290" y="513" on="1"/>
        <pt x="351" y="513" on="0"/>
        <pt x="427" y="443" on="0"/>
        <pt x="441" y="386" on="1"/>
        <pt x="465" y="446" on="0"/>
        <pt x="549" y="513" on="0"/>
        <pt x="606" y="513" on="1"/>
        <pt x="636" y="513" on="0"/>
        <pt x="687" y="487" on="0"/>
        <pt x="724" y="442" on="0"/>
        <pt x="745" y="379" on="0"/>
        <pt x="745" y="343" on="1"/>
        <pt x="745" y="272" on="0"/>
        <pt x="692" y="163" on="0"/>
        <pt x="598" y="88" on="0"/>
        <pt x="470" y="49" on="0"/>
        <pt x="394" y="49" on="1"/>
        <pt x="274" y="49" on="1"/>
        <pt x="241" y="49" on="0"/>
        <pt x="185" y="30" on="0"/>
        <pt x="145" y="-4" on="0"/>
        <pt x="122" y="-52" on="0"/>
        <pt x="122" y="-81" on="1"/>
        <pt x="122" y="-129" on="0"/>
        <pt x="183" y="-183" on="0"/>
        <pt x="228" y="-183" on="1"/>
        <pt x="258" y="-183" on="0"/>
        <pt x="318" y="-156" on="0"/>
        <pt x="377" y="-114" on="0"/>
        <pt x="436" y="-67" on="0"/>
        <pt x="497" y="-25" on="0"/>
        <pt x="560" y="2" on="0"/>
        <pt x="594" y="2" on="1"/>
        <pt x="651" y="2" on="0"/>
        <pt x="707" y="-60" on="0"/>
        <pt x="707" y="-104" on="1"/>
        <pt x="707" y="-137" on="0"/>
        <pt x="682" y="-189" on="0"/>
        <pt x="639" y="-227" on="0"/>
        <pt x="579" y="-252" on="0"/>
        <pt x="545" y="-257" on="1"/>
        <pt x="506" y="-214" on="1"/>
        <pt x="528" y="-211" on="0"/>
        <pt x="575" y="-197" on="0"/>
        <pt x="612" y="-173" on="0"/>
        <pt x="636" y="-138" on="0"/>
        <pt x="636" y="-115" on="1"/>
        <pt x="636" y="-94" on="0"/>
        <pt x="608" y="-62" on="0"/>
        <pt x="582" y="-62" on="1"/>
        <pt x="557" y="-62" on="0"/>
        <pt x="503" y="-90" on="0"/>
        <pt x="447" y="-132" on="0"/>
        <pt x="387" y="-181" on="0"/>
        <pt x="324" y="-223" on="0"/>
        <pt x="257" y="-251" on="0"/>
        <pt x="222" y="-251" on="1"/>
        <pt x="185" y="-251" on="0"/>
        <pt x="123" y="-228" on="0"/>
        <pt x="77" y="-186" on="0"/>
        <pt x="51" y="-126" on="0"/>
        <pt x="51" y="-89" on="1"/>
        <pt x="51" y="-43" on="0"/>
        <pt x="83" y="32" on="0"/>
        <pt x="141" y="84" on="0"/>
        <pt x="223" y="112" on="0"/>
        <pt x="274" y="112" on="1"/>
        <pt x="400" y="112" on="1"/>
        <pt x="459" y="112" on="0"/>
        <pt x="559" y="139" on="0"/>
        <pt x="632" y="195" on="0"/>
        <pt x="673" y="282" on="0"/>
        <pt x="673" y="343" on="1"/>
        <pt x="673" y="392" on="0"/>
        <pt x="633" y="446" on="0"/>
        <pt x="598" y="446" on="1"/>
        <pt x="555" y="446" on="0"/>
        <pt x="493" y="369" on="0"/>
        <pt x="485" y="288" on="1"/>
        <pt x="479" y="222" on="1"/>
        <pt x="410" y="222" on="1"/>
        <pt x="415" y="269" on="1"/>
        <pt x="419" y="305" on="0"/>
        <pt x="405" y="375" on="0"/>
        <pt x="369" y="426" on="0"/>
        <pt x="309" y="452" on="0"/>
        <pt x="267" y="444" on="1"/>
        <pt x="301" y="420" on="0"/>
        <pt x="336" y="349" on="0"/>
        <pt x="336" y="311" on="1"/>
        <pt x="336" y="255" on="0"/>
        <pt x="265" y="182" on="0"/>
        <pt x="207" y="182" on="1"/>
        <pt x="183" y="182" on="0"/>
        <pt x="140" y="198" on="0"/>
        <pt x="107" y="229" on="0"/>
        <pt x="88" y="276" on="0"/>
        <pt x="88" y="307" on="1"/>
        <pt x="88" y="347" on="0"/>
        <pt x="119" y="422" on="0"/>
        <pt x="173" y="479" on="0"/>
        <pt x="247" y="513" on="0"/>
      </contour>
      <contour>
        <pt x="232" y="432" on="1"/>
        <pt x="199" y="414" on="0"/>
        <pt x="155" y="348" on="0"/>
        <pt x="155" y="307" on="1"/>
        <pt x="155" y="279" on="0"/>
        <pt x="184" y="242" on="0"/>
        <pt x="213" y="242" on="1"/>
        <pt x="248" y="242" on="0"/>
        <pt x="289" y="296" on="0"/>
        <pt x="289" y="333" on="1"/>
        <pt x="289" y="362" on="0"/>
        <pt x="261" y="412" on="0"/>
      </contour>
      <contour>
        <pt x="481" y="810" on="1"/>
        <pt x="527" y="810" on="0"/>
        <pt x="585" y="750" on="0"/>
        <pt x="581" y="697" on="1"/>
        <pt x="579" y="670" on="0"/>
        <pt x="557" y="628" on="0"/>
        <pt x="524" y="598" on="0"/>
        <pt x="482" y="583" on="0"/>
        <pt x="460" y="583" on="1"/>
        <pt x="437" y="583" on="0"/>
        <pt x="400" y="598" on="0"/>
        <pt x="373" y="628" on="0"/>
        <pt x="360" y="670" on="0"/>
        <pt x="362" y="697" on="1"/>
        <pt x="367" y="751" on="0"/>
        <pt x="436" y="810" on="0"/>
      </contour>
      <contour>
        <pt x="476" y="755" on="1"/>
        <pt x="454" y="755" on="0"/>
        <pt x="428" y="723" on="0"/>
        <pt x="425" y="697" on="1"/>
        <pt x="423" y="670" on="0"/>
        <pt x="442" y="639" on="0"/>
        <pt x="465" y="639" on="1"/>
        <pt x="488" y="639" on="0"/>
        <pt x="515" y="670" on="0"/>
        <pt x="518" y="697" on="1"/>
        <pt x="520" y="723" on="0"/>
        <pt x="499" y="755" on="0"/>
      </contour>
    </TTGlyph>
    <TTGlyph name="ji.tam" xMin="48" yMin="-257" xMax="942" yMax="785">
      <contour>
        <pt x="751" y="785" on="1"/>
        <pt x="844" y="785" on="0"/>
        <pt x="942" y="642" on="0"/>
        <pt x="931" y="511" on="1"/>
        <pt x="882" y="0" on="1"/>
        <pt x="814" y="0" on="1"/>
        <pt x="862" y="510" on="1"/>
        <pt x="872" y="607" on="0"/>
        <pt x="813" y="714" on="0"/>
        <pt x="751" y="714" on="1"/>
        <pt x="706" y="714" on="0"/>
        <pt x="642" y="652" on="0"/>
        <pt x="637" y="603" on="1"/>
        <pt x="630" y="539" on="0"/>
        <pt x="672" y="492" on="1"/>
        <pt x="704" y="470" on="0"/>
        <pt x="742" y="393" on="0"/>
        <pt x="742" y="343" on="1"/>
        <pt x="742" y="272" on="0"/>
        <pt x="689" y="163" on="0"/>
        <pt x="595" y="88" on="0"/>
        <pt x="467" y="49" on="0"/>
        <pt x="391" y="49" on="1"/>
        <pt x="271" y="49" on="1"/>
        <pt x="238" y="49" on="0"/>
        <pt x="182" y="30" on="0"/>
        <pt x="142" y="-4" on="0"/>
        <pt x="119" y="-52" on="0"/>
        <pt x="119" y="-81" on="1"/>
        <pt x="119" y="-129" on="0"/>
        <pt x="180" y="-183" on="0"/>
        <pt x="225" y="-183" on="1"/>
        <pt x="255" y="-183" on="0"/>
        <pt x="315" y="-156" on="0"/>
        <pt x="374" y="-114" on="0"/>
        <pt x="433" y="-67" on="0"/>
        <pt x="494" y="-25" on="0"/>
        <pt x="557" y="2" on="0"/>
        <pt x="591" y="2" on="1"/>
        <pt x="648" y="2" on="0"/>
        <pt x="704" y="-60" on="0"/>
        <pt x="704" y="-104" on="1"/>
        <pt x="704" y="-137" on="0"/>
        <pt x="679" y="-189" on="0"/>
        <pt x="636" y="-227" on="0"/>
        <pt x="576" y="-252" on="0"/>
        <pt x="542" y="-257" on="1"/>
        <pt x="503" y="-214" on="1"/>
        <pt x="525" y="-211" on="0"/>
        <pt x="572" y="-197" on="0"/>
        <pt x="609" y="-173" on="0"/>
        <pt x="633" y="-138" on="0"/>
        <pt x="633" y="-115" on="1"/>
        <pt x="633" y="-94" on="0"/>
        <pt x="605" y="-62" on="0"/>
        <pt x="579" y="-62" on="1"/>
        <pt x="554" y="-62" on="0"/>
        <pt x="500" y="-90" on="0"/>
        <pt x="444" y="-132" on="0"/>
        <pt x="384" y="-181" on="0"/>
        <pt x="321" y="-223" on="0"/>
        <pt x="254" y="-251" on="0"/>
        <pt x="219" y="-251" on="1"/>
        <pt x="182" y="-251" on="0"/>
        <pt x="120" y="-228" on="0"/>
        <pt x="74" y="-186" on="0"/>
        <pt x="48" y="-126" on="0"/>
        <pt x="48" y="-89" on="1"/>
        <pt x="48" y="-43" on="0"/>
        <pt x="80" y="32" on="0"/>
        <pt x="138" y="84" on="0"/>
        <pt x="220" y="112" on="0"/>
        <pt x="271" y="112" on="1"/>
        <pt x="397" y="112" on="1"/>
        <pt x="456" y="112" on="0"/>
        <pt x="556" y="139" on="0"/>
        <pt x="629" y="195" on="0"/>
        <pt x="670" y="282" on="0"/>
        <pt x="670" y="343" on="1"/>
        <pt x="670" y="392" on="0"/>
        <pt x="630" y="446" on="0"/>
        <pt x="595" y="446" on="1"/>
        <pt x="552" y="446" on="0"/>
        <pt x="490" y="369" on="0"/>
        <pt x="482" y="288" on="1"/>
        <pt x="476" y="222" on="1"/>
        <pt x="407" y="222" on="1"/>
        <pt x="412" y="269" on="1"/>
        <pt x="416" y="305" on="0"/>
        <pt x="402" y="375" on="0"/>
        <pt x="366" y="426" on="0"/>
        <pt x="306" y="452" on="0"/>
        <pt x="264" y="444" on="1"/>
        <pt x="298" y="420" on="0"/>
        <pt x="333" y="349" on="0"/>
        <pt x="333" y="311" on="1"/>
        <pt x="333" y="255" on="0"/>
        <pt x="262" y="182" on="0"/>
        <pt x="204" y="182" on="1"/>
        <pt x="180" y="182" on="0"/>
        <pt x="137" y="198" on="0"/>
        <pt x="104" y="229" on="0"/>
        <pt x="85" y="276" on="0"/>
        <pt x="85" y="307" on="1"/>
        <pt x="85" y="347" on="0"/>
        <pt x="116" y="422" on="0"/>
        <pt x="170" y="479" on="0"/>
        <pt x="244" y="513" on="0"/>
        <pt x="287" y="513" on="1"/>
        <pt x="348" y="513" on="0"/>
        <pt x="424" y="443" on="0"/>
        <pt x="438" y="386" on="1"/>
        <pt x="462" y="446" on="0"/>
        <pt x="546" y="513" on="0"/>
        <pt x="603" y="513" on="1"/>
        <pt x="606" y="513" on="0"/>
        <pt x="613" y="513" on="0"/>
        <pt x="616" y="512" on="1"/>
        <pt x="593" y="534" on="0"/>
        <pt x="565" y="596" on="0"/>
        <pt x="569" y="634" on="1"/>
        <pt x="572" y="665" on="0"/>
        <pt x="600" y="720" on="0"/>
        <pt x="646" y="761" on="0"/>
        <pt x="711" y="785" on="0"/>
      </contour>
      <contour>
        <pt x="229" y="432" on="1"/>
        <pt x="196" y="414" on="0"/>
        <pt x="152" y="348" on="0"/>
        <pt x="152" y="307" on="1"/>
        <pt x="152" y="279" on="0"/>
        <pt x="181" y="242" on="0"/>
        <pt x="210" y="242" on="1"/>
        <pt x="245" y="242" on="0"/>
        <pt x="286" y="296" on="0"/>
        <pt x="286" y="333" on="1"/>
        <pt x="286" y="362" on="0"/>
        <pt x="258" y="412" on="0"/>
      </contour>
    </TTGlyph>
    <TTGlyph name="jii.tam" xMin="51" yMin="-257" xMax="845" yMax="819">
      <contour>
        <pt x="689" y="819" on="1"/>
        <pt x="726" y="819" on="0"/>
        <pt x="785" y="795" on="0"/>
        <pt x="825" y="756" on="0"/>
        <pt x="845" y="705" on="0"/>
        <pt x="842" y="677" on="1"/>
        <pt x="837" y="626" on="0"/>
        <pt x="769" y="566" on="0"/>
        <pt x="718" y="566" on="1"/>
        <pt x="669" y="566" on="0"/>
        <pt x="622" y="625" on="0"/>
        <pt x="626" y="665" on="1"/>
        <pt x="628" y="692" on="0"/>
        <pt x="653" y="738" on="0"/>
        <pt x="672" y="758" on="1"/>
        <pt x="627" y="752" on="0"/>
        <pt x="558" y="682" on="0"/>
        <pt x="553" y="630" on="1"/>
        <pt x="549" y="590" on="0"/>
        <pt x="588" y="528" on="0"/>
        <pt x="629" y="511" on="1"/>
        <pt x="654" y="506" on="0"/>
        <pt x="697" y="477" on="0"/>
        <pt x="728" y="433" on="0"/>
        <pt x="745" y="376" on="0"/>
        <pt x="745" y="343" on="1"/>
        <pt x="745" y="272" on="0"/>
        <pt x="692" y="163" on="0"/>
        <pt x="598" y="88" on="0"/>
        <pt x="470" y="49" on="0"/>
        <pt x="394" y="49" on="1"/>
        <pt x="274" y="49" on="1"/>
        <pt x="241" y="49" on="0"/>
        <pt x="185" y="30" on="0"/>
        <pt x="145" y="-4" on="0"/>
        <pt x="122" y="-52" on="0"/>
        <pt x="122" y="-81" on="1"/>
        <pt x="122" y="-129" on="0"/>
        <pt x="183" y="-183" on="0"/>
        <pt x="228" y="-183" on="1"/>
        <pt x="258" y="-183" on="0"/>
        <pt x="318" y="-156" on="0"/>
        <pt x="377" y="-114" on="0"/>
        <pt x="436" y="-67" on="0"/>
        <pt x="497" y="-25" on="0"/>
        <pt x="560" y="2" on="0"/>
        <pt x="594" y="2" on="1"/>
        <pt x="651" y="2" on="0"/>
        <pt x="707" y="-60" on="0"/>
        <pt x="707" y="-104" on="1"/>
        <pt x="707" y="-137" on="0"/>
        <pt x="682" y="-189" on="0"/>
        <pt x="639" y="-227" on="0"/>
        <pt x="579" y="-252" on="0"/>
        <pt x="545" y="-257" on="1"/>
        <pt x="506" y="-214" on="1"/>
        <pt x="528" y="-211" on="0"/>
        <pt x="575" y="-197" on="0"/>
        <pt x="612" y="-173" on="0"/>
        <pt x="636" y="-138" on="0"/>
        <pt x="636" y="-115" on="1"/>
        <pt x="636" y="-94" on="0"/>
        <pt x="608" y="-62" on="0"/>
        <pt x="582" y="-62" on="1"/>
        <pt x="557" y="-62" on="0"/>
        <pt x="503" y="-90" on="0"/>
        <pt x="447" y="-132" on="0"/>
        <pt x="387" y="-181" on="0"/>
        <pt x="324" y="-223" on="0"/>
        <pt x="257" y="-251" on="0"/>
        <pt x="222" y="-251" on="1"/>
        <pt x="185" y="-251" on="0"/>
        <pt x="123" y="-228" on="0"/>
        <pt x="77" y="-186" on="0"/>
        <pt x="51" y="-126" on="0"/>
        <pt x="51" y="-89" on="1"/>
        <pt x="51" y="-43" on="0"/>
        <pt x="83" y="32" on="0"/>
        <pt x="141" y="84" on="0"/>
        <pt x="223" y="112" on="0"/>
        <pt x="274" y="112" on="1"/>
        <pt x="400" y="112" on="1"/>
        <pt x="459" y="112" on="0"/>
        <pt x="559" y="139" on="0"/>
        <pt x="632" y="195" on="0"/>
        <pt x="673" y="282" on="0"/>
        <pt x="673" y="343" on="1"/>
        <pt x="673" y="392" on="0"/>
        <pt x="633" y="446" on="0"/>
        <pt x="598" y="446" on="1"/>
        <pt x="555" y="446" on="0"/>
        <pt x="493" y="369" on="0"/>
        <pt x="485" y="288" on="1"/>
        <pt x="479" y="222" on="1"/>
        <pt x="410" y="222" on="1"/>
        <pt x="415" y="269" on="1"/>
        <pt x="419" y="305" on="0"/>
        <pt x="405" y="375" on="0"/>
        <pt x="369" y="426" on="0"/>
        <pt x="309" y="452" on="0"/>
        <pt x="267" y="444" on="1"/>
        <pt x="301" y="420" on="0"/>
        <pt x="336" y="349" on="0"/>
        <pt x="336" y="311" on="1"/>
        <pt x="336" y="255" on="0"/>
        <pt x="265" y="182" on="0"/>
        <pt x="207" y="182" on="1"/>
        <pt x="183" y="182" on="0"/>
        <pt x="140" y="198" on="0"/>
        <pt x="107" y="229" on="0"/>
        <pt x="88" y="276" on="0"/>
        <pt x="88" y="307" on="1"/>
        <pt x="88" y="347" on="0"/>
        <pt x="119" y="422" on="0"/>
        <pt x="173" y="479" on="0"/>
        <pt x="247" y="513" on="0"/>
        <pt x="290" y="513" on="1"/>
        <pt x="351" y="513" on="0"/>
        <pt x="427" y="443" on="0"/>
        <pt x="441" y="386" on="1"/>
        <pt x="459" y="431" on="0"/>
        <pt x="517" y="492" on="0"/>
        <pt x="555" y="505" on="1"/>
        <pt x="520" y="528" on="0"/>
        <pt x="486" y="604" on="0"/>
        <pt x="491" y="648" on="1"/>
        <pt x="494" y="684" on="0"/>
        <pt x="528" y="746" on="0"/>
        <pt x="580" y="792" on="0"/>
        <pt x="650" y="819" on="0"/>
      </contour>
      <contour>
        <pt x="232" y="432" on="1"/>
        <pt x="199" y="414" on="0"/>
        <pt x="155" y="348" on="0"/>
        <pt x="155" y="307" on="1"/>
        <pt x="155" y="279" on="0"/>
        <pt x="184" y="242" on="0"/>
        <pt x="213" y="242" on="1"/>
        <pt x="248" y="242" on="0"/>
        <pt x="289" y="296" on="0"/>
        <pt x="289" y="333" on="1"/>
        <pt x="289" y="362" on="0"/>
        <pt x="261" y="412" on="0"/>
      </contour>
      <contour>
        <pt x="707" y="759" on="1"/>
        <pt x="693" y="740" on="0"/>
        <pt x="674" y="700" on="0"/>
        <pt x="672" y="680" on="1"/>
        <pt x="670" y="654" on="0"/>
        <pt x="694" y="621" on="0"/>
        <pt x="717" y="621" on="1"/>
        <pt x="741" y="621" on="0"/>
        <pt x="774" y="656" on="0"/>
        <pt x="776" y="680" on="1"/>
        <pt x="778" y="711" on="0"/>
        <pt x="739" y="753" on="0"/>
      </contour>
    </TTGlyph>
    <TTGlyph name="ju.tam" xMin="48" yMin="-257" xMax="1135" yMax="513">
      <contour>
        <pt x="290" y="513" on="1"/>
        <pt x="351" y="513" on="0"/>
        <pt x="427" y="443" on="0"/>
        <pt x="441" y="386" on="1"/>
        <pt x="465" y="446" on="0"/>
        <pt x="549" y="513" on="0"/>
        <pt x="606" y="513" on="1"/>
        <pt x="630" y="513" on="0"/>
        <pt x="653" y="504" on="1"/>
        <pt x="984" y="504" on="1"/>
        <pt x="1055" y="504" on="0"/>
        <pt x="1135" y="430" on="0"/>
        <pt x="1129" y="362" on="1"/>
        <pt x="1126" y="331" on="0"/>
        <pt x="1102" y="277" on="0"/>
        <pt x="1063" y="236" on="0"/>
        <pt x="1010" y="213" on="0"/>
        <pt x="978" y="213" on="1"/>
        <pt x="945" y="213" on="0"/>
        <pt x="896" y="239" on="0"/>
        <pt x="866" y="283" on="0"/>
        <pt x="854" y="340" on="0"/>
        <pt x="857" y="371" on="1"/>
        <pt x="864" y="442" on="1"/>
        <pt x="720" y="442" on="1"/>
        <pt x="734" y="416" on="0"/>
        <pt x="748" y="353" on="0"/>
        <pt x="744" y="316" on="1"/>
        <pt x="738" y="245" on="0"/>
        <pt x="677" y="144" on="0"/>
        <pt x="585" y="80" on="0"/>
        <pt x="468" y="49" on="0"/>
        <pt x="406" y="49" on="1"/>
        <pt x="251" y="49" on="1"/>
        <pt x="227" y="49" on="0"/>
        <pt x="182" y="32" on="0"/>
        <pt x="148" y="2" on="0"/>
        <pt x="126" y="-41" on="0"/>
        <pt x="123" y="-67" on="1"/>
        <pt x="118" y="-120" on="0"/>
        <pt x="180" y="-183" on="0"/>
        <pt x="228" y="-183" on="1"/>
        <pt x="258" y="-183" on="0"/>
        <pt x="318" y="-156" on="0"/>
        <pt x="377" y="-114" on="0"/>
        <pt x="436" y="-67" on="0"/>
        <pt x="497" y="-25" on="0"/>
        <pt x="560" y="2" on="0"/>
        <pt x="594" y="2" on="1"/>
        <pt x="624" y="2" on="0"/>
        <pt x="669" y="-17" on="0"/>
        <pt x="697" y="-50" on="0"/>
        <pt x="709" y="-93" on="0"/>
        <pt x="707" y="-116" on="1"/>
        <pt x="701" y="-173" on="0"/>
        <pt x="621" y="-246" on="0"/>
        <pt x="545" y="-257" on="1"/>
        <pt x="506" y="-214" on="1"/>
        <pt x="561" y="-206" on="0"/>
        <pt x="631" y="-161" on="0"/>
        <pt x="636" y="-122" on="1"/>
        <pt x="638" y="-97" on="0"/>
        <pt x="608" y="-62" on="0"/>
        <pt x="582" y="-62" on="1"/>
        <pt x="557" y="-62" on="0"/>
        <pt x="503" y="-90" on="0"/>
        <pt x="447" y="-132" on="0"/>
        <pt x="387" y="-181" on="0"/>
        <pt x="324" y="-223" on="0"/>
        <pt x="257" y="-251" on="0"/>
        <pt x="222" y="-251" on="1"/>
        <pt x="181" y="-251" on="0"/>
        <pt x="115" y="-224" on="0"/>
        <pt x="70" y="-176" on="0"/>
        <pt x="48" y="-108" on="0"/>
        <pt x="52" y="-67" on="1"/>
        <pt x="56" y="-24" on="0"/>
        <pt x="90" y="42" on="0"/>
        <pt x="144" y="88" on="0"/>
        <pt x="216" y="112" on="0"/>
        <pt x="257" y="112" on="1"/>
        <pt x="411" y="112" on="1"/>
        <pt x="463" y="112" on="0"/>
        <pt x="554" y="136" on="0"/>
        <pt x="623" y="186" on="0"/>
        <pt x="667" y="265" on="0"/>
        <pt x="672" y="319" on="1"/>
        <pt x="678" y="379" on="0"/>
        <pt x="636" y="446" on="0"/>
        <pt x="598" y="446" on="1"/>
        <pt x="555" y="446" on="0"/>
        <pt x="493" y="369" on="0"/>
        <pt x="485" y="288" on="1"/>
        <pt x="479" y="217" on="1"/>
        <pt x="410" y="217" on="1"/>
        <pt x="415" y="269" on="1"/>
        <pt x="418" y="300" on="0"/>
        <pt x="410" y="359" on="0"/>
        <pt x="387" y="406" on="0"/>
        <pt x="348" y="437" on="0"/>
        <pt x="320" y="440" on="1"/>
        <pt x="309" y="445" on="0"/>
        <pt x="278" y="445" on="0"/>
        <pt x="267" y="444" on="1"/>
        <pt x="305" y="418" on="0"/>
        <pt x="340" y="338" on="0"/>
        <pt x="336" y="296" on="1"/>
        <pt x="331" y="247" on="0"/>
        <pt x="264" y="182" on="0"/>
        <pt x="207" y="182" on="1"/>
        <pt x="181" y="182" on="0"/>
        <pt x="134" y="201" on="0"/>
        <pt x="101" y="238" on="0"/>
        <pt x="85" y="293" on="0"/>
        <pt x="89" y="329" on="1"/>
        <pt x="92" y="367" on="0"/>
        <pt x="128" y="434" on="0"/>
        <pt x="183" y="484" on="0"/>
        <pt x="253" y="513" on="0"/>
      </contour>
      <contour>
        <pt x="927" y="442" on="1"/>
        <pt x="920" y="365" on="1"/>
        <pt x="916" y="323" on="0"/>
        <pt x="948" y="274" on="0"/>
        <pt x="980" y="274" on="1"/>
        <pt x="1009" y="274" on="0"/>
        <pt x="1054" y="324" on="0"/>
        <pt x="1059" y="362" on="1"/>
        <pt x="1062" y="402" on="0"/>
        <pt x="1024" y="442" on="0"/>
        <pt x="977" y="442" on="1"/>
      </contour>
      <contour>
        <pt x="232" y="432" on="1"/>
        <pt x="202" y="415" on="0"/>
        <pt x="162" y="362" on="0"/>
        <pt x="157" y="324" on="1"/>
        <pt x="154" y="305" on="0"/>
        <pt x="157" y="290" on="1"/>
        <pt x="161" y="265" on="0"/>
        <pt x="192" y="242" on="0"/>
        <pt x="213" y="242" on="1"/>
        <pt x="244" y="242" on="0"/>
        <pt x="284" y="286" on="0"/>
        <pt x="288" y="321" on="1"/>
        <pt x="294" y="388" on="0"/>
      </contour>
    </TTGlyph>
    <TTGlyph name="juu.tam" xMin="51" yMin="-257" xMax="1400" yMax="660">
      <contour>
        <pt x="1179" y="660" on="1"/>
        <pt x="1229" y="660" on="0"/>
        <pt x="1314" y="618" on="0"/>
        <pt x="1372" y="540" on="0"/>
        <pt x="1400" y="431" on="0"/>
        <pt x="1393" y="364" on="1"/>
        <pt x="1387" y="293" on="0"/>
        <pt x="1338" y="172" on="0"/>
        <pt x="1257" y="82" on="0"/>
        <pt x="1142" y="31" on="0"/>
        <pt x="1070" y="31" on="1"/>
        <pt x="974" y="31" on="0"/>
        <pt x="831" y="138" on="0"/>
        <pt x="797" y="244" on="1"/>
        <pt x="847" y="281" on="1"/>
        <pt x="878" y="182" on="0"/>
        <pt x="993" y="100" on="0"/>
        <pt x="1073" y="100" on="1"/>
        <pt x="1128" y="100" on="0"/>
        <pt x="1216" y="138" on="0"/>
        <pt x="1280" y="208" on="0"/>
        <pt x="1318" y="305" on="0"/>
        <pt x="1324" y="364" on="1"/>
        <pt x="1329" y="418" on="0"/>
        <pt x="1310" y="503" on="0"/>
        <pt x="1269" y="561" on="0"/>
        <pt x="1209" y="592" on="0"/>
        <pt x="1173" y="592" on="1"/>
        <pt x="1128" y="592" on="0"/>
        <pt x="1055" y="545" on="0"/>
        <pt x="1032" y="504" on="1"/>
        <pt x="1082" y="504" on="1"/>
        <pt x="1154" y="504" on="0"/>
        <pt x="1232" y="430" on="0"/>
        <pt x="1226" y="362" on="1"/>
        <pt x="1223" y="331" on="0"/>
        <pt x="1198" y="277" on="0"/>
        <pt x="1159" y="236" on="0"/>
        <pt x="1107" y="213" on="0"/>
        <pt x="1075" y="213" on="1"/>
        <pt x="1042" y="213" on="0"/>
        <pt x="993" y="239" on="0"/>
        <pt x="963" y="283" on="0"/>
        <pt x="951" y="340" on="0"/>
        <pt x="954" y="371" on="1"/>
        <pt x="960" y="435" on="1"/>
        <pt x="724" y="435" on="1"/>
        <pt x="734" y="415" on="0"/>
        <pt x="745" y="369" on="0"/>
        <pt x="745" y="343" on="1"/>
        <pt x="745" y="272" on="0"/>
        <pt x="692" y="163" on="0"/>
        <pt x="598" y="88" on="0"/>
        <pt x="470" y="49" on="0"/>
        <pt x="394" y="49" on="1"/>
        <pt x="274" y="49" on="1"/>
        <pt x="241" y="49" on="0"/>
        <pt x="185" y="30" on="0"/>
        <pt x="145" y="-4" on="0"/>
        <pt x="122" y="-52" on="0"/>
        <pt x="122" y="-81" on="1"/>
        <pt x="122" y="-129" on="0"/>
        <pt x="183" y="-183" on="0"/>
        <pt x="228" y="-183" on="1"/>
        <pt x="258" y="-183" on="0"/>
        <pt x="318" y="-156" on="0"/>
        <pt x="377" y="-114" on="0"/>
        <pt x="436" y="-67" on="0"/>
        <pt x="497" y="-25" on="0"/>
        <pt x="560" y="2" on="0"/>
        <pt x="594" y="2" on="1"/>
        <pt x="651" y="2" on="0"/>
        <pt x="707" y="-60" on="0"/>
        <pt x="707" y="-104" on="1"/>
        <pt x="707" y="-137" on="0"/>
        <pt x="682" y="-189" on="0"/>
        <pt x="639" y="-227" on="0"/>
        <pt x="579" y="-252" on="0"/>
        <pt x="545" y="-257" on="1"/>
        <pt x="506" y="-214" on="1"/>
        <pt x="528" y="-211" on="0"/>
        <pt x="575" y="-197" on="0"/>
        <pt x="612" y="-173" on="0"/>
        <pt x="636" y="-138" on="0"/>
        <pt x="636" y="-115" on="1"/>
        <pt x="636" y="-94" on="0"/>
        <pt x="608" y="-62" on="0"/>
        <pt x="582" y="-62" on="1"/>
        <pt x="557" y="-62" on="0"/>
        <pt x="503" y="-90" on="0"/>
        <pt x="447" y="-132" on="0"/>
        <pt x="387" y="-181" on="0"/>
        <pt x="324" y="-223" on="0"/>
        <pt x="257" y="-251" on="0"/>
        <pt x="222" y="-251" on="1"/>
        <pt x="185" y="-251" on="0"/>
        <pt x="123" y="-228" on="0"/>
        <pt x="77" y="-186" on="0"/>
        <pt x="51" y="-126" on="0"/>
        <pt x="51" y="-89" on="1"/>
        <pt x="51" y="-43" on="0"/>
        <pt x="83" y="32" on="0"/>
        <pt x="141" y="84" on="0"/>
        <pt x="223" y="112" on="0"/>
        <pt x="274" y="112" on="1"/>
        <pt x="400" y="112" on="1"/>
        <pt x="459" y="112" on="0"/>
        <pt x="559" y="139" on="0"/>
        <pt x="632" y="195" on="0"/>
        <pt x="673" y="282" on="0"/>
        <pt x="673" y="343" on="1"/>
        <pt x="673" y="392" on="0"/>
        <pt x="633" y="446" on="0"/>
        <pt x="598" y="446" on="1"/>
        <pt x="555" y="446" on="0"/>
        <pt x="493" y="369" on="0"/>
        <pt x="485" y="288" on="1"/>
        <pt x="479" y="222" on="1"/>
        <pt x="410" y="222" on="1"/>
        <pt x="415" y="269" on="1"/>
        <pt x="419" y="305" on="0"/>
        <pt x="405" y="375" on="0"/>
        <pt x="369" y="426" on="0"/>
        <pt x="309" y="452" on="0"/>
        <pt x="267" y="444" on="1"/>
        <pt x="301" y="420" on="0"/>
        <pt x="336" y="349" on="0"/>
        <pt x="336" y="311" on="1"/>
        <pt x="336" y="255" on="0"/>
        <pt x="265" y="182" on="0"/>
        <pt x="207" y="182" on="1"/>
        <pt x="183" y="182" on="0"/>
        <pt x="140" y="198" on="0"/>
        <pt x="107" y="229" on="0"/>
        <pt x="88" y="276" on="0"/>
        <pt x="88" y="307" on="1"/>
        <pt x="88" y="347" on="0"/>
        <pt x="119" y="422" on="0"/>
        <pt x="173" y="479" on="0"/>
        <pt x="247" y="513" on="0"/>
        <pt x="290" y="513" on="1"/>
        <pt x="351" y="513" on="0"/>
        <pt x="427" y="443" on="0"/>
        <pt x="441" y="386" on="1"/>
        <pt x="465" y="446" on="0"/>
        <pt x="549" y="513" on="0"/>
        <pt x="606" y="513" on="1"/>
        <pt x="631" y="513" on="0"/>
        <pt x="652" y="504" on="1"/>
        <pt x="971" y="504" on="1"/>
        <pt x="995" y="576" on="0"/>
        <pt x="1106" y="660" on="0"/>
      </contour>
      <contour>
        <pt x="1017" y="365" on="1"/>
        <pt x="1013" y="320" on="0"/>
        <pt x="1045" y="274" on="0"/>
        <pt x="1076" y="274" on="1"/>
        <pt x="1107" y="274" on="0"/>
        <pt x="1151" y="323" on="0"/>
        <pt x="1154" y="361" on="1"/>
        <pt x="1163" y="438" on="0"/>
        <pt x="1075" y="438" on="1"/>
        <pt x="1024" y="438" on="1"/>
      </contour>
      <contour>
        <pt x="232" y="432" on="1"/>
        <pt x="199" y="414" on="0"/>
        <pt x="155" y="348" on="0"/>
        <pt x="155" y="307" on="1"/>
        <pt x="155" y="279" on="0"/>
        <pt x="184" y="242" on="0"/>
        <pt x="213" y="242" on="1"/>
        <pt x="248" y="242" on="0"/>
        <pt x="289" y="296" on="0"/>
        <pt x="289" y="333" on="1"/>
        <pt x="289" y="362" on="0"/>
        <pt x="261" y="412" on="0"/>
      </contour>
    </TTGlyph>
    <TTGlyph name="jvir.tam" xMin="51" yMin="-257" xMax="745" yMax="737">
      <contour>
        <pt x="290" y="513" on="1"/>
        <pt x="351" y="513" on="0"/>
        <pt x="427" y="443" on="0"/>
        <pt x="441" y="386" on="1"/>
        <pt x="465" y="446" on="0"/>
        <pt x="549" y="513" on="0"/>
        <pt x="606" y="513" on="1"/>
        <pt x="636" y="513" on="0"/>
        <pt x="687" y="487" on="0"/>
        <pt x="724" y="442" on="0"/>
        <pt x="745" y="379" on="0"/>
        <pt x="745" y="343" on="1"/>
        <pt x="745" y="272" on="0"/>
        <pt x="692" y="163" on="0"/>
        <pt x="598" y="88" on="0"/>
        <pt x="470" y="49" on="0"/>
        <pt x="394" y="49" on="1"/>
        <pt x="274" y="49" on="1"/>
        <pt x="241" y="49" on="0"/>
        <pt x="185" y="30" on="0"/>
        <pt x="145" y="-4" on="0"/>
        <pt x="122" y="-52" on="0"/>
        <pt x="122" y="-81" on="1"/>
        <pt x="122" y="-129" on="0"/>
        <pt x="183" y="-183" on="0"/>
        <pt x="228" y="-183" on="1"/>
        <pt x="258" y="-183" on="0"/>
        <pt x="318" y="-156" on="0"/>
        <pt x="377" y="-114" on="0"/>
        <pt x="436" y="-67" on="0"/>
        <pt x="497" y="-25" on="0"/>
        <pt x="560" y="2" on="0"/>
        <pt x="594" y="2" on="1"/>
        <pt x="651" y="2" on="0"/>
        <pt x="707" y="-60" on="0"/>
        <pt x="707" y="-104" on="1"/>
        <pt x="707" y="-137" on="0"/>
        <pt x="682" y="-189" on="0"/>
        <pt x="639" y="-227" on="0"/>
        <pt x="579" y="-252" on="0"/>
        <pt x="545" y="-257" on="1"/>
        <pt x="506" y="-214" on="1"/>
        <pt x="528" y="-211" on="0"/>
        <pt x="575" y="-197" on="0"/>
        <pt x="612" y="-173" on="0"/>
        <pt x="636" y="-138" on="0"/>
        <pt x="636" y="-115" on="1"/>
        <pt x="636" y="-94" on="0"/>
        <pt x="608" y="-62" on="0"/>
        <pt x="582" y="-62" on="1"/>
        <pt x="557" y="-62" on="0"/>
        <pt x="503" y="-90" on="0"/>
        <pt x="447" y="-132" on="0"/>
        <pt x="387" y="-181" on="0"/>
        <pt x="324" y="-223" on="0"/>
        <pt x="257" y="-251" on="0"/>
        <pt x="222" y="-251" on="1"/>
        <pt x="185" y="-251" on="0"/>
        <pt x="123" y="-228" on="0"/>
        <pt x="77" y="-186" on="0"/>
        <pt x="51" y="-126" on="0"/>
        <pt x="51" y="-89" on="1"/>
        <pt x="51" y="-43" on="0"/>
        <pt x="83" y="32" on="0"/>
        <pt x="141" y="84" on="0"/>
        <pt x="223" y="112" on="0"/>
        <pt x="274" y="112" on="1"/>
        <pt x="400" y="112" on="1"/>
        <pt x="459" y="112" on="0"/>
        <pt x="559" y="139" on="0"/>
        <pt x="632" y="195" on="0"/>
        <pt x="673" y="282" on="0"/>
        <pt x="673" y="343" on="1"/>
        <pt x="673" y="392" on="0"/>
        <pt x="633" y="446" on="0"/>
        <pt x="598" y="446" on="1"/>
        <pt x="555" y="446" on="0"/>
        <pt x="493" y="369" on="0"/>
        <pt x="485" y="288" on="1"/>
        <pt x="479" y="222" on="1"/>
        <pt x="410" y="222" on="1"/>
        <pt x="415" y="269" on="1"/>
        <pt x="419" y="305" on="0"/>
        <pt x="405" y="375" on="0"/>
        <pt x="369" y="426" on="0"/>
        <pt x="309" y="452" on="0"/>
        <pt x="267" y="444" on="1"/>
        <pt x="301" y="420" on="0"/>
        <pt x="336" y="349" on="0"/>
        <pt x="336" y="311" on="1"/>
        <pt x="336" y="255" on="0"/>
        <pt x="265" y="182" on="0"/>
        <pt x="207" y="182" on="1"/>
        <pt x="183" y="182" on="0"/>
        <pt x="140" y="198" on="0"/>
        <pt x="107" y="229" on="0"/>
        <pt x="88" y="276" on="0"/>
        <pt x="88" y="307" on="1"/>
        <pt x="88" y="347" on="0"/>
        <pt x="119" y="422" on="0"/>
        <pt x="173" y="479" on="0"/>
        <pt x="247" y="513" on="0"/>
      </contour>
      <contour>
        <pt x="232" y="432" on="1"/>
        <pt x="199" y="414" on="0"/>
        <pt x="155" y="348" on="0"/>
        <pt x="155" y="307" on="1"/>
        <pt x="155" y="279" on="0"/>
        <pt x="184" y="242" on="0"/>
        <pt x="213" y="242" on="1"/>
        <pt x="248" y="242" on="0"/>
        <pt x="289" y="296" on="0"/>
        <pt x="289" y="333" on="1"/>
        <pt x="289" y="362" on="0"/>
        <pt x="261" y="412" on="0"/>
      </contour>
      <contour>
        <pt x="427" y="684" on="1"/>
        <pt x="430" y="707" on="0"/>
        <pt x="460" y="737" on="0"/>
        <pt x="478" y="737" on="1"/>
        <pt x="498" y="737" on="0"/>
        <pt x="523" y="707" on="0"/>
        <pt x="521" y="684" on="1"/>
        <pt x="519" y="664" on="0"/>
        <pt x="489" y="634" on="0"/>
        <pt x="469" y="634" on="1"/>
        <pt x="450" y="634" on="0"/>
        <pt x="425" y="664" on="0"/>
      </contour>
    </TTGlyph>
    <TTGlyph name="ka.tam" xMin="55" yMin="-9" xMax="670" yMax="504">
      <contour>
        <pt x="242" y="280" on="1"/>
        <pt x="396" y="280" on="1"/>
        <pt x="411" y="435" on="1"/>
        <pt x="256" y="435" on="1"/>
      </contour>
      <contour>
        <pt x="196" y="227" on="1"/>
        <pt x="167" y="227" on="0"/>
        <pt x="127" y="198" on="0"/>
        <pt x="127" y="163" on="1"/>
        <pt x="127" y="140" on="0"/>
        <pt x="149" y="100" on="0"/>
        <pt x="189" y="71" on="0"/>
        <pt x="243" y="55" on="0"/>
        <pt x="275" y="55" on="1"/>
        <pt x="328" y="55" on="0"/>
        <pt x="380" y="114" on="0"/>
        <pt x="386" y="174" on="1"/>
        <pt x="392" y="227" on="1"/>
      </contour>
      <contour>
        <pt x="617" y="504" on="1"/>
        <pt x="609" y="435" on="1"/>
        <pt x="479" y="435" on="1"/>
        <pt x="465" y="280" on="1"/>
        <pt x="538" y="280" on="1"/>
        <pt x="600" y="280" on="0"/>
        <pt x="670" y="215" on="0"/>
        <pt x="670" y="163" on="1"/>
        <pt x="670" y="104" on="0"/>
        <pt x="601" y="15" on="0"/>
        <pt x="541" y="-9" on="1"/>
        <pt x="502" y="50" on="1"/>
        <pt x="541" y="61" on="0"/>
        <pt x="598" y="116" on="0"/>
        <pt x="598" y="161" on="1"/>
        <pt x="598" y="192" on="0"/>
        <pt x="561" y="227" on="0"/>
        <pt x="526" y="227" on="1"/>
        <pt x="460" y="227" on="1"/>
        <pt x="455" y="173" on="1"/>
        <pt x="437" y="-9" on="0"/>
        <pt x="275" y="-9" on="1"/>
        <pt x="226" y="-9" on="0"/>
        <pt x="145" y="20" on="0"/>
        <pt x="87" y="69" on="0"/>
        <pt x="55" y="132" on="0"/>
        <pt x="55" y="166" on="1"/>
        <pt x="55" y="217" on="0"/>
        <pt x="116" y="280" on="0"/>
        <pt x="167" y="280" on="1"/>
        <pt x="177" y="280" on="1"/>
        <pt x="199" y="504" on="1"/>
      </contour>
    </TTGlyph>
    <TTGlyph name="kansv.tam" xMin="55" yMin="-9" xMax="670" yMax="810">
      <contour>
        <pt x="242" y="280" on="1"/>
        <pt x="396" y="280" on="1"/>
        <pt x="411" y="435" on="1"/>
        <pt x="256" y="435" on="1"/>
      </contour>
      <contour>
        <pt x="196" y="227" on="1"/>
        <pt x="167" y="227" on="0"/>
        <pt x="127" y="198" on="0"/>
        <pt x="127" y="163" on="1"/>
        <pt x="127" y="140" on="0"/>
        <pt x="149" y="100" on="0"/>
        <pt x="189" y="71" on="0"/>
        <pt x="243" y="55" on="0"/>
        <pt x="275" y="55" on="1"/>
        <pt x="328" y="55" on="0"/>
        <pt x="380" y="114" on="0"/>
        <pt x="386" y="174" on="1"/>
        <pt x="392" y="227" on="1"/>
      </contour>
      <contour>
        <pt x="617" y="504" on="1"/>
        <pt x="609" y="435" on="1"/>
        <pt x="479" y="435" on="1"/>
        <pt x="465" y="280" on="1"/>
        <pt x="538" y="280" on="1"/>
        <pt x="600" y="280" on="0"/>
        <pt x="670" y="215" on="0"/>
        <pt x="670" y="163" on="1"/>
        <pt x="670" y="104" on="0"/>
        <pt x="601" y="15" on="0"/>
        <pt x="541" y="-9" on="1"/>
        <pt x="502" y="50" on="1"/>
        <pt x="541" y="61" on="0"/>
        <pt x="598" y="116" on="0"/>
        <pt x="598" y="161" on="1"/>
        <pt x="598" y="192" on="0"/>
        <pt x="561" y="227" on="0"/>
        <pt x="526" y="227" on="1"/>
        <pt x="460" y="227" on="1"/>
        <pt x="455" y="173" on="1"/>
        <pt x="437" y="-9" on="0"/>
        <pt x="275" y="-9" on="1"/>
        <pt x="226" y="-9" on="0"/>
        <pt x="145" y="20" on="0"/>
        <pt x="87" y="69" on="0"/>
        <pt x="55" y="132" on="0"/>
        <pt x="55" y="166" on="1"/>
        <pt x="55" y="217" on="0"/>
        <pt x="116" y="280" on="0"/>
        <pt x="167" y="280" on="1"/>
        <pt x="177" y="280" on="1"/>
        <pt x="199" y="504" on="1"/>
      </contour>
      <contour>
        <pt x="418" y="810" on="1"/>
        <pt x="464" y="810" on="0"/>
        <pt x="522" y="750" on="0"/>
        <pt x="518" y="697" on="1"/>
        <pt x="516" y="670" on="0"/>
        <pt x="494" y="628" on="0"/>
        <pt x="461" y="598" on="0"/>
        <pt x="419" y="583" on="0"/>
        <pt x="397" y="583" on="1"/>
        <pt x="374" y="583" on="0"/>
        <pt x="337" y="598" on="0"/>
        <pt x="310" y="628" on="0"/>
        <pt x="297" y="670" on="0"/>
        <pt x="299" y="697" on="1"/>
        <pt x="304" y="751" on="0"/>
        <pt x="373" y="810" on="0"/>
      </contour>
      <contour>
        <pt x="413" y="755" on="1"/>
        <pt x="391" y="755" on="0"/>
        <pt x="365" y="723" on="0"/>
        <pt x="362" y="697" on="1"/>
        <pt x="360" y="670" on="0"/>
        <pt x="379" y="639" on="0"/>
        <pt x="402" y="639" on="1"/>
        <pt x="425" y="639" on="0"/>
        <pt x="452" y="670" on="0"/>
        <pt x="455" y="697" on="1"/>
        <pt x="457" y="723" on="0"/>
        <pt x="436" y="755" on="0"/>
      </contour>
    </TTGlyph>
</ttFont>
